<svg width="317" height="282" viewBox="0 0 317 282" fill="none" xmlns="http://www.w3.org/2000/svg">
<path d="M60.5488 146.027C60.5488 146.027 298.387 146.06 298.396 146.048C304.68 130.086 297.557 117.886 282.652 104.095C271.493 93.749 250.768 90.1719 256.173 68.3293C262.554 42.5806 232.407 34.1541 202.317 42.1958C178.782 48.4819 157.12 70.7977 140.806 63.3154C109.192 48.8119 94.0356 55.2737 85.2801 59.454C69.0403 67.0997 55.0648 83.5232 52.5366 104.228C50.8917 118.412 54.4556 133.553 60.5488 146.027Z" fill="#EDF4FF"/>
<path d="M3.51953 101.064C3.5879 101.453 3.67962 101.841 3.77134 102.207C4.11486 103.622 4.48006 105.016 4.84527 106.365C4.86861 106.479 4.91364 106.594 4.93698 106.707C4.98367 106.844 5.00535 106.981 5.05205 107.119C5.46394 108.65 5.89751 110.113 6.33108 111.552C6.92475 113.494 7.54176 115.345 8.15877 117.15C8.3422 117.675 8.52396 118.2 8.7074 118.704C8.98088 119.458 9.25603 120.211 9.50784 120.944V120.967C9.75964 121.561 9.96477 122.109 10.1932 122.681C10.5351 123.595 10.9019 124.464 11.2438 125.331C11.7691 126.61 12.2944 127.844 12.798 128.986C12.9114 129.26 13.0265 129.512 13.1415 129.763C13.37 130.289 13.5984 130.792 13.8036 131.271H46.2465V101.068H3.5212L3.51953 101.064Z" fill="#8E3900"/>
<path d="M154.874 131.258H215.023V101.059H154.874V131.258Z" fill="#2B478B"/>
<path d="M190.691 142.552C200.273 140.291 206.208 130.69 203.946 121.107C201.684 111.525 192.083 105.591 182.501 107.853C172.919 110.114 166.985 119.715 169.246 129.297C171.508 138.879 181.109 144.814 190.691 142.552Z" fill="#233862"/>
<path d="M177.248 125.188C177.248 127.271 177.93 129.193 179.081 130.747C180.782 133.049 183.517 134.54 186.6 134.54C191.764 134.54 195.953 130.352 195.953 125.188C195.953 121.177 193.43 117.759 189.887 116.428C188.864 116.044 187.757 115.834 186.6 115.834C181.435 115.834 177.248 120.022 177.248 125.188Z" fill="#466AA5"/>
<path d="M2.92636 45.7958L249.793 0.010498C258.389 0.010498 265.475 5.94211 267.408 13.6747C268.268 16.7231 277.64 51.4156 279.014 62.5684C280.133 70.9764 280.568 80.3216 280.682 89.3683C280.762 102.917 280.36 110.35 279.653 123.205C279.333 127.751 275.586 131.271 271.04 131.271H207.98C208.003 131.203 208.003 131.135 208.025 131.066C208.55 129.192 208.802 127.228 208.802 125.195C208.802 116.65 203.981 109.224 196.899 105.501C193.905 103.925 190.523 103.032 186.937 102.964C183.121 102.919 179.511 103.833 176.357 105.501C169.343 109.179 164.499 116.468 164.386 124.875C164.362 127.022 164.638 129.1 165.163 131.066C165.186 131.135 165.208 131.203 165.208 131.271H39.4816C40.0302 129.329 40.3504 127.296 40.3504 125.193C40.3504 112.741 30.2515 102.666 17.8229 102.666C13.0253 102.666 8.56948 104.15 4.93747 106.71C4.26877 103.353 -4.39436 76.7113 2.92636 45.7975V45.7958Z" fill="#88B374"/>
<path d="M240.091 109.517H251.107C252.212 109.517 253.116 108.613 253.116 107.508C253.116 106.402 252.212 105.498 251.107 105.498H240.091C238.985 105.498 238.081 106.402 238.081 107.508C238.081 108.613 238.985 109.517 240.091 109.517Z" fill="#FFB93E"/>
<path d="M0.961756 56.4429C0.961756 56.4429 277.855 55.6141 277.973 56.101C278.447 58.0605 278.809 59.7714 279.027 61.1422C280.435 69.9854 280.785 80.141 280.673 89.3745C280.643 91.7908 280.583 94.1438 280.5 96.3933H99.7764V96.4033H2.51428C1.96564 93.5934 1.48538 90.6685 1.0985 87.6985C0.778323 85.3906 0.526524 83.0143 0.344756 80.6163C0.276385 79.4957 0.208007 78.3767 0.139636 77.2344C0.0929434 76.0921 0.0479181 74.9498 0.0245719 73.7842C-0.0888242 68.141 0.18466 62.3378 0.961756 56.4429Z" fill="#A8D29F"/>
<path d="M281.334 117.588H275.617C274.867 117.588 274.256 116.98 274.256 116.228V102.066C274.256 101.316 274.865 100.706 275.617 100.706H281.334C282.084 100.706 282.694 101.314 282.694 102.066V116.228C282.694 116.978 282.086 117.588 281.334 117.588Z" fill="#FFB93E"/>
<path d="M0.961914 56.4429C4.15201 33.4618 14.451 13.8226 27.4416 0.0100051H176.407C176.407 0.0100051 176.417 0.00333518 176.421 0H249.798C256.083 0 261.748 3.26514 264.901 8.06613C266.549 8.12449 268.441 8.30126 270.391 8.70648C277.653 10.219 282.241 14.2262 283.708 20.3146L284.592 20.2295C285.771 20.1178 286.842 20.9182 287.067 22.0805L290.952 42.1466C291.211 43.4774 290.265 44.7414 288.915 44.8715L283.315 45.4068C282.052 45.5269 280.93 44.6013 280.808 43.3373L278.876 23.0844C278.761 21.8688 279.613 20.7882 280.803 20.5997C279.538 15.1134 276.368 10.9961 269.751 9.60532C268.29 9.29848 266.876 9.18508 265.592 9.18008C266.886 10.8443 268.253 16.6125 270.669 25.941H189.933V56.4429H0.961914Z" fill="#88B374"/>
<path d="M269.869 22.8343C268.893 19.0406 268.103 15.9722 267.414 13.6726H16.7754C10.747 22.9878 5.9127 33.8254 2.99609 45.782L2.92605 45.7954C2.18398 48.9304 1.60865 52.0205 1.16841 55.0488C1.09837 55.5124 1.025 55.976 0.959961 56.4429H277.972C276.075 46.8976 272.363 32.3163 269.867 22.8343H269.869Z" fill="#38568A"/>
<path d="M232.658 23.8365C232.536 21.8771 234.094 20.2195 236.057 20.2195H251.615C261.631 20.2195 268.528 28.1539 269.75 38.3545L273.362 82.664C273.486 84.1815 272.288 85.4806 270.766 85.4806H238.871C237.527 85.4806 236.415 84.435 236.33 83.0926L232.656 23.8365H232.658Z" fill="#38568A"/>
<path d="M235.701 26.6516L238.361 65.6281L239.291 79.2657C239.291 81.0216 240.714 82.4441 242.468 82.4441H267.32C271.686 82.4441 270.387 75.9705 270.035 71.8849L267.289 39.8522C267.289 39.2335 267.257 38.6232 267.194 38.0212C266.348 29.8317 259.881 23.4631 252.029 23.4631H242.712C240.822 23.4631 235.701 23.4631 235.701 26.6549V26.6516Z" fill="#466AA5"/>
<path d="M177.248 125.188C177.248 127.271 177.93 129.193 179.081 130.747C189.465 127.884 190.152 120.022 189.887 116.428C188.864 116.044 187.757 115.834 186.6 115.834C181.435 115.834 177.248 120.022 177.248 125.188Z" fill="#5F87C1"/>
<path d="M6.33008 111.552C6.92374 113.495 7.54075 115.346 8.15776 117.15C8.34119 117.675 8.52296 118.2 8.70639 118.704C8.97988 119.458 9.25503 120.212 9.50683 120.944V120.967C9.75864 121.561 9.96376 122.109 10.1922 122.681C10.5341 123.595 10.9009 124.464 11.2428 125.331C11.7681 126.61 12.2934 127.844 12.797 128.986C12.9104 129.26 13.0255 129.512 13.1405 129.764C13.369 130.289 13.5974 130.792 13.8025 131.271C14.2595 132.277 14.7164 133.235 15.15 134.128C15.5835 135.018 15.9954 135.864 16.384 136.641C17.8465 139.519 19.0805 141.895 19.6291 142.924C26.5513 142.239 32.2861 137.578 34.594 131.271C35.2794 129.375 35.6446 127.319 35.6446 125.193C35.6446 115.346 27.6702 107.373 17.8231 107.373C13.459 107.373 9.43846 108.949 6.33008 111.553V111.552Z" fill="#233862"/>
<path d="M9.50684 120.942V120.965C9.75864 121.559 9.96376 122.108 10.1922 122.68C10.5341 123.594 10.9009 124.462 11.2428 125.329C11.7681 126.609 12.2934 127.843 12.797 128.985C12.9104 129.258 13.0255 129.51 13.1405 129.762C13.369 130.287 13.5974 130.791 13.8025 131.269C14.2595 132.275 14.7164 133.234 15.15 134.126C15.9954 134.399 16.8859 134.536 17.8231 134.536C20.6563 134.536 23.1927 133.279 24.9054 131.269C26.3228 129.647 27.1683 127.522 27.1683 125.191C27.1683 121.171 24.6552 117.765 21.1133 116.418C20.0844 116.053 18.9888 115.824 17.8231 115.824C14.1894 115.824 11.0377 117.904 9.50684 120.942Z" fill="#466AA5"/>
<path d="M9.50684 120.942V120.965C9.75864 121.559 9.96376 122.107 10.1922 122.679C10.5341 123.593 10.9009 124.462 11.2428 125.329C11.7681 126.608 12.2934 127.842 12.797 128.985C12.9104 129.258 13.0255 129.51 13.1405 129.762C20.8164 126.358 21.3417 119.663 21.1149 116.419C20.086 116.054 18.9904 115.826 17.8248 115.826C14.1911 115.826 11.0394 117.905 9.50851 120.944L9.50684 120.942Z" fill="#5F87C1"/>
<path d="M238.363 65.6279L239.294 79.2655C239.294 81.0215 240.716 82.4439 242.471 82.4439H267.323C271.688 82.4439 270.389 75.9703 270.037 71.8847L267.291 39.852C267.291 39.2333 267.259 38.623 267.196 38.021C262.865 48.1149 254.189 61.9492 238.363 65.6313V65.6279Z" fill="#3F6098"/>
<path d="M196.952 50.9731H148.709C147.273 50.9731 146.107 49.8075 146.107 48.3717V21.9954C146.107 20.5596 147.273 19.394 148.709 19.394H196.952C198.388 19.394 199.554 20.5596 199.554 21.9954V48.3717C199.554 49.8075 198.388 50.9731 196.952 50.9731Z" fill="#466AA5"/>
<path d="M207.266 50.9731H229.345C230.342 50.9731 231.149 50.1653 231.149 49.1688V21.1983C231.149 20.2018 230.342 19.394 229.345 19.394H207.266C206.27 19.394 205.462 20.2018 205.462 21.1983V49.1688C205.462 50.1653 206.27 50.9731 207.266 50.9731Z" fill="#466AA5"/>
<path d="M136.964 50.9731H88.7206C87.2848 50.9731 86.1192 49.8075 86.1192 48.3717V21.9954C86.1192 20.5596 87.2848 19.394 88.7206 19.394H136.964C138.4 19.394 139.565 20.5596 139.565 21.9954V48.3717C139.565 49.8075 138.4 50.9731 136.964 50.9731Z" fill="#466AA5"/>
<path d="M77.7911 50.9731H29.5478C28.112 50.9731 26.9463 49.8075 26.9463 48.3717V21.9954C26.9463 20.5596 28.112 19.394 29.5478 19.394H77.7911C79.2269 19.394 80.3926 20.5596 80.3926 21.9954V48.3717C80.3926 49.8075 79.2269 50.9731 77.7911 50.9731Z" fill="#466AA5"/>
<path d="M17.5942 50.9815C19.5587 50.9815 21.1579 49.3823 21.1579 47.4179V22.9477C21.1579 20.9833 19.5587 19.384 17.5942 19.384H13.3419C8.90944 27.3251 5.33413 36.1933 2.99617 45.782L2.92614 45.7953C2.51258 47.5396 2.15404 49.2689 1.83887 50.9815H17.5942Z" fill="#466AA5"/>
<path d="M315.699 146.537H43.9571C43.69 146.537 43.4707 146.319 43.4707 146.051C43.4707 145.784 43.689 145.564 43.9571 145.564H315.699C315.966 145.564 316.185 145.784 316.185 146.051C316.185 146.318 315.966 146.537 315.699 146.537Z" fill="#2E3552"/>
<path d="M271.959 145.401H263.982C263.555 145.038 264.277 144.214 265.034 144.159C265.363 144.134 265.778 144.202 266.251 144.304C266.361 142.846 266.988 136.29 269.351 136.555C272.009 136.85 269.351 139.441 268.6 140.976C268.044 142.113 267.457 143.742 267.189 144.512C267.405 144.558 267.628 144.605 267.856 144.647C268.208 143.566 269.519 139.929 271.185 140.141C273.142 140.389 272.354 141.848 270.968 142.713C269.95 143.35 268.701 144.255 268.108 144.692C268.612 144.774 269.136 144.829 269.668 144.816C271.034 144.784 271.702 145.187 271.961 145.404L271.959 145.401Z" fill="#82B378"/>
<path d="M54.2324 144.964C53.7447 144.197 52.2757 142.207 50.3189 142.47C48.1871 142.757 52.6737 144.162 54.0472 144.97C53.7418 144.974 53.4798 144.949 53.2873 144.881C52.3698 144.554 50.7965 145.182 50.2943 145.402H59.036C58.9752 145.194 58.8175 144.852 58.4108 144.603C58.2675 144.515 57.978 144.504 57.6061 144.533C58.1257 143.92 58.4875 141.962 57.0402 142.466C55.9837 142.833 55.9866 144.03 56.0893 144.737C55.865 144.771 55.6363 144.807 55.4105 144.839C54.9749 142.621 53.4364 136.121 50.316 135.947C47.1537 135.772 52.9979 142.689 54.9445 144.902C54.6956 144.932 54.4553 144.954 54.2324 144.965V144.964Z" fill="#82B378"/>
<path d="M151.214 145.393C151.214 145.393 151.214 143.923 151.424 143.434C151.634 142.945 152.402 140.953 152.402 140.953H155.407C155.407 140.953 155.965 142.769 156 143.364C156.035 143.958 156 145.395 156 145.395H151.214V145.393Z" fill="#233862"/>
<path d="M170.293 145.393C170.293 145.393 170.293 143.923 170.083 143.434C169.873 142.945 169.105 140.953 169.105 140.953H166.1C166.1 140.953 165.541 142.769 165.507 143.364C165.472 143.958 165.507 145.395 165.507 145.395H170.293V145.393Z" fill="#233862"/>
<path d="M158.255 62.8307C158.255 62.8307 158.15 66.106 157.73 67.5735L154.411 69.8878L166.901 71.7562L163.923 67.6401C163.923 67.6401 163.024 63.249 163.496 61.6237C163.968 59.9984 158.255 62.8293 158.255 62.8293V62.8307Z" fill="#FFB27D"/>
<path d="M158.236 63.2837C158.236 63.2837 159.223 65.6616 161.085 65.6095C162.944 65.5574 163.368 63.453 163.368 63.453L158.236 63.2837Z" fill="#ED985F"/>
<path d="M157.126 61.3589C157.126 61.3589 156.525 58.3601 156.106 57.4512C155.686 56.5423 155.337 52.4899 159.984 52.28C159.984 52.28 161.766 52.4899 162.744 51.895C162.744 51.895 162.744 52.4884 162.5 52.6983C162.5 52.6983 164.106 52.3133 165.364 53.7114C166.622 55.1095 164.526 59.9999 164.63 61.1534L157.126 61.3575V61.3589Z" fill="#2C3A64"/>
<path d="M160.872 64.6906C159.524 64.6675 157.042 62.8714 157.042 60.6483V57.1791C157.042 56.3672 157.608 55.7029 158.3 55.7029H163.442C164.134 55.7029 164.7 56.3672 164.7 57.1791V60.4515C164.7 62.7816 162.416 64.7167 160.87 64.6892L160.872 64.6906Z" fill="#FFB27D"/>
<path d="M157.043 59.0317C157.043 59.0317 157.05 56.9476 158.7 56.6263C160.351 56.3064 164.046 57.6423 164.57 56.1226C165.094 54.6029 157.429 54.629 157.043 55.5987C156.656 56.5684 157.043 59.0317 157.043 59.0317Z" fill="#2C3A64"/>
<path d="M151.592 94.4514C151.592 94.4514 152.117 110.505 151.331 119.663C150.545 128.823 151.337 141.57 151.337 141.57C151.337 141.57 153.851 142.956 156.576 141.57C156.576 141.57 159.565 123.875 159.546 119.663C159.526 115.178 162.8 95.1504 162.8 95.1504L151.592 94.45V94.4514Z" fill="#B64C41"/>
<path d="M170.184 141.57C170.184 141.57 167.67 142.956 164.945 141.57C164.945 141.57 161.956 123.875 161.975 119.663C161.984 117.769 161.405 113.101 160.733 108.344C159.814 101.834 158.722 95.1518 158.722 95.1518L170.364 94.4238C170.364 94.4238 169.404 110.505 170.19 119.663C170.976 128.823 170.184 141.57 170.184 141.57Z" fill="#B64C41"/>
<path d="M170.224 97.123C170.224 97.123 165.262 98.084 160.733 98.084C158.759 98.084 156.613 97.8669 154.905 97.6383C153.016 97.3879 151.661 97.123 151.661 97.123C151.661 97.123 150.655 97.2113 151.249 92.25C151.7 88.4754 151.559 85.0656 151.459 81.5588C151.447 81.1694 151.456 80.7078 151.48 80.194C151.673 76.1053 152.91 68.7444 153.853 68.3493C153.853 68.3493 155.254 67.8282 157.73 67.575C157.73 67.6227 159.167 69.7242 160.872 69.9587C161.931 69.5389 162.764 69.1815 163.923 67.643C165.392 67.8138 166.993 68.1047 168.706 68.5649C168.706 68.5649 168.884 69.345 169.557 82.8744C169.825 88.2337 171.654 97.1404 170.224 97.123Z" fill="#739AF0"/>
<path d="M161.976 119.663C161.985 117.769 161.406 113.101 160.734 108.344C161.432 105.502 163.13 102.766 163.13 102.766C165.279 108.793 161.976 119.665 161.976 119.665V119.663Z" fill="#AA413E"/>
<path d="M146.874 84.4536C146.755 84.552 147.169 85.5753 147.775 86.9082C149.027 89.6465 151.106 93.6917 151.106 93.6917C150.805 94.8337 150.475 95.5385 150.475 95.5385C146.978 92.7915 144.723 90.4541 143.284 88.6609C141.261 86.1397 140.846 84.6953 140.846 84.6953C148.631 68.8474 154.11 68.2627 154.11 68.2627L153.463 78.7368C153.463 78.7368 147.233 84.154 146.872 84.4536H146.874Z" fill="#2B478B"/>
<path d="M171.616 101.265C170.456 103.588 166.079 103.504 166.079 103.504C165.276 97.3344 165.098 67.8022 165.098 67.8022C166.578 67.9803 168.545 68.51 168.545 68.51C169.966 71.2584 170.47 76.405 170.593 80.0319C170.661 82.0625 170.612 83.6169 170.537 84.0062C170.425 84.5851 170.566 87.3451 170.78 90.4945C171.111 95.4066 171.616 101.264 171.616 101.264V101.265Z" fill="#2B478B"/>
<path d="M156.579 67.7197C156.579 67.7197 156.285 97.3315 155.482 103.503C155.482 103.503 151.107 103.587 149.946 101.265C149.946 101.265 151.744 83.0408 151.46 81.5588C151.263 80.5254 151.776 72.0312 153.667 68.3811C153.667 68.3811 155.323 67.8688 156.579 67.7197Z" fill="#2B478B"/>
<path d="M150.69 93.8914C150.69 93.8914 152.577 92.1445 153.346 93.1228C154.114 94.1012 154.255 95.6383 153.66 95.534C153.066 95.4284 151.844 94.8697 151.668 95.1491C151.493 95.4284 150.712 95.9624 150.473 95.5384C150.236 95.1143 150.69 93.8914 150.69 93.8914Z" fill="#FFB27D"/>
<path d="M151.105 93.6917C150.804 94.8336 150.474 95.5384 150.474 95.5384C146.978 92.7915 144.723 90.4541 143.284 88.6609C144.37 88.5798 145.953 88.1919 147.775 86.9067C149.027 89.645 151.105 93.6902 151.105 93.6902V93.6917Z" fill="#FFB27D"/>
<path d="M181.176 84.6953C181.176 84.6953 180.761 86.1411 178.739 88.6609C177.3 90.4526 175.046 92.79 171.549 95.5384C171.549 95.5384 171.219 94.8336 170.918 93.6917C170.918 93.6917 172.996 89.6465 174.248 86.9082C174.856 85.5752 175.268 84.552 175.151 84.4536C174.872 84.2206 171.065 80.9135 169.368 79.4387C168.876 79.0103 168.56 78.7367 168.56 78.7367L168.171 68.4189C168.171 68.4189 173.391 68.8473 181.178 84.6953H181.176Z" fill="#2B478B"/>
<path d="M171.33 93.8914C171.33 93.8914 169.443 92.1445 168.675 93.1228C167.906 94.1012 167.766 95.6383 168.361 95.534C168.954 95.4284 170.177 94.8697 170.352 95.1491C170.527 95.4284 171.309 95.9624 171.548 95.5384C171.785 95.1143 171.33 93.8914 171.33 93.8914Z" fill="#FFB27D"/>
<path d="M170.916 93.6917C171.217 94.8336 171.547 95.5384 171.547 95.5384C175.044 92.7915 177.299 90.4541 178.737 88.6609C177.652 88.5798 176.068 88.1919 174.246 86.9067C172.994 89.645 170.916 93.6902 170.916 93.6902V93.6917Z" fill="#FFB27D"/>
<path d="M175.15 84.4534C174.87 84.2204 171.064 80.9133 169.366 79.4385C169.366 79.4385 171.061 78.1678 172.109 80.0204C173.157 81.8729 175.15 84.4534 175.15 84.4534Z" fill="#233862"/>
<path d="M181.176 84.6951C181.176 84.6951 180.761 86.1409 178.739 88.6607C176.397 88.6288 181.176 84.6951 181.176 84.6951Z" fill="#233862"/>
<path d="M159.125 60.4931C158.633 60.4931 157.648 60.3831 157.475 59.5278C157.423 59.2687 157.472 59.0386 157.616 58.862C157.775 58.6666 158.038 58.5552 158.336 58.5552H159.85C160.138 58.5552 160.339 58.6377 160.448 58.8012C160.63 59.0762 160.49 59.4887 160.422 59.6537C160.186 60.2167 159.862 60.4801 159.402 60.4815C159.383 60.483 159.277 60.4946 159.125 60.4946V60.4931ZM158.336 58.655C158.067 58.655 157.833 58.7535 157.692 58.9242C157.568 59.0776 157.526 59.2788 157.572 59.5075C157.661 59.946 157.991 60.2268 158.554 60.3411C158.982 60.428 159.389 60.3802 159.393 60.3802H159.399C159.816 60.3802 160.112 60.1371 160.331 59.6146C160.38 59.4974 160.526 59.0979 160.366 58.8562C160.276 58.7231 160.104 58.655 159.85 58.655H158.336Z" fill="#B64C41"/>
<path d="M162.618 60.4933C162.466 60.4933 162.36 60.4832 162.341 60.4803C161.881 60.4803 161.556 60.2169 161.321 59.6525C161.252 59.4875 161.111 59.075 161.295 58.8C161.404 58.6365 161.605 58.554 161.893 58.554H163.407C163.705 58.554 163.968 58.6654 164.127 58.8608C164.272 59.0374 164.321 59.2675 164.269 59.5265C164.097 60.3819 163.111 60.4919 162.619 60.4919L162.618 60.4933ZM161.891 58.6553C161.639 58.6553 161.466 58.7233 161.376 58.8564C161.215 59.0981 161.363 59.4976 161.411 59.6148C161.629 60.1373 161.926 60.3804 162.343 60.3804H162.349C162.349 60.3804 162.761 60.4282 163.188 60.3414C163.75 60.227 164.08 59.9463 164.168 59.5077C164.214 59.2791 164.172 59.0764 164.048 58.9245C163.907 58.7537 163.673 58.6553 163.404 58.6553H161.89H161.891Z" fill="#B64C41"/>
<path d="M160.329 59.2559C160.306 59.2559 160.286 59.2429 160.276 59.2212C160.263 59.1908 160.276 59.156 160.305 59.1416C160.329 59.13 160.923 58.8637 161.449 59.143C161.478 59.1589 161.49 59.1937 161.474 59.2241C161.458 59.253 161.423 59.2646 161.393 59.2487C160.918 58.9968 160.36 59.2487 160.354 59.2501C160.345 59.2545 160.338 59.2559 160.329 59.2559Z" fill="#B64C41"/>
<path d="M170.781 90.4946C168.3 83.5042 169.367 79.4387 169.367 79.4387L170.595 80.0321C170.663 82.0627 170.614 83.6171 170.539 84.0064C170.428 84.5853 170.568 87.3453 170.782 90.4946H170.781Z" fill="#233862"/>
<path d="M111.83 145.393C111.83 145.393 111.83 143.923 112.04 143.434C112.25 142.945 113.018 140.953 113.018 140.953H116.023C116.023 140.953 116.582 142.769 116.616 143.364C116.651 143.958 116.616 145.395 116.616 145.395H111.83V145.393Z" fill="#233862"/>
<path d="M130.908 145.393C130.908 145.393 130.908 143.923 130.698 143.434C130.488 142.945 129.719 140.953 129.719 140.953H126.715C126.715 140.953 126.156 142.769 126.12 143.364C126.085 143.958 126.12 145.395 126.12 145.395H130.906L130.908 145.393Z" fill="#233862"/>
<path d="M118.87 62.8307C118.87 62.8307 118.764 66.106 118.345 67.5735L115.027 69.8878L127.518 71.7562L124.539 67.6401C124.539 67.6401 123.64 63.249 124.112 61.6237C124.584 59.9984 118.871 62.8293 118.871 62.8293L118.87 62.8307Z" fill="#FFB27D"/>
<path d="M118.852 63.2839C118.852 63.2839 119.839 65.6618 121.7 65.6097C123.56 65.5576 123.984 63.4533 123.984 63.4533L118.852 63.2839Z" fill="#ED985F"/>
<path d="M117.741 61.3589C117.741 61.3589 117.141 58.3601 116.721 57.4512C116.301 56.5423 115.952 52.4899 120.6 52.28C120.6 52.28 122.381 52.4899 123.36 51.895C123.36 51.895 123.36 52.4884 123.115 52.6983C123.115 52.6983 124.723 52.3133 125.981 53.7114C127.238 55.1095 125.143 59.9999 125.247 61.1534L117.741 61.3575V61.3589Z" fill="#B64C41"/>
<path d="M124.059 55.7043H118.915C118.223 55.7043 117.657 56.3687 117.657 57.1806V60.6498C117.657 62.8728 120.138 64.6675 121.487 64.6921C123.032 64.7196 125.316 62.7845 125.316 60.4544V57.182C125.316 56.3701 124.75 55.7058 124.059 55.7058V55.7043Z" fill="#FFB27D"/>
<path d="M117.657 59.0317C117.657 59.0317 117.664 56.9476 119.314 56.6263C120.966 56.3064 124.661 57.6423 125.185 56.1226C125.708 54.6029 118.044 54.629 117.657 55.5987C117.271 56.5684 117.657 59.0317 117.657 59.0317Z" fill="#B64C41"/>
<path d="M112.207 94.4514C112.207 94.4514 112.732 110.505 111.946 119.663C111.161 128.823 111.952 141.57 111.952 141.57C111.952 141.57 114.466 142.956 117.191 141.57C117.191 141.57 120.18 123.875 120.161 119.663C120.141 115.178 123.415 95.1504 123.415 95.1504L112.208 94.45L112.207 94.4514Z" fill="#2B478B"/>
<path d="M130.799 141.57C130.799 141.57 128.285 142.956 125.559 141.57C125.559 141.57 122.571 123.875 122.589 119.663C122.598 117.769 122.019 113.101 121.348 108.344C120.429 101.834 119.336 95.1518 119.336 95.1518L130.978 94.4238C130.978 94.4238 130.018 110.505 130.804 119.663C131.59 128.823 130.799 141.57 130.799 141.57Z" fill="#2B478B"/>
<path d="M115.52 97.6384C113.631 97.388 112.277 97.1231 112.277 97.1231C112.277 97.1231 111.271 97.2114 111.864 92.2501C112.316 88.4755 112.174 85.0657 112.074 81.5589C112.062 81.1696 112.071 80.7079 112.096 80.1941C112.385 80.6572 115.61 85.8646 116.477 89.7347C117.109 92.5569 116.155 95.8828 115.52 97.6384Z" fill="#27437C"/>
<path d="M128.784 68.4187V68.426C127.273 68.0453 125.852 67.7949 124.538 67.643C123.378 69.1829 122.546 69.5404 121.487 69.9587C119.782 69.7227 118.345 67.6227 118.345 67.575C116.486 67.7645 115.234 68.1061 114.725 68.2639C114.624 68.2754 109.175 68.9962 101.462 84.6951C101.462 84.6951 101.877 86.1409 103.901 88.6607C105.339 90.4524 107.594 92.7898 111.091 95.5382C111.091 95.5382 111.421 94.8334 111.722 93.6915C111.722 93.6915 109.643 89.6463 108.392 86.908C107.784 85.575 107.37 84.5518 107.488 84.4534C107.714 84.2667 110.228 82.0827 112.085 80.4704C112.071 80.8742 112.066 81.2404 112.075 81.5588C112.176 85.0656 112.317 88.474 111.865 92.25C111.27 97.2113 112.278 97.123 112.278 97.123C112.278 97.123 113.632 97.3879 115.521 97.6383C117.23 97.8669 119.375 98.084 121.349 98.084C125.878 98.084 130.841 97.123 130.841 97.123C132.269 97.1404 130.44 88.2337 130.173 82.8744C130.111 81.6297 130.053 80.4935 130 79.4558C131.706 80.9379 135.486 84.2218 135.766 84.4548C135.884 84.5532 135.471 85.5765 134.863 86.9094C133.611 89.6477 131.532 93.6929 131.532 93.6929C131.833 94.8348 132.163 95.5397 132.163 95.5397C135.66 92.7927 137.915 90.4553 139.354 88.6621C141.377 86.1409 141.792 84.6965 141.792 84.6965C134.007 68.8486 128.785 68.4202 128.785 68.4202L128.784 68.4187Z" fill="#2F5196"/>
<path d="M122.591 119.663C122.6 117.769 122.021 113.101 121.35 108.344C122.047 105.502 123.745 102.766 123.745 102.766C125.894 108.793 122.591 119.665 122.591 119.665V119.663Z" fill="#233862"/>
<path d="M111.306 93.8914C111.306 93.8914 113.194 92.1445 113.962 93.1228C114.731 94.1012 114.871 95.6383 114.276 95.534C113.683 95.4284 112.46 94.8697 112.285 95.1491C112.109 95.4284 111.328 95.9624 111.089 95.5384C110.852 95.1143 111.306 93.8914 111.306 93.8914Z" fill="#FFB27D"/>
<path d="M111.721 93.6917C111.42 94.8336 111.09 95.5384 111.09 95.5384C107.593 92.7915 105.338 90.4541 103.899 88.6609C104.983 88.5798 106.568 88.1919 108.39 86.9067C109.642 89.645 111.721 93.6902 111.721 93.6902V93.6917Z" fill="#FFB27D"/>
<path d="M131.947 93.8914C131.947 93.8914 130.059 92.1445 129.291 93.1228C128.522 94.1012 128.382 95.6383 128.977 95.534C129.57 95.4284 130.793 94.8697 130.968 95.1491C131.143 95.4284 131.925 95.9624 132.164 95.5384C132.401 95.1143 131.947 93.8914 131.947 93.8914Z" fill="#FFB27D"/>
<path d="M131.531 93.6917C131.832 94.8336 132.162 95.5384 132.162 95.5384C135.659 92.7915 137.914 90.4541 139.352 88.6609C138.268 88.5798 136.684 88.1919 134.861 86.9067C133.61 89.645 131.531 93.6902 131.531 93.6902V93.6917Z" fill="#FFB27D"/>
<path d="M135.764 84.4534C135.485 84.2204 131.678 80.9133 129.98 79.4385C129.98 79.4385 131.675 78.1678 132.723 80.0204C133.771 81.8729 135.764 84.4534 135.764 84.4534Z" fill="#2B478B"/>
<path d="M141.791 84.6951C141.791 84.6951 141.375 86.1409 139.352 88.6607C137.01 88.6288 141.791 84.6951 141.791 84.6951Z" fill="#2B478B"/>
<path d="M118.519 66.7761C118.519 66.7761 117.964 67.0077 117.807 67.6358C117.807 67.6358 120.031 69.924 121.487 69.9587L118.519 66.7761Z" fill="#EE9849"/>
<path d="M121.486 69.9588L124.358 66.6604C124.358 66.6604 124.951 67.0512 124.942 67.6923C124.942 67.6923 122.721 70.0471 121.486 69.9588Z" fill="#EE9849"/>
<path d="M120.97 69.7156C120.97 69.7156 118.778 88.6347 119.541 90.9403C119.933 92.127 120.46 93.1546 120.878 93.871C121.179 94.3863 121.925 94.3848 122.223 93.8681C122.805 92.8579 123.566 91.3962 123.566 90.6537C123.566 89.451 121.903 69.6982 121.903 69.6982L120.971 69.7142L120.97 69.7156Z" fill="#EE9849"/>
<path d="M120.395 68.7878C120.395 68.7878 121.72 68.6547 122.526 68.7372C122.685 68.7531 122.775 68.9282 122.697 69.0686C122.471 69.4753 122.009 70.1801 121.527 70.1801C120.85 70.1801 119.793 68.8341 120.394 68.7878H120.395Z" fill="#E58638"/>
<path d="M141.809 60.3546C141.809 60.3546 140.579 56.8579 140.512 55.949C140.446 55.0401 140.855 52.4205 143.883 52.1411C146.911 51.8618 148.037 51.5391 148.037 51.5391L147.461 52.2207C147.461 52.2207 148.303 51.9588 149.179 52.5348C150.054 53.1108 150.5 54.8143 150.37 56.2819C150.238 57.7494 149.092 59.3646 149.076 59.971C149.06 60.5774 141.809 60.3546 141.809 60.3546Z" fill="#233862"/>
<path d="M133.553 96.6369C133.553 96.6369 133.483 97.4359 132.65 99.1726C132.65 99.1726 132.268 100.354 134.769 102.125C137.27 103.897 134.838 96.6355 134.838 96.6355H133.553V96.6369Z" fill="#D9935C"/>
<path d="M142.38 65.7747C142.38 65.7747 140.977 73.2861 139.446 81.132C137.783 89.6609 135.969 98.5849 135.644 98.6935C135.019 98.9019 134.062 98.0856 133.645 97.0436C133.311 96.2056 132.735 89.315 133.127 84.8631C133.222 83.7762 133.332 82.8846 133.455 82.3318C134.081 79.5182 134.27 69.5637 136.146 67.9992C138.022 66.4361 142.38 65.7761 142.38 65.7761V65.7747Z" fill="#D9935C"/>
<path d="M142.38 65.7747C142.38 65.7747 141.571 70.1035 140.513 75.6206C140.177 77.3719 139.815 79.2418 139.446 81.132C137.947 84.0714 136.66 86.0687 136.262 85.6938C135.452 84.9282 134.028 84.8341 133.126 84.8616C133.221 83.7747 133.331 82.8832 133.455 82.3303C133.504 82.1074 133.55 81.8411 133.595 81.5372C134.119 77.9971 134.417 69.4378 136.145 67.9977C138.021 66.4346 142.379 65.7747 142.379 65.7747H142.38Z" fill="#739AF0"/>
<path d="M140.513 75.6206C140.177 77.3718 139.815 79.2417 139.446 81.1319C137.947 84.0714 136.66 86.0687 136.262 85.6938C135.452 84.9282 134.028 84.8341 133.126 84.8616C133.221 83.7747 133.331 82.8831 133.455 82.3303C133.504 82.1074 133.55 81.8411 133.595 81.5372L138.09 70.6853L140.51 75.6206H140.513Z" fill="#4A75CB"/>
<path d="M148.603 65.6646C148.636 64.1493 148.612 62.3416 148.406 60.8132L142.359 61.8017C142.359 61.8017 142.359 63.647 142.385 65.6935C142.381 65.6935 142.38 65.6935 142.38 65.6935C142.38 65.6935 142.215 67.5924 144.553 67.8703C146.892 68.1481 148.665 67.1292 148.602 65.6631L148.603 65.6646Z" fill="#D9935C"/>
<path d="M142.342 62.1738C142.342 62.1738 143.766 65.0916 145.399 65.0916C147.032 65.0916 148.56 62.3475 148.56 62.3475L142.341 62.1738H142.342Z" fill="#CB7D45"/>
<path d="M146.373 145.819C146.373 145.819 146.593 144.105 147.102 143.087C147.611 142.068 150.853 142.716 150.853 142.716C150.853 142.716 151.502 143.272 151.641 145.865L146.371 145.819H146.373Z" fill="#233862"/>
<path d="M135.326 145.796C136.087 145.331 135.654 141.862 135.654 141.862C135.654 141.862 132.104 139.022 131.616 141.196C131.128 143.37 128.244 144.347 126.601 144.613C125.468 144.797 125.116 145.425 125.008 145.796H135.326Z" fill="#233862"/>
<path d="M142.539 62.3895C143.127 62.8512 144.849 63.3114 145.347 63.3649C145.347 63.3649 147.901 62.7947 148.366 62.5154C149.085 62.0797 149.039 61.1969 149.075 59.971C149.12 58.5194 149.266 57.3789 149.104 56.5424C148.911 55.5408 148.276 54.9721 146.499 54.8172C143.235 54.5335 141.876 55.3513 141.82 56.4454C141.805 56.7392 141.791 57.0185 141.782 57.2848C141.652 60.6961 141.921 61.9061 142.539 62.3924V62.3895Z" fill="#D9935C"/>
<path d="M142.679 120.015C142.535 120.811 142.443 121.464 142.419 121.933C142.089 128.37 137 143.089 136.09 143.432C134.681 143.964 132.463 142.835 131.303 142.464C130.823 142.311 130.497 141.826 130.604 141.334C133.124 129.748 134.05 113.065 134.388 103.189C134.558 98.2144 135.412 94.7771 135.412 94.7771C135.412 94.7771 147.824 91.4656 147.898 95.6541C147.963 99.3607 143.786 113.899 142.681 120.014L142.679 120.015Z" fill="#2B478B"/>
<path d="M142.679 120.015L134.388 103.189C134.558 98.2144 135.412 94.7771 135.412 94.7771C135.412 94.7771 147.824 91.4656 147.898 95.6541C147.963 99.3607 143.786 113.899 142.681 120.014L142.679 120.015Z" fill="#233862"/>
<path d="M139.918 95.6701L146.479 143.224C146.479 143.224 149.361 143.919 151.601 143.363C151.601 143.363 153.522 118.071 153.362 111.957C153.202 105.842 154.742 95.5949 153.011 94.466C151.281 93.3356 139.917 95.6701 139.917 95.6701H139.918Z" fill="#2B478B"/>
<path d="M153.954 94.4659C153.975 95.0173 153.538 95.4761 152.988 95.4848L142.649 95.6426L135.055 95.7583C134.699 95.7641 135.823 92.9187 135.847 74.3673C135.852 70.228 142.261 65.7732 142.38 65.7732C142.38 66.3709 143.319 67.4709 144.766 67.5664C146.484 67.6793 148.592 66.8239 148.592 65.8354C148.592 65.8238 148.791 66.0409 149.111 66.507C149.969 67.756 151.696 70.8026 152.799 76.1055C153.67 80.2925 153.334 85.8921 153.961 93.1156C154.007 93.6381 153.939 94.1012 153.952 94.4659H153.954Z" fill="#FFA412"/>
<path d="M153.572 95.5427C153.572 95.5427 152.197 96.1578 149.626 96.6919C147.714 97.0884 145.143 97.4401 141.983 97.4604C136.958 97.4922 135.055 95.7598 135.055 95.7598C134.699 95.7656 135.823 92.9202 135.847 74.3687C135.852 70.2294 142.261 65.7747 142.38 65.7747C142.38 65.7747 142.215 71.2889 143.882 72.9098C143.882 72.9098 146.221 71.1036 149.256 65.9614C150.113 67.2104 151.696 70.8026 152.799 76.1055C153.023 77.1852 153.166 78.356 153.269 79.6268C153.562 83.2855 153.496 87.7533 153.962 93.117C154.009 93.6395 153.941 94.1026 153.954 94.4674C153.975 95.0188 154.123 95.5355 153.572 95.5442V95.5427Z" fill="#739AF0"/>
<path d="M153.572 95.5428C153.572 95.5428 152.197 96.1579 149.627 96.6919C148.818 95.4588 147.799 93.2329 147.657 89.7246C147.418 83.7921 153.054 76.1519 153.054 76.1519L153.268 79.6254C153.56 83.2841 153.495 87.752 153.961 93.1156C154.008 93.6381 153.94 94.1013 153.953 94.466C153.974 95.0174 154.122 95.5341 153.57 95.5428H153.572Z" fill="#4A75CB"/>
<path d="M148.692 75.4542L139.086 81.0002L146.694 94.1772L156.3 88.6312L148.692 75.4542Z" fill="#2B478B"/>
<path d="M157.802 87.778C157.802 87.778 155.835 87.9704 152.471 87.6245C150.046 87.3756 146.892 86.8459 143.228 85.7633L144.299 83.9339C144.299 83.9339 148.678 83.7414 151.887 83.2711C152.686 83.1538 153.412 83.0207 153.98 82.8687C154.677 82.682 151.215 73.907 149.468 68.746C149.051 67.5143 148.732 66.4896 148.591 65.8354C148.591 65.8354 148.897 65.8847 149.376 65.9787C150.735 66.2465 153.499 66.8775 154.676 67.7676C156.266 68.9703 160.238 82.5358 157.802 87.778Z" fill="#D9935C"/>
<path d="M144.339 83.9324C144.339 83.9324 142.856 82.543 142.281 82.543C141.707 82.543 140.055 83.145 139.886 83.6082C139.718 84.0713 139.65 84.905 140.122 85.0902C140.594 85.2755 142.55 85.7386 143.056 85.7849C143.562 85.8312 144.81 85.5533 144.338 83.9324H144.339Z" fill="#D9935C"/>
<path d="M157.802 87.778C157.802 87.778 155.835 87.9705 152.472 87.6246C152.657 86.7114 152.829 84.9268 151.887 83.2711C152.686 83.1539 153.413 83.0207 153.98 82.8688C154.677 82.6821 151.215 73.9071 149.469 68.746C149.328 67.0773 149.256 65.9614 149.256 65.9614L149.376 65.9802C150.735 66.248 153.499 66.879 154.676 67.7691C156.267 68.9718 160.238 82.5373 157.802 87.7795V87.778Z" fill="#739AF0"/>
<path d="M143.884 72.9085C143.884 72.9085 148.563 70.8476 148.631 70.6855C148.7 70.5234 148.399 69.2729 148.075 68.9024C148.075 68.9024 150.321 69.1108 150.46 68.8329C150.599 68.555 150.646 66.2394 150.646 66.2394C150.646 66.2394 149.766 65.3131 148.608 65.2205C148.608 65.2205 147.593 67.7344 147.218 68.4856C146.223 70.4771 143.884 72.91 143.884 72.91V72.9085Z" fill="#4A75CB"/>
<path d="M142.771 68.8329C142.771 68.8329 143.072 71.2412 143.883 72.9085C143.883 72.9085 141.439 71.2065 141.231 70.6507C141.023 70.0949 141.822 69.0181 141.822 69.0181C141.822 69.0181 140.363 68.9834 140.328 68.4971C140.293 68.0108 140.78 66.1004 140.78 66.1004C140.78 66.1004 142.034 65.1842 142.382 65.219L142.771 68.8329Z" fill="#4A75CB"/>
<path d="M141.754 58.3762C141.754 58.3762 141.879 56.2024 143.23 56.1763C144.579 56.1503 146.926 56.0186 147.902 55.101C148.877 54.1848 142.105 54.6031 142.105 54.6031C142.105 54.6031 141.286 57.2227 141.754 58.3762Z" fill="#233862"/>
<path d="M147.172 55.4252C147.172 55.4252 148.93 56.1416 149.178 57.2589C149.178 57.2589 149.757 53.1356 147.172 55.4252Z" fill="#233862"/>
<path d="M95.8203 134.749L97.2777 140.887L99.4603 140.875L99.5399 134.749H95.8203Z" fill="#FFB27D"/>
<path d="M114.182 135.01L118.328 140.887L119.945 138.811L117.45 134.203L114.182 135.01Z" fill="#FFB27D"/>
<path d="M99.2764 58.1082C98.4529 57.8376 97.5585 57.9693 96.9463 58.1314C97.0722 57.9345 97.3747 57.8115 97.3747 57.8115C96.9795 57.8318 96.1994 58.3861 96.1994 58.3861C90.4435 57.4048 91.1889 65.4388 91.6694 67.2436C92.1485 69.0484 90.3625 70.0296 87.8746 72.0283C83.126 75.8434 83.4024 79.6165 83.4024 79.6165C83.4487 79.6325 83.4979 79.6513 83.55 79.6744C83.7237 79.1751 84.0957 78.23 84.527 78.0115C84.5183 78.0549 84.2201 79.2721 84.1536 79.9494C85.9584 80.8236 89.4159 82.8701 91.8315 84.3289C91.749 83.9657 91.6593 83.4432 91.7374 83.1436L92.2946 84.6097C93.5885 85.3927 94.4829 85.947 94.4829 85.947C94.0502 84.4983 99.2923 75.3325 102.377 72.2831C102.984 70.8343 102.838 68.523 102.827 68.3406C103.036 70.1555 102.934 71.2179 102.775 71.8359C105.226 68.4593 101.462 58.829 99.2793 58.1111L99.2764 58.1082Z" fill="#163560"/>
<path d="M101.555 72.8895C101.574 72.8982 99.8035 73.8158 98.4734 73.4525C97.2215 73.111 96.4038 71.4885 96.4212 71.4857C96.9509 71.38 97.1043 70.652 97.0927 67.5229L97.333 67.5707L101.362 68.3682C101.362 68.3682 101.271 69.636 101.268 70.83C101.265 71.833 101.326 72.7839 101.556 72.891L101.555 72.8895Z" fill="#FFB27D"/>
<path d="M95.0908 60.2921C95.0908 60.2921 96.6206 57.8259 99.4631 59.3007C99.4631 59.3007 97.9898 59.3412 95.0908 60.2921Z" fill="#5FABB7"/>
<path d="M101.361 68.3653C101.361 68.3653 101.27 69.6331 101.267 70.8272C99.0119 70.7635 97.8207 68.7069 97.333 67.5664L101.362 68.3639L101.361 68.3653Z" fill="#EF9E67"/>
<path d="M96.503 67.7097C96.503 67.7097 94.9761 66.1133 94.3827 64.6053C93.9586 63.5285 93.6938 59.272 97.9749 59.0303C97.9749 59.0303 99.208 58.9058 100.498 59.4442C101.524 59.8726 103.093 60.9262 102.363 64.8339L102.23 66.1307L96.5015 67.7097H96.503Z" fill="#163560"/>
<path d="M119.558 137.47C119.558 137.47 118.487 137.655 117.608 137.721C117.413 137.736 117.228 137.745 117.066 137.745C116.643 137.745 115.88 137.585 115.368 137.465L115.329 137.457C115.105 137.403 114.932 137.36 114.869 137.344L114.841 137.336C114.841 137.336 109.501 131.392 106.506 121.863C106.437 121.64 106.363 121.418 106.285 121.19C104.645 116.41 101.247 110.412 99.4564 104.982C99.1712 104.118 98.9151 103.303 98.6864 102.533C98.6126 102.287 98.5417 102.044 98.4736 101.805C97.1537 97.2202 96.7716 94.2098 96.4199 90.9924L107.186 93.7322C107.186 93.7322 111.706 113.327 119.558 137.47Z" fill="#A53D38"/>
<path d="M102.065 69.0021C102.065 69.0021 96.8534 70.1426 96.1934 66.8862C95.5335 63.6297 94.4162 61.5847 97.716 60.7178C101.016 59.8523 101.916 60.9638 102.401 61.9972C102.886 63.0306 103.404 68.6215 102.065 69.0021Z" fill="#FFB27D"/>
<path d="M100.081 60.159C100.081 60.159 99.4194 64.2693 97.3368 65.2766C95.2541 66.2839 94.1816 65.8874 94.1816 65.8874C94.1816 65.8874 95.5971 64.2085 95.4755 61.8017C95.4755 61.8017 98.635 58.5583 100.081 60.159Z" fill="#163560"/>
<path d="M99.7886 60.5411C99.7886 60.5411 101.03 61.1779 101.457 61.9551C101.886 62.7323 102.346 64.4155 102.832 64.2578C102.832 64.2578 103.387 61.4428 101.878 60.2184C100.279 58.9201 99.7871 60.5411 99.7871 60.5411H99.7886Z" fill="#163560"/>
<path d="M97.2035 140.543C97.2035 140.543 97.3786 141.759 96.9256 143.06C96.9256 143.06 96.5681 144.689 98.1717 144.719C99.7753 144.749 100.169 144.597 99.9866 143.6C99.8057 142.602 99.4598 140.875 99.4598 140.875L97.2035 140.543Z" fill="#FFB27D"/>
<path d="M96.9262 143.06C96.9262 143.06 96.6295 144.597 96.8104 145.415C96.8104 145.415 97.2938 145.778 98.4589 145.778C99.5632 145.778 100.138 145.415 100.138 145.415C100.138 145.415 100.172 143.73 99.8772 143.02C99.8772 143.02 98.7411 144.725 96.9262 143.062V143.06Z" fill="#C45446"/>
<path d="M123.81 143.762C123.81 143.762 120.854 140.481 119.946 138.811L117.747 139.937L122.661 144.551L123.81 144.401V143.762Z" fill="#FFB27D"/>
<path d="M125.687 145.686C125.687 145.686 122.51 145.686 121.966 145.625C121.422 145.566 120.983 144.778 120.393 143.599C120.151 143.115 119.61 142.85 119.054 142.704V145.437H118.215L117.42 142.532C116.896 141.57 117.378 140.698 117.747 139.938C118.176 139.938 119.328 140.231 121.512 142.691C122.229 143.499 123.023 143.788 123.808 143.764C123.82 143.771 123.83 143.777 123.842 143.781C125.657 144.597 125.687 145.687 125.687 145.687V145.686Z" fill="#C45446"/>
<path d="M117.606 137.721C117.411 137.736 117.226 137.745 117.064 137.745C116.641 137.745 115.878 137.585 115.366 137.465L115.327 137.457L114.867 137.344L114.839 137.336C114.839 137.336 109.499 131.392 106.504 121.863C106.435 121.64 106.361 121.418 106.283 121.19C104.643 116.41 101.245 110.412 99.4544 104.982C99.1693 104.118 98.9131 103.303 98.6844 102.533C98.6106 102.287 98.5397 102.044 98.4717 101.805L100.375 100.359C100.375 100.359 106.092 109.616 107.862 118.328C109.329 125.548 115.645 134.911 117.605 137.72L117.606 137.721Z" fill="#912F2F"/>
<path d="M100.576 119.141C100.608 123.377 100.393 133.116 99.842 137.15C99.842 137.15 99.3195 137.613 98.0213 137.618C96.6927 137.624 96.0979 137.134 96.0979 137.134C94.7128 130.123 93.7286 124.322 93.0122 119.323C92.4246 115.221 91.9007 111.705 91.4998 108.677C91.1437 105.993 90.8818 103.695 90.7559 101.712C90.7399 101.443 90.724 101.18 90.7125 100.924C90.6965 100.583 90.685 100.254 90.6792 99.9336C90.6734 99.6109 90.6719 99.2983 90.6734 98.9944L90.7197 98.99L93.3943 98.7295L101.845 97.9045C101.705 105.328 100.557 116.68 100.574 119.142L100.576 119.141Z" fill="#A53D38"/>
<path d="M98.0213 137.617C96.8909 137.682 96.0978 137.132 96.0978 137.132C94.7127 130.121 93.7286 124.321 93.0122 119.322C92.4246 115.22 91.9006 111.703 91.4997 108.675C91.1437 105.992 90.8817 103.694 90.7558 101.711C90.7413 100.734 90.7298 99.7991 90.7196 98.9872C90.7081 98.1651 90.695 97.469 90.6719 96.9841L93.3943 98.7267L96.2585 100.559C96.2585 100.559 92.1944 104.255 93.1931 111.244C94.1903 118.233 96.6304 136.629 98.0198 137.617H98.0213Z" fill="#912F2F"/>
<path d="M100.236 71.3481C100.236 71.3481 104.58 70.6592 106.037 72.1094C107.823 73.8867 111.178 84.0757 111.045 85.2393C110.994 85.6836 109.231 85.4766 108.626 84.8427C105.614 81.6847 101.296 73.713 100.236 71.3481Z" fill="#BC3F3F"/>
<path d="M108.672 99.7992C105.43 100.642 90.3017 102.304 90.1715 98.5154C90.1396 97.5906 90.1715 96.4747 90.2453 95.2662C90.4711 91.5235 91.0847 86.898 91.38 84.3536C91.5146 83.1871 91.0659 77.9623 91.4104 75.1155C91.461 74.6943 91.529 74.3238 91.6188 74.0271C92.2715 71.8779 95.2081 71.2961 96.7162 71.244L101.264 71.0891C101.264 71.0891 105.96 76.3356 106.614 77.9479C107.268 79.5602 107.481 85.0773 107.989 87.749C108.497 90.4207 110.25 99.3896 108.674 99.7992H108.672Z" fill="#BC3F3F"/>
<path d="M99.738 86.9935C99.738 86.9935 97.2095 94.7597 90.2451 95.2662C90.4709 91.5235 91.0845 86.8979 91.3798 84.3536C91.5144 83.1871 91.0657 77.9623 91.4102 75.1155C91.5014 75.1343 91.5824 75.1849 91.6779 75.2038C99.3472 76.6843 100.436 85.3754 99.7394 86.9949L99.738 86.9935Z" fill="#A53D38"/>
<path d="M110.825 85.4304C110.825 85.4304 106.261 86.9269 100.697 84.5258C100.697 84.5258 99.1818 84.3826 98.4307 84.5736C98.4307 84.5736 98.5928 83.0713 99.328 82.6617C100.063 82.2536 103.226 83.1379 104.171 83.0076C106.237 82.724 109.837 82.5011 110.825 85.4304Z" fill="#EF9E67"/>
<path d="M106.756 81.9337C106.756 81.9337 107.184 78.2243 105.732 75.9867C105.732 75.9867 106.245 75.8131 106.614 76.3934C106.981 76.9738 109.546 82.4851 108.325 82.8918C107.103 83.2971 106.756 81.9337 106.756 81.9337Z" fill="#A53D38"/>
<path d="M100.092 82.5532C100.026 82.5532 97.935 82.8268 97.5645 83.0873C97.194 83.3492 97.5211 84.2639 98.2187 84.3508C98.9163 84.4376 100.092 82.5532 100.092 82.5532Z" fill="#EF9E67"/>
<path d="M94.376 83.9598C94.376 83.9598 100.332 83.7427 105.733 82.6963C105.733 82.6963 106.72 82.705 106.604 83.5676C106.488 84.4302 97.2416 89.2569 95.2082 88.3277L94.376 83.9598Z" fill="#FFB27D"/>
<path d="M105.732 82.6963C105.732 82.6963 106.365 81.9336 106.756 81.9336C107.146 81.9336 108.171 82.4344 108.325 82.8917C108.476 83.3491 107.113 83.022 106.604 83.5676C106.094 84.1118 105.732 82.6963 105.732 82.6963Z" fill="#FFB27D"/>
<path d="M96.7159 71.2439C96.7159 71.2439 91.7111 71.2555 90.9802 73.053C89.6444 76.334 94.0471 87.2221 95.2093 88.3264C95.7086 88.8011 98.0228 88.0528 98.0228 84.9165C98.0228 83.2898 97.9056 73.7882 96.7159 71.2439Z" fill="#BC3F3F"/>
<path d="M94.1799 98.7659C94.1799 98.7659 97.4001 99.8788 96.9471 103.588C96.9471 103.588 96.6504 105.093 95.7227 104.426C94.795 103.759 95.2306 103.882 93.9063 102.969C92.5821 102.056 91.718 100.617 91.8685 99.4736L94.1799 98.7673V98.7659Z" fill="#FFB27D"/>
<path d="M94.3279 99.0046L92.4204 101.319C92.3321 101.427 92.1917 101.477 92.0542 101.451C90.2668 101.122 84.1129 97.1564 82.0968 95.5369C81.8782 95.3617 81.7089 95.2141 81.5989 95.1012C80.8478 94.3356 78.2557 90.5567 76.4161 87.1917C75.3567 85.2538 74.5477 83.4533 74.484 82.4446C74.2553 78.8423 76.1498 73.8042 76.1498 73.8042C81.7552 75.7552 82.3443 80.2302 82.3443 80.2302L85.4516 91.7956L94.2527 98.3736C94.4538 98.5241 94.4871 98.8106 94.3294 99.0031L94.3279 99.0046Z" fill="#739AF0"/>
<path d="M82.0952 95.5371C81.8766 95.3619 81.7073 95.2143 81.5973 95.1014C80.8462 94.3358 78.2541 90.5569 76.4145 87.1919C76.1757 85.1585 76.3393 83.2509 77.1773 81.918C77.1773 81.918 81.9418 90.3022 82.0952 95.5371Z" fill="#4A82D3"/>
<path d="M78.8659 128.858L77.9135 132.831L77.3245 135.29L75.362 143.476C75.362 143.476 73.6816 143.994 71.9348 143.476C71.9348 143.476 71.2878 140.766 71.269 137.387C71.2589 135.62 71.421 133.669 71.9377 131.826C72.1475 131.077 72.4167 130.346 72.7554 129.653C75.5255 123.995 78.8659 128.855 78.8659 128.855V128.858Z" fill="#FFB27D"/>
<path d="M80.4928 145.87H71.2678C71.2678 145.87 71.1216 144.473 71.5283 143.139C71.5876 142.94 71.66 142.744 71.7468 142.552C71.7468 142.552 73.8063 143.02 75.5822 142.552C75.5822 142.552 77.2523 143.975 78.2611 144.411C79.2699 144.848 80.3857 144.611 80.4914 145.871L80.4928 145.87Z" fill="#2B478B"/>
<path d="M77.9135 132.831L77.3245 135.29C76.3215 135.93 74.1578 137.089 71.269 137.389C71.2589 135.621 71.421 133.67 71.9377 131.828C72.7858 131.398 73.6498 131.172 74.385 131.301C76.2159 131.621 77.3042 132.29 77.9135 132.831Z" fill="#E8945B"/>
<path d="M75.7013 145.87H71.2668C71.2668 145.87 71.1206 144.473 71.5273 143.139C72.6403 143.485 74.9053 144.354 75.7013 145.87Z" fill="#1F396D"/>
<path d="M71.5124 128.858L70.56 132.831L69.971 135.29L68.0084 143.476C68.0084 143.476 66.3281 143.994 64.5812 143.476C64.5812 143.476 63.9343 140.766 63.9155 137.387C63.9054 135.62 64.0674 133.669 64.5841 131.826C64.794 131.077 65.0632 130.346 65.4019 129.653C68.172 123.995 71.5124 128.855 71.5124 128.855V128.858Z" fill="#FFB27D"/>
<path d="M64.3928 142.551C64.3928 142.551 66.4523 143.019 68.2281 142.551C68.2281 142.551 69.8983 143.974 70.9071 144.409C71.9158 144.845 73.0317 144.609 73.1374 145.87H63.9123C63.9123 145.87 63.7198 144.029 64.3913 142.551H64.3928Z" fill="#2B478B"/>
<path d="M70.5591 132.831L69.97 135.29C68.967 135.93 66.8033 137.089 63.9145 137.389C63.9044 135.621 64.0665 133.67 64.5832 131.828C65.4313 131.398 66.2953 131.172 67.0305 131.301C68.8614 131.621 69.9497 132.29 70.5591 132.831Z" fill="#E8945B"/>
<path d="M80.7915 132.568C80.57 133.387 79.8261 133.957 78.9766 133.957H64.1837C63.0693 133.957 62.1922 133.009 62.2776 131.9C62.4325 129.886 62.9868 126.595 63.2299 124.373C63.3298 123.45 63.3761 122.712 63.3182 122.325C61.8246 112.446 60.5712 100.808 60.7247 98.5836C60.7464 98.271 60.7608 98.1089 60.7608 98.1089C60.7608 98.1089 61.8376 98.0177 63.4774 97.954C68.2419 97.7659 77.7507 97.7992 79.3311 100.914C80.9405 104.088 81.9131 125.159 81.9131 125.159C82.1476 127.127 81.3168 130.63 80.7929 132.569L80.7915 132.568Z" fill="#C65447"/>
<path d="M63.2299 124.371C63.3298 123.448 63.3761 122.71 63.3182 122.323C61.8246 112.444 60.5712 100.806 60.7247 98.582C60.7464 98.2694 60.7608 98.1073 60.7608 98.1073C60.7608 98.1073 61.8376 98.0161 63.4774 97.9524C65.9422 99.404 67.5458 101.877 67.5458 101.877C67.5458 101.877 67.0494 120.367 63.2299 124.371Z" fill="#B2443B"/>
<path d="M70.5469 59.1432C70.5469 58.0476 71.2329 57.1155 72.4153 57.4108C73.4791 57.6771 74.5183 57.6655 74.5183 58.7611C74.5183 59.8567 73.6296 61.1274 72.5326 61.1274C71.4355 61.1274 70.5469 60.2388 70.5469 59.1417V59.1432Z" fill="#B2443B"/>
<path d="M71.8044 68.7792C71.8044 68.7792 65.6476 63.2346 71.2212 59.3095C71.2212 59.3095 72.8841 58.8666 73.7293 59.0244C73.7293 59.0244 76.7586 58.1386 78.5315 60.1953C80.3044 62.2533 81.0744 63.7411 79.5547 65.5763C78.0351 67.4129 71.8044 68.7777 71.8044 68.7777V68.7792Z" fill="#C65447"/>
<path d="M64.7421 102.264C64.7421 102.264 66.2618 105.314 63.3411 107.644C63.3411 107.644 62.0748 108.511 61.8808 107.385C61.6869 106.259 61.9112 106.651 61.6044 105.072C61.299 103.493 61.6898 101.86 62.5987 101.15L64.7436 102.264H64.7421Z" fill="#FFB27D"/>
<path d="M76.8482 68.7288C76.8482 68.7288 76.773 69.5595 76.6311 70.6812C76.5631 71.2297 76.4792 71.8477 76.3808 72.4729C76.3113 72.9216 76.2331 73.3746 76.1477 73.8073L74.2417 80.2449L69.7666 73.0026C69.7666 73.0026 70.8188 72.1328 72.2444 67.4161C72.2574 67.3654 72.2675 67.3394 72.2675 67.3394L76.8497 68.7317L76.8482 68.7288Z" fill="#FFB27D"/>
<path d="M79.4553 100.485C79.5132 101.209 79.3308 101.341 79.3308 101.341C79.3308 101.341 76.5795 102.338 69.6585 101.993C68.9088 101.956 68.204 101.918 67.5455 101.879C63.0849 101.616 60.6997 101.341 60.6997 101.341C60.6997 101.341 57.0468 92.9086 63.9099 82.5199C64.6856 81.3461 65.596 80.1448 66.6626 78.9306C67.7741 77.6627 68.0187 75.9665 68.4399 74.3542C68.56 73.8925 68.2127 73.7898 68.3863 73.3541C68.3863 73.3541 69.6383 73.001 69.7671 73.001C70.4777 73.6277 71.4155 74.8448 73.7428 75.0851C75.316 75.2486 75.9326 74.3629 76.1555 73.8303C76.7561 74.0474 77.377 74.4208 77.8864 74.6654C82.1039 76.6901 82.4903 80.6167 82.4903 80.6167C82.4903 80.6167 78.6144 93.3601 78.3742 94.9507C78.2671 95.6584 79.1557 96.7584 79.4567 100.484L79.4553 100.485Z" fill="#739AF0"/>
<path d="M76.6318 70.6811C76.5638 71.2297 76.3308 72.7291 76.2324 73.3543C71.4939 71.5061 72.1134 67.9067 72.2436 67.4146C72.2567 67.3639 72.2668 67.3379 72.2668 67.3379C72.2668 67.3379 74.775 69.1181 76.6318 70.6811Z" fill="#E8945B"/>
<path d="M77.6473 71.3179C77.6473 71.3179 72.1736 71.493 72.1171 68.0832C72.0607 64.6733 71.3153 62.3982 74.8077 62.142C78.3 61.8858 79.0005 63.1754 79.2972 64.3101C79.5924 65.4433 79.0699 71.1847 77.6473 71.3179Z" fill="#FFB27D"/>
<path d="M78.1249 61.631C78.1249 61.631 77.7819 67.3247 71.1084 66.7139C71.1084 66.7139 71.2502 58.8291 78.1249 61.631Z" fill="#C65447"/>
<path d="M76.8486 62.197C76.8486 62.197 78.7185 64.5113 79.5667 65.2494C79.5667 65.2494 81.6464 62.265 76.8486 62.197Z" fill="#C65447"/>
<path d="M76.8486 62.197C76.8486 62.197 78.5289 65.0337 79.3771 65.7718C79.3771 65.7718 81.6464 62.265 76.8486 62.197Z" fill="#C65447"/>
<path d="M67.5455 101.878C63.0849 101.614 60.6997 101.339 60.6997 101.339C60.6997 101.339 57.0468 92.9073 63.9099 82.5186C65.2993 85.7576 68.5759 94.4139 67.5455 101.878Z" fill="#4A82D3"/>
<path d="M69.7656 72.9995C69.7656 72.9995 64.47 74.0864 62.1109 76.8175C60.3032 78.9103 58.3262 89.1441 58.3262 90.836C58.3262 92.5279 60.1831 101.044 61.3438 102.691C61.4248 102.805 61.558 102.869 61.6984 102.854L64.6798 102.537C64.9288 102.511 65.1053 102.283 65.0662 102.035L63.3903 91.1747L69.2721 80.744C69.2721 80.744 72.7398 76.6337 69.7656 73.001V72.9995Z" fill="#739AF0"/>
<path d="M92.4826 142.929C92.4826 142.929 92.9313 143.804 93.9256 144.02C94.5523 144.156 95.0878 144.482 95.4206 144.939C95.7029 145.325 95.4293 145.868 94.9517 145.868H89.9064C89.4766 145.868 89.1423 145.498 89.1842 145.071C89.2219 144.697 89.2609 144.262 89.2783 143.927C89.3159 143.199 90.0454 142.612 90.0454 142.612L92.4812 142.927L92.4826 142.929Z" fill="#2C3A64"/>
<path d="M93.6244 130.206C93.8357 134.042 93.3117 142.761 93.3117 142.761C93.3117 142.761 92.96 143.733 90.7384 143.965C89.5488 144.09 88.4778 143.78 88.4778 143.78C88.0291 141.716 87.6152 139.743 87.2331 137.87C84.4905 124.416 83.4209 116.107 83.4209 116.107L94.2452 113.592C94.2452 113.592 93.7705 121.187 93.6316 126.366C93.5882 127.983 93.5766 129.363 93.6229 130.206H93.6244Z" fill="#35488B"/>
<path d="M94.2472 113.592C94.2472 113.592 93.7725 121.187 93.6335 126.366L87.235 137.87C84.4924 124.416 83.4229 116.107 83.4229 116.107L94.2472 113.592Z" fill="#2C3A64"/>
<path d="M83.3649 96.1968C83.3649 96.1968 79.1764 94.2907 76.0068 95.958C72.8372 97.6253 74.7752 111.392 79.3067 112.726C79.3067 112.726 87.7965 115.442 83.3634 96.1968H83.3649Z" fill="#35488B"/>
<path d="M95.4815 116.802C95.4699 116.783 95.4554 116.766 95.4409 116.749C95.2673 116.485 94.891 115.54 94.891 115.54L94.2122 116.43C94.1948 116.45 93.9256 116.239 93.9111 116.262L93.9777 118.565L94.6536 118.406C94.6825 118.398 94.7115 118.388 94.7375 118.375C94.82 118.338 94.8924 118.277 94.9431 118.194L95.4887 117.33C95.5943 117.164 95.5842 116.957 95.4815 116.802Z" fill="#E8945B"/>
<path d="M92.3584 94.0576C92.3584 94.0576 93.6928 94.0605 94.4888 95.9362C96.1402 99.8222 95.4223 108.212 95.3225 109.413C95.3225 109.413 95.8898 111.799 95.0475 115.923L93.949 116.575C93.949 116.575 92.2571 100.277 92.464 98.6658C92.671 97.055 92.3584 94.0591 92.3584 94.0591V94.0576Z" fill="#E8945B"/>
<path d="M83.7004 142.929C83.7004 142.929 84.1491 143.804 85.1434 144.02C85.77 144.156 86.3055 144.482 86.6384 144.939C86.9206 145.325 86.6471 145.868 86.1695 145.868H81.1242C80.6944 145.868 80.36 145.498 80.402 145.071C80.4396 144.697 80.4787 144.262 80.4961 143.927C80.5337 143.199 81.2631 142.612 81.2631 142.612L83.6989 142.927L83.7004 142.929Z" fill="#2C3A64"/>
<path d="M87.2109 78.6816C86.1326 78.6816 84.7765 79.1462 84.05 79.8525C83.2771 80.6036 82.4739 80.6413 81.9022 81.527C81.3059 82.4504 80.9354 83.4114 81.235 84.7111C81.5621 86.1309 81.4955 87.5044 82.3885 88.5464C82.8299 89.0631 83.5492 89.121 84.05 89.5943C84.9705 90.4641 86.0169 90.7405 87.2109 90.7405C89.4614 90.7405 90.8624 89.4076 92.0145 87.7461C92.9378 86.4145 92.754 85.5172 92.9711 84.3782C93.6528 80.7947 90.6627 78.6802 87.2109 78.6802V78.6816Z" fill="#35488B"/>
<path d="M90.3803 93.13L86.0774 95.3285L85.2148 92.3427C85.2148 92.3427 85.7634 91.3093 86.0109 89.6174C86.1151 88.9054 86.1657 88.0775 86.1006 87.1599L89.6059 88.9546C89.6059 88.9546 89.522 89.2788 89.467 89.7578C89.4077 90.2745 89.3802 90.9721 89.5278 91.6335C89.6552 92.2023 89.9084 92.745 90.3803 93.1286V93.13Z" fill="#FFB27D"/>
<path d="M80.4109 114.76C80.4109 114.76 79.5932 125.603 79.7755 142.884C79.7755 142.884 80.7626 143.403 81.9523 143.521C84.1753 143.742 84.7166 142.861 84.7166 142.861C84.7166 142.861 86.9889 134.427 87.5577 130.627C88.0816 127.123 91.5204 114.48 91.5204 114.48L80.4109 114.76Z" fill="#35488B"/>
<path d="M93.224 93.4312C92.8419 93.2517 91.6421 92.7712 89.8358 92.4745C89.8546 93.0925 89.6897 93.67 88.6042 93.8118C87.1598 94 85.8688 93.0143 85.2146 92.3442C85.2146 92.3442 84.1957 92.4528 83.0089 92.7133C82.4155 92.8436 81.7787 93.0114 81.207 93.2242C80.5138 93.4789 79.9146 93.7973 79.5947 94.1895C78.4832 95.5543 76.6553 99.6603 76.6553 99.6603C76.6553 99.6603 79.6989 100.789 80.466 101.446L80.4834 101.592L80.9595 105.548L79.5412 113.426C79.5296 113.495 79.5224 113.563 79.5224 113.631C79.5224 114.158 79.8828 114.631 80.411 114.759C80.411 114.759 80.5326 114.779 80.7569 114.811C82.2607 115.022 88.3654 115.75 93.1516 114.45C94.2284 114.158 94.9376 113.13 94.8478 112.017L94.0677 102.226C94.4846 102.155 94.9651 102.079 95.3558 102.035C95.68 102.001 95.942 101.988 96.0505 102.021C96.0505 102.021 95.5092 94.3748 93.224 93.4312Z" fill="#F99746"/>
<path d="M84.1915 107.962C84.1307 110.71 82.3302 113.941 80.757 114.81C80.5327 114.78 80.4111 114.758 80.4111 114.758C79.8814 114.631 79.5225 114.158 79.5225 113.631C79.5225 113.563 79.5297 113.495 79.5413 113.425L80.9596 105.548L80.4835 101.592C80.5066 101.523 80.5182 101.487 80.5182 101.487C80.5182 101.487 84.3 103.105 84.1929 107.962H84.1915Z" fill="#ED7D2B"/>
<path d="M95.3559 102.037C94.955 102.081 94.0663 102.228 94.0663 102.228L93.6162 98.126C93.6162 98.126 95.1214 101.018 95.3573 102.037H95.3559Z" fill="#ED7D2B"/>
<path d="M79.793 112.02L80.162 109.974C86.4013 100.947 86.8732 99.3273 84.0683 95.2748C83.265 94.1141 81.8033 93.389 81.207 93.224C81.7787 93.0113 82.4155 92.8434 83.0089 92.7131C83.6008 92.991 84.145 93.2646 84.5676 93.6307C93.1313 101.044 79.793 112.02 79.793 112.02Z" fill="#35488B"/>
<path d="M83.4711 103.455C83.6259 103.444 84.2989 103.106 84.2989 103.106C84.2989 103.106 84.6376 100.604 87.0792 100.435C87.0792 100.435 88.0966 100.44 87.8882 101.135C87.6798 101.83 87.6581 101.529 87.386 102.514C87.1139 103.5 86.4033 104.251 85.6478 104.296L84.8735 104.506C84.8735 104.506 83.0629 103.484 83.4711 103.454V103.455Z" fill="#FFB27D"/>
<path d="M84.2983 103.106C84.2983 103.106 80.1981 103.478 79.5931 103.747C79.5931 103.747 79.926 102.847 80.5179 101.488C79.9839 100.963 78.2268 100.181 77.0632 99.8208C76.176 102.084 75.8345 104.325 76.3323 106.484C76.3844 106.713 76.5856 106.875 76.8186 106.887C78.1299 106.947 82.4834 106.926 85.6443 104.268L84.2983 103.106Z" fill="#FFB27D"/>
<path d="M89.5262 91.635C87.5333 91.5814 86.0107 89.6189 86.0107 89.6189L89.4654 89.7593C89.4061 90.276 89.3786 90.9736 89.5262 91.635Z" fill="#E8945B"/>
<path d="M89.7155 90.4308C89.7155 90.4308 85.3114 90.9678 85.2173 87.8648C85.1233 84.7618 86.9599 82.7515 88.1843 82.7746C90.6273 82.8209 91.0311 83.808 91.3148 84.8356C91.5985 85.8632 91.7432 90.2123 89.7155 90.4308Z" fill="#FFB27D"/>
<path d="M88.5381 88.6433C88.5381 88.6433 88.6336 89.0297 89.599 88.9588C89.599 88.9588 90.4094 88.8994 90.3791 88.4725C90.3791 88.4725 89.5903 88.1787 88.5381 88.6433Z" fill="white"/>
<path d="M89.2758 82.8035C89.2758 82.8035 85.5114 82.8006 86.3769 85.3855C86.9225 87.0137 85.1091 87.2669 85.1091 87.2669L84.2363 84.656L84.7834 82.6226L89.2758 82.8035Z" fill="#35488B"/>
<path d="M198.488 123.243C197.844 124.89 194.543 128.284 191.14 131.488C187.078 135.316 182.87 138.875 182.87 138.875C182.87 138.875 180.947 139.462 181.786 136.632C181.786 136.632 186.425 128.11 188.416 125.594C188.985 124.877 189.574 124.221 190.126 123.649C191.502 122.221 192.642 121.326 192.642 121.326C192.642 121.326 192.382 120.907 191.958 120.182C189.888 116.637 183.946 105.782 185.781 100.963C187.991 95.1577 193.482 92.5425 193.482 92.5425C193.482 92.5425 195.224 99.889 196.693 107.441C198.045 114.389 199.167 121.512 198.49 123.244L198.488 123.243Z" fill="#F99746"/>
<path d="M196.692 107.44C195.681 112.09 193.929 118.669 191.957 120.18C189.887 116.636 183.944 105.781 185.78 100.961C187.99 95.1563 193.481 92.541 193.481 92.541C193.481 92.541 195.223 99.8875 196.692 107.44Z" fill="#ED7D2B"/>
<path d="M191.14 131.487C187.078 135.315 182.87 138.874 182.87 138.874C182.87 138.874 180.947 139.461 181.786 136.63C181.786 136.63 186.425 128.109 188.416 125.593C188.985 124.875 189.574 124.22 190.126 123.648C190.061 125.823 190.123 129.514 191.142 131.487H191.14Z" fill="#ED7D2B"/>
<path d="M195.902 103.503C195.902 103.503 191.088 91.4223 191.343 91.0735C191.501 90.8549 191.806 84.2654 192.014 79.3127C192.142 76.3009 192.233 73.8926 192.233 73.8926C192.233 73.8926 194.366 74.6524 194.876 79.841C194.974 80.8425 195.032 81.7847 195.067 82.6632C195.21 86.3451 194.941 88.9387 195.491 90.1646C196.172 91.6842 195.928 98.6197 196.138 99.3187C196.348 100.018 197.432 101.765 195.902 103.503Z" fill="#FFB27D"/>
<path d="M192.096 95.4531L191.712 94.0376C189.01 95.2071 181.066 93.4978 181.066 93.4978C181.066 93.4978 178.698 96.3027 179.917 101.993C180.512 104.771 182.616 116.639 183.477 120.114C183.788 121.373 184.032 122.267 184.129 122.623C184.129 122.625 184.129 122.626 184.13 122.626C184.16 122.735 184.137 122.845 184.095 122.95C183.729 123.856 183.453 124.784 183.253 125.722C181.288 134.93 186.672 145.101 186.672 145.101L187.592 144.56C187.592 144.56 187.951 132.29 188.905 126.75C189.067 125.81 189.246 125.063 189.443 124.605C190.019 123.266 190.423 121.159 190.705 118.682C191.239 114 191.335 108 191.304 103.383C191.394 103.374 192.095 95.4531 192.095 95.4531H192.096Z" fill="#F99746"/>
<path d="M179.904 96.954C178.806 95.2911 182.575 88.5003 182.442 87.8592C182.177 86.5971 181.557 85.1991 180.949 83.9428C180.34 82.6865 179.745 81.5692 179.533 80.8702C179.729 80.5981 179.92 80.3419 180.097 80.1002C180.368 79.7297 180.602 79.3881 180.753 79.0697C180.92 78.7224 180.991 78.3982 180.91 78.087C180.848 77.8497 180.764 77.6138 180.664 77.3836C180.617 77.2751 180.567 77.1665 180.514 77.0594C179.954 75.9363 179.114 75.0217 179.114 75.0217C180.441 74.1706 182.533 73.7379 182.552 73.8001C182.706 73.7495 182.844 73.7118 182.955 73.6843C183.032 73.6641 183.11 73.6453 183.188 73.6279C183.452 73.5642 183.717 73.5107 183.945 73.4687C184.423 72.9911 184.992 71.2196 184.821 68.6101L185.051 68.6405L188.917 69.163C188.917 69.163 188.904 70.3715 188.97 71.5033C189.022 72.389 189.125 73.227 189.319 73.4108C189.619 73.4354 189.8 73.4528 189.8 73.4528C189.8 73.4528 189.8 73.4528 189.801 73.4557C189.801 73.4586 189.804 73.4615 189.807 73.4644C190.025 73.4817 190.225 73.5005 190.409 73.5222C190.409 73.5222 190.425 73.5222 190.452 73.5266C190.793 73.5657 191.073 73.6076 191.302 73.6482C191.319 73.6525 191.334 73.6554 191.35 73.6583C192.01 73.7799 192.234 73.8942 192.234 73.8942V73.9058C192.202 75.1244 194.168 77.2534 194.03 80.009C194.024 80.1132 193.024 87.3338 193.029 87.4409C193.11 89.4975 194.117 95.2882 194.117 95.2882C195.036 97.0799 180.498 98.6647 179.906 96.954H179.904Z" fill="#FFB27D"/>
<path d="M183.481 59.327C183.41 59.1273 182.567 56.9969 179.21 57.9275C179.21 57.9275 180.905 57.6076 181.413 58.2372C181.413 58.2372 180.022 57.7003 179.206 58.2705C178.391 58.8407 178.358 60.5949 178.517 61.1188C178.676 61.6427 179.708 63.1653 180.329 63.1276C180.563 63.1132 180.81 63.0191 181.025 62.9091C180.947 63.1957 180.88 63.5068 180.83 63.8455C180.361 66.9833 182.565 69.2106 183.594 68.5637C184.254 68.1483 184.845 69.312 184.845 69.312L190.052 61.4517C190.052 61.4517 185.811 56.9477 183.481 59.3256V59.327Z" fill="#2C3A64"/>
<path d="M188.916 69.1643C188.916 69.1643 188.903 70.3714 188.969 71.5046C186.829 71.5755 185.578 69.694 185.05 68.6418L188.916 69.1643Z" fill="#ED985F"/>
<path d="M189.696 70.1918C189.696 70.1918 184.643 70.5855 184.448 67.4347C184.251 64.2854 183.467 62.2143 186.684 61.8293C189.901 61.4458 190.603 62.608 190.925 63.6428C191.246 64.6776 191.006 70.0066 189.696 70.1904V70.1918Z" fill="#FFB27D"/>
<path d="M190.665 61.9031C189.826 61.0029 189.247 61.2475 188.934 61.5529C186.078 60.2026 184.433 62.5588 184.433 62.5588C184.234 64.8397 182.684 66.2349 182.684 66.2349C182.684 66.2349 183.64 66.7472 185.732 66.0714C186.37 65.8644 186.921 65.368 187.38 64.7775C186.609 66.2711 185.501 67.3826 185.501 67.3826C187.968 66.054 188.771 62.4603 188.849 62.0812C189.175 62.3402 189.82 62.9047 190.042 63.4836C190.343 64.2709 190.557 65.9151 191.036 65.8297C191.036 65.8297 191.925 63.2535 190.665 61.9046V61.9031Z" fill="#2C3A64"/>
<path d="M192.708 145.394H184.868C184.868 145.394 184.574 144.143 185.089 143.292C185.545 142.54 185.264 142.029 185.067 141.389C185.422 141.534 185.847 141.765 186.353 141.736C186.743 141.713 187.355 141.427 187.717 141.217C188.055 141.602 189.301 143.349 189.752 143.673C190.265 144.04 192.548 143.91 192.706 145.394H192.708Z" fill="#233862"/>
<path d="M181.056 145.21L178.104 137.947C178.104 137.947 179.152 137.205 180.135 137.362C181.003 137.501 181.336 137.179 181.786 136.632C181.786 137.015 181.836 137.491 182.053 137.949C182.221 138.302 182.54 138.619 182.872 138.875C182.643 139.332 181.669 141.288 181.539 141.827C181.391 142.441 182.373 144.508 181.057 145.213L181.056 145.21Z" fill="#233862"/>
<path d="M193.027 87.4409C193.024 87.3816 193.334 85.1122 193.61 83.0961C194.217 83.0295 194.951 82.8877 195.587 82.5896C195.553 81.7096 194.968 74.1865 191.804 73.7639C191.654 73.7234 191.497 73.6887 191.348 73.6583C191.334 73.6568 191.318 73.6525 191.301 73.6481C190.913 73.5758 190.57 73.5381 190.451 73.5266C190.422 73.5237 190.408 73.5222 190.408 73.5222C190.408 73.5222 191.351 76.1997 191.332 76.5138C191.315 76.8279 188.286 76.9335 186.294 76.9596C184.319 76.9856 183.207 73.6814 183.188 73.6293C183.11 73.6467 183.032 73.6655 182.955 73.6858C182.844 73.7147 180.203 74.1171 179.114 75.0231C179.114 75.0231 179.952 75.9363 180.514 77.0609C180.567 77.168 180.618 77.2751 180.664 77.3851C180.766 77.6152 180.85 77.8511 180.91 78.0884C180.991 78.4011 180.919 78.7253 180.753 79.0712C180.602 79.3896 180.366 79.7297 180.097 80.1016C179.92 80.3433 179.728 80.5981 179.533 80.8716C179.605 81.1119 179.724 81.4028 179.873 81.7284C180.156 82.3551 180.551 83.1193 180.949 83.9428C181.557 85.199 182.178 86.5971 182.442 87.8592C182.576 88.5003 178.806 95.2911 179.904 96.954C180.08 97.4591 181.472 97.6776 183.324 97.6863C187.739 97.7095 194.762 96.5502 194.116 95.2867C194.116 95.2867 193.108 89.4961 193.027 87.4395V87.4409Z" fill="#2B478B"/>
<path d="M183.325 97.6878C181.473 97.6791 180.08 97.4606 179.905 96.9555C178.807 95.2925 182.575 88.5018 182.442 87.8606C182.179 86.5986 181.558 85.2005 180.95 83.9443C180.551 83.1207 180.157 82.3566 179.873 81.7299C180.03 81.1133 180.121 80.7559 180.121 80.7559C180.121 80.7559 184.133 85.4205 185.052 87.6204C185.772 89.347 184.088 95.2274 183.327 97.6878H183.325Z" fill="#233862"/>
<path d="M181.417 94.5253L180.624 95.9002C175.522 93.8798 172.273 89.328 172.273 89.328C172.095 86.7431 173.305 83.7718 174.754 81.2087C174.994 80.7846 175.24 80.3707 175.489 79.9727C176.514 80.8483 177.945 81.9931 179.307 82.8267C179.096 83.1784 178.841 83.5981 178.568 84.0483C177.437 85.9124 175.974 88.3004 175.784 88.49C175.47 88.8041 181.417 94.5267 181.417 94.5267V94.5253Z" fill="#FFB27D"/>
<path d="M178.777 84.607C176.266 84.442 174.415 81.174 174.415 81.174C176.376 77.7077 179.114 75.0229 179.114 75.0229C186.074 77.6802 179.913 83.8573 178.777 84.607Z" fill="#2B478B"/>
<path d="M181.417 94.5238C181.417 94.5238 181.847 94.463 182.126 94.2184C182.406 93.9738 183.297 93.2835 183.349 93.4977C183.401 93.7119 182.702 94.0433 183.07 94.0969C183.436 94.149 184.014 93.9029 184.59 93.9912C185.166 94.0795 186.053 95.4067 185.779 95.5644C185.506 95.7222 184.51 95.1983 184.248 95.3806C183.986 95.5644 182.116 96.5862 180.623 95.9002C179.129 95.2142 181.416 94.5238 181.416 94.5238H181.417Z" fill="#FFB27D"/>
<path d="M194.34 145.271L194.187 100.203C194.187 100.203 193.842 96.9554 191.011 96.9381C187.991 96.9207 187.797 100.164 187.797 100.164C187.797 100.164 187.839 100.445 188.149 100.446C188.473 100.448 188.529 100.168 188.529 100.168C188.529 100.168 188.678 97.6675 191.007 97.6805C193.19 97.6935 193.456 100.197 193.456 100.197L193.188 145.262L194.34 145.269V145.271Z" fill="#233862"/>
<path d="M192.799 145.261L194.677 145.272L194.521 143.307C194.521 143.307 194.538 143.033 194.159 143.016C193.806 143 193.11 142.945 193.043 143.158C192.984 143.344 192.799 145.261 192.799 145.261Z" fill="#233862"/>
<path d="M191.003 94.55L190.871 95.1941C190.871 95.1941 187.684 95.1637 186.92 98.5735C186.92 98.5735 186.71 99.9933 187.736 99.6952C188.762 99.3985 188.608 98.672 190.061 98.2841C191.514 97.8948 192.46 97.5966 192.686 96.543L192.931 95.3692L191.004 94.5515L191.003 94.55Z" fill="#FFB27D"/>
<path d="M202.435 66.675C202.435 66.675 201.572 69.9865 200.827 73.0128C200.527 74.2328 200.246 75.4051 200.048 76.2981C199.846 77.2143 199.73 77.8352 199.773 77.9046C200.398 78.9337 199.207 85.1831 198.281 87.4496C198.2 87.6507 198.087 87.8852 197.952 88.1472C196.66 90.6437 193.231 95.5371 193.231 95.5371C193.231 95.5371 192.272 95.6311 191.645 95.3909C191.123 95.1897 190.77 94.5471 190.77 94.5471C191.076 94.0594 192.341 88.2847 193.943 85.0528C194.629 83.6707 195.703 70.81 197.025 69.0848C198.128 67.6462 202.436 66.6736 202.436 66.6736L202.435 66.675Z" fill="#F99746"/>
<path d="M199.774 77.9045C200.399 78.9336 199.208 85.183 198.282 87.4495C198.201 87.6507 198.088 87.8851 197.953 88.1471C196.765 82.74 198.833 75.104 198.833 75.104C199.337 75.3066 199.738 75.7249 200.05 76.298C199.848 77.2142 199.732 77.8351 199.775 77.9045H199.774Z" fill="#ED7D2B"/>
<path d="M208.246 140.389C208.246 140.389 208.541 145.278 207.618 145.34C207.495 145.349 202.938 145.321 202.938 145.321L197.059 145.286C197.059 145.286 197.166 143.852 198.868 143.566C200.57 143.279 203.424 142.101 204.467 139.859C205.566 137.501 208.245 140.389 208.245 140.389H208.246Z" fill="#0F2949"/>
<path d="M217.088 140.441C217.088 140.441 217.383 145.33 216.46 145.392C216.337 145.401 211.779 145.373 211.779 145.373L205.9 145.339C205.9 145.339 206.007 143.904 207.711 143.618C209.413 143.331 212.267 142.153 213.311 139.911C214.409 137.554 217.088 140.441 217.088 140.441Z" fill="#163560"/>
<path d="M208.594 128.612C208.727 130.679 209.005 133.338 208.886 135.733C208.719 139.08 208.596 141.904 208.596 141.904C206.383 142.642 202.338 141.707 202.338 141.707C202.338 141.707 200.952 133.236 199.808 126.473C199.296 123.442 198.871 120.821 198.713 119.584C198.203 115.584 199.429 94.3387 199.429 94.3387C199.429 94.3387 205.427 90.5453 207.883 92.5339C210.339 94.5225 211.847 96.4604 207.741 118.061C207.43 119.7 208.297 123.982 208.594 128.614V128.612Z" fill="#2B478B"/>
<path d="M208.594 128.612C208.727 130.679 208.973 133.987 208.854 136.383C206.79 134.173 202.725 129.509 199.808 126.473C199.296 123.442 198.871 120.821 198.713 119.584C198.203 115.584 199.429 94.3387 199.429 94.3387C199.429 94.3387 205.427 90.5453 207.883 92.5339C210.339 94.5225 211.847 96.4604 207.741 118.061C207.43 119.7 208.297 123.982 208.594 128.614V128.612Z" fill="#233862"/>
<path d="M204.826 94.8018C204.826 94.8018 205.235 116.079 206.05 120.028C206.865 123.978 211.133 142.06 211.133 142.06C211.133 142.06 215.232 142.458 217.381 141.552C217.381 141.552 217.294 133.19 216.597 128.272C215.944 123.678 214.751 119.474 214.935 117.817C217.369 95.9639 215.717 94.1476 213.114 92.3529C210.512 90.5583 204.824 94.8018 204.824 94.8018H204.826Z" fill="#2B478B"/>
<path d="M212.924 96.7121C212.924 96.7121 211.486 99.5561 214.205 101.75C214.205 101.75 215.385 102.568 215.573 101.516C215.761 100.464 215.55 100.83 215.843 99.3549C216.139 97.8801 215.781 96.3517 214.936 95.6816L212.924 96.7121Z" fill="#FFB27D"/>
<path d="M201.151 61.8467C201.151 61.8467 202.777 64.3491 202.437 66.6749L204.829 72.5379L209.248 65.8688C209.248 65.8688 206.949 63.3375 206.105 59.8987L201.151 61.8467Z" fill="#FFB27D"/>
<path d="M200.419 63.97C200.419 63.97 206.39 64.2638 206.521 60.6789C206.651 57.0939 208.279 54.7174 203.813 54.3759C200.14 54.0951 198.909 55.6191 198.575 56.8059C198.241 57.9927 198.206 63.7645 200.419 63.97Z" fill="#FFB27D"/>
<path d="M214.853 95.8859C213.569 95.9973 211.801 96.1348 209.657 96.2578C209.229 96.2824 208.786 96.3056 208.329 96.3287C201.853 96.6529 199.287 95.5892 199.287 95.5892C199.287 95.5892 199.116 95.4488 199.176 94.6904C199.48 90.7783 200.319 89.6263 200.222 88.8824C200.007 87.2093 196.032 73.5424 196.032 73.5424C196.032 73.5424 195.98 69.2324 200.785 67.238C201.28 67.031 201.826 66.8516 202.429 66.7025C202.636 67.2612 203.205 68.1961 204.678 68.034C206.855 67.7938 208.412 66.5201 209.081 65.866C209.201 65.866 209.249 65.8703 209.249 65.8703C209.408 66.3291 209.533 66.8082 209.643 67.2945C210.026 68.9907 210.245 70.7738 211.277 72.1125C212.294 73.4339 213.165 74.7365 213.906 76.0101C214.524 77.0695 215.053 78.1101 215.504 79.1218C219.691 88.5249 216.367 95.7556 214.856 95.8873L214.853 95.8859Z" fill="#F99746"/>
<path d="M214.853 95.8857C213.569 95.9972 211.8 96.1347 209.657 96.2577C209.094 85.7185 213.447 75.625 213.447 75.625C213.608 75.7393 213.761 75.8667 213.905 76.0085C214.648 76.7394 215.162 77.8205 215.502 79.1202C216.753 83.905 215.637 91.6596 214.854 95.8857H214.853Z" fill="#ED7D2B"/>
<path d="M198.513 60.5384C198.513 60.5384 197.323 65.1452 199.291 65.8066C201.261 66.468 206.503 65.9788 206.534 60.3228C206.534 60.3228 203.775 61.9466 202.462 61.8974C201.15 61.8482 200.306 61.0855 199.089 61.6702C199.089 61.6702 198.644 61.6383 198.511 60.5398L198.513 60.5384Z" fill="#C8D9E8"/>
<path d="M209.248 65.8674C209.248 65.8674 213.423 65.9861 215.611 68.8691C217.289 71.0791 219.005 82.8906 218.995 84.6678C218.985 86.4451 217.022 96.2404 215.951 97.2999C215.951 97.2999 215.261 97.4735 214.342 97.2897C213.367 97.0958 212.795 96.527 212.795 96.527C212.795 96.527 213.39 85.6115 213.396 84.5882C213.404 83.1048 208.822 74.0012 208.822 74.0012C208.822 74.0012 206.444 69.668 209.248 65.866V65.8674Z" fill="#F99746"/>
<path d="M206.27 55.5047C206.172 55.1386 205.722 54.9432 205.722 54.9432C202.367 53.4582 199.899 55.0459 199.899 55.0459C201.978 52.2903 206.951 52.901 207.984 55.4034C209.672 59.4906 206.535 60.3199 206.535 60.3199C206.535 60.3199 203.418 58.9884 205.237 57.3515C205.841 56.8087 206.133 56.3253 206.231 55.9042C206.265 55.7638 206.276 55.6306 206.269 55.5033L206.27 55.5047Z" fill="#C8D9E8"/>
<path d="M36.5289 145.383H278.672C278.911 145.383 279.106 145.577 279.106 145.817C279.106 146.056 278.912 146.252 278.672 146.252H36.5289C36.2901 146.252 36.0947 146.058 36.0947 145.817C36.0947 145.579 36.2887 145.383 36.5289 145.383Z" fill="#2E3552"/>
<rect x="182" y="272" width="25" height="10" rx="5" fill="#40B59F"/>
<circle cx="157" cy="277" r="5" fill="#352555"/>
<circle cx="142" cy="277" r="5" fill="#352555"/>
<circle cx="172" cy="277" r="5" fill="#352555"/>
</svg>
