<svg width="37" height="31" viewBox="0 0 37 31" fill="none" xmlns="http://www.w3.org/2000/svg">
<path d="M7.91992 16.0793C7.91992 14.3821 7.91992 13.5335 8.33711 12.7876C8.75431 12.0417 9.5378 11.4894 11.1048 10.3849L12.6248 9.31347C15.4572 7.31705 16.8733 6.31885 18.5602 6.31885C20.2471 6.31885 21.6633 7.31705 24.4956 9.31346L26.0157 10.3849C27.5826 11.4894 28.3661 12.0417 28.7833 12.7876C29.2005 13.5335 29.2005 14.3821 29.2005 16.0793V21.3798C29.2005 23.7368 29.2005 24.9153 28.3101 25.6476C27.4197 26.3798 25.9866 26.3798 23.1204 26.3798H14.0001C11.1339 26.3798 9.70076 26.3798 8.81034 25.6476C7.91992 24.9153 7.91992 23.7368 7.91992 21.3798V16.0793Z" stroke="#33363F" stroke-width="1.22964"/>
<path d="M22.361 26.3799V19.4947C22.361 19.1551 22.0857 18.8799 21.7461 18.8799H15.3756C15.036 18.8799 14.7607 19.1551 14.7607 19.4947V26.3799" stroke="#33363F" stroke-width="1.22964" stroke-linecap="round" stroke-linejoin="round"/>
</svg>
