<svg width="395" height="539" viewBox="0 0 395 539" fill="none" xmlns="http://www.w3.org/2000/svg">
<g filter="url(#filter0_i_214_516)">
<path d="M0 0H395V389C395 471.843 327.843 539 245 539H150C67.1573 539 0 471.843 0 389V0Z" fill="#233862"/>
</g>
<path d="M117.745 162.583C118.343 162.583 118.915 162.817 119.461 163.285C120.007 163.727 120.28 164.338 120.28 165.118C120.28 165.352 120.241 165.612 120.163 165.898L112.48 188.518C112.324 188.986 112.038 189.35 111.622 189.61C111.232 189.844 110.816 189.974 110.374 190C109.932 190 109.49 189.87 109.048 189.61C108.632 189.35 108.307 188.973 108.073 188.479L102.301 175.375L102.652 175.609L96.9583 188.479C96.7243 188.973 96.3863 189.35 95.9443 189.61C95.5283 189.87 95.0993 190 94.6573 190C94.2413 189.974 93.8253 189.844 93.4093 189.61C92.9933 189.35 92.7073 188.986 92.5513 188.518L84.8683 165.898C84.7903 165.612 84.7513 165.352 84.7513 165.118C84.7513 164.338 85.0243 163.727 85.5703 163.285C86.1423 162.817 86.7273 162.583 87.3253 162.583C87.8193 162.583 88.2743 162.713 88.6903 162.973C89.1323 163.233 89.4313 163.61 89.5873 164.104L95.7883 182.902L94.9303 182.863L100.468 169.564C100.676 169.096 100.975 168.732 101.365 168.472C101.755 168.186 102.197 168.056 102.691 168.082C103.185 168.056 103.627 168.186 104.017 168.472C104.407 168.732 104.693 169.096 104.875 169.564L109.945 182.278L109.321 182.668L115.444 164.104C115.6 163.61 115.899 163.233 116.341 162.973C116.783 162.713 117.251 162.583 117.745 162.583ZM133.91 190.39C131.7 190.39 129.776 189.935 128.138 189.025C126.526 188.089 125.278 186.828 124.394 185.242C123.536 183.656 123.107 181.862 123.107 179.86C123.107 177.52 123.575 175.531 124.511 173.893C125.473 172.229 126.721 170.955 128.255 170.071C129.789 169.187 131.414 168.745 133.13 168.745C134.456 168.745 135.704 169.018 136.874 169.564C138.07 170.11 139.123 170.864 140.033 171.826C140.943 172.762 141.658 173.854 142.178 175.102C142.724 176.35 142.997 177.676 142.997 179.08C142.971 179.704 142.724 180.211 142.256 180.601C141.788 180.991 141.242 181.186 140.618 181.186H125.72L124.55 177.286H138.863L138.005 178.066V177.013C137.953 176.259 137.68 175.583 137.186 174.985C136.718 174.387 136.12 173.919 135.392 173.581C134.69 173.217 133.936 173.035 133.13 173.035C132.35 173.035 131.622 173.139 130.946 173.347C130.27 173.555 129.685 173.906 129.191 174.4C128.697 174.894 128.307 175.557 128.021 176.389C127.735 177.221 127.592 178.274 127.592 179.548C127.592 180.952 127.878 182.148 128.45 183.136C129.048 184.098 129.802 184.839 130.712 185.359C131.648 185.853 132.636 186.1 133.676 186.1C134.638 186.1 135.405 186.022 135.977 185.866C136.549 185.71 137.004 185.528 137.342 185.32C137.706 185.086 138.031 184.891 138.317 184.735C138.785 184.501 139.227 184.384 139.643 184.384C140.215 184.384 140.683 184.579 141.047 184.969C141.437 185.359 141.632 185.814 141.632 186.334C141.632 187.036 141.268 187.673 140.54 188.245C139.864 188.817 138.915 189.324 137.693 189.766C136.471 190.182 135.21 190.39 133.91 190.39ZM153.356 187.621C153.356 188.297 153.122 188.869 152.654 189.337C152.212 189.779 151.653 190 150.977 190C150.327 190 149.781 189.779 149.339 189.337C148.897 188.869 148.676 188.297 148.676 187.621V163.519C148.676 162.843 148.897 162.284 149.339 161.842C149.807 161.374 150.379 161.14 151.055 161.14C151.731 161.14 152.277 161.374 152.693 161.842C153.135 162.284 153.356 162.843 153.356 163.519V187.621ZM168.899 168.745C170.381 168.745 171.668 168.901 172.76 169.213C173.878 169.525 174.736 169.967 175.334 170.539C175.958 171.085 176.27 171.748 176.27 172.528C176.27 173.048 176.114 173.542 175.802 174.01C175.49 174.452 175.035 174.673 174.437 174.673C174.021 174.673 173.67 174.621 173.384 174.517C173.124 174.387 172.89 174.231 172.682 174.049C172.474 173.867 172.227 173.698 171.941 173.542C171.681 173.386 171.278 173.269 170.732 173.191C170.212 173.087 169.822 173.035 169.562 173.035C168.236 173.035 167.105 173.321 166.169 173.893C165.259 174.465 164.557 175.245 164.063 176.233C163.569 177.195 163.322 178.313 163.322 179.587C163.322 180.835 163.569 181.953 164.063 182.941C164.583 183.903 165.285 184.67 166.169 185.242C167.079 185.814 168.119 186.1 169.289 186.1C169.939 186.1 170.498 186.061 170.966 185.983C171.434 185.905 171.824 185.788 172.136 185.632C172.5 185.424 172.825 185.203 173.111 184.969C173.397 184.735 173.826 184.618 174.398 184.618C175.074 184.618 175.594 184.839 175.958 185.281C176.322 185.697 176.504 186.217 176.504 186.841C176.504 187.491 176.14 188.089 175.412 188.635C174.684 189.155 173.722 189.584 172.526 189.922C171.356 190.234 170.082 190.39 168.704 190.39C166.65 190.39 164.869 189.922 163.361 188.986C161.853 188.024 160.683 186.724 159.851 185.086C159.045 183.448 158.642 181.615 158.642 179.587C158.642 177.455 159.071 175.583 159.929 173.971C160.813 172.333 162.022 171.059 163.556 170.149C165.116 169.213 166.897 168.745 168.899 168.745ZM201.32 179.587C201.32 181.719 200.839 183.604 199.877 185.242C198.941 186.854 197.667 188.115 196.055 189.025C194.469 189.935 192.688 190.39 190.712 190.39C188.736 190.39 186.942 189.935 185.33 189.025C183.744 188.115 182.47 186.854 181.508 185.242C180.572 183.604 180.104 181.719 180.104 179.587C180.104 177.455 180.572 175.583 181.508 173.971C182.47 172.333 183.744 171.059 185.33 170.149C186.942 169.213 188.736 168.745 190.712 168.745C192.688 168.745 194.469 169.213 196.055 170.149C197.667 171.059 198.941 172.333 199.877 173.971C200.839 175.583 201.32 177.455 201.32 179.587ZM196.64 179.587C196.64 178.261 196.367 177.117 195.821 176.155C195.301 175.167 194.586 174.4 193.676 173.854C192.792 173.308 191.804 173.035 190.712 173.035C189.62 173.035 188.619 173.308 187.709 173.854C186.825 174.4 186.11 175.167 185.564 176.155C185.044 177.117 184.784 178.261 184.784 179.587C184.784 180.887 185.044 182.031 185.564 183.019C186.11 183.981 186.825 184.735 187.709 185.281C188.619 185.827 189.62 186.1 190.712 186.1C191.804 186.1 192.792 185.827 193.676 185.281C194.586 184.735 195.301 183.981 195.821 183.019C196.367 182.031 196.64 180.887 196.64 179.587ZM217.574 168.745C219.654 168.745 221.188 169.252 222.176 170.266C223.164 171.254 223.814 172.541 224.126 174.127L223.463 173.776L223.775 173.152C224.087 172.554 224.568 171.917 225.218 171.241C225.868 170.539 226.648 169.954 227.558 169.486C228.494 168.992 229.534 168.745 230.678 168.745C232.55 168.745 233.967 169.148 234.929 169.954C235.917 170.76 236.593 171.839 236.957 173.191C237.321 174.517 237.503 175.999 237.503 177.637V187.621C237.503 188.297 237.282 188.869 236.84 189.337C236.398 189.779 235.839 190 235.163 190C234.487 190 233.928 189.779 233.486 189.337C233.044 188.869 232.823 188.297 232.823 187.621V177.637C232.823 176.779 232.719 176.012 232.511 175.336C232.303 174.634 231.926 174.075 231.38 173.659C230.834 173.243 230.054 173.035 229.04 173.035C228.052 173.035 227.207 173.243 226.505 173.659C225.803 174.075 225.27 174.634 224.906 175.336C224.568 176.012 224.399 176.779 224.399 177.637V187.621C224.399 188.297 224.178 188.869 223.736 189.337C223.294 189.779 222.735 190 222.059 190C221.383 190 220.824 189.779 220.382 189.337C219.94 188.869 219.719 188.297 219.719 187.621V177.637C219.719 176.779 219.615 176.012 219.407 175.336C219.199 174.634 218.822 174.075 218.276 173.659C217.73 173.243 216.95 173.035 215.936 173.035C214.948 173.035 214.103 173.243 213.401 173.659C212.699 174.075 212.166 174.634 211.802 175.336C211.464 176.012 211.295 176.779 211.295 177.637V187.621C211.295 188.297 211.074 188.869 210.632 189.337C210.19 189.779 209.631 190 208.955 190C208.279 190 207.72 189.779 207.278 189.337C206.836 188.869 206.615 188.297 206.615 187.621V171.514C206.615 170.838 206.836 170.279 207.278 169.837C207.72 169.369 208.279 169.135 208.955 169.135C209.631 169.135 210.19 169.369 210.632 169.837C211.074 170.279 211.295 170.838 211.295 171.514V173.191L210.71 173.074C210.944 172.632 211.269 172.164 211.685 171.67C212.101 171.15 212.608 170.669 213.206 170.227C213.804 169.785 214.467 169.434 215.195 169.174C215.923 168.888 216.716 168.745 217.574 168.745ZM253.597 190.39C251.387 190.39 249.463 189.935 247.825 189.025C246.213 188.089 244.965 186.828 244.081 185.242C243.223 183.656 242.794 181.862 242.794 179.86C242.794 177.52 243.262 175.531 244.198 173.893C245.16 172.229 246.408 170.955 247.942 170.071C249.476 169.187 251.101 168.745 252.817 168.745C254.143 168.745 255.391 169.018 256.561 169.564C257.757 170.11 258.81 170.864 259.72 171.826C260.63 172.762 261.345 173.854 261.865 175.102C262.411 176.35 262.684 177.676 262.684 179.08C262.658 179.704 262.411 180.211 261.943 180.601C261.475 180.991 260.929 181.186 260.305 181.186H245.407L244.237 177.286H258.55L257.692 178.066V177.013C257.64 176.259 257.367 175.583 256.873 174.985C256.405 174.387 255.807 173.919 255.079 173.581C254.377 173.217 253.623 173.035 252.817 173.035C252.037 173.035 251.309 173.139 250.633 173.347C249.957 173.555 249.372 173.906 248.878 174.4C248.384 174.894 247.994 175.557 247.708 176.389C247.422 177.221 247.279 178.274 247.279 179.548C247.279 180.952 247.565 182.148 248.137 183.136C248.735 184.098 249.489 184.839 250.399 185.359C251.335 185.853 252.323 186.1 253.363 186.1C254.325 186.1 255.092 186.022 255.664 185.866C256.236 185.71 256.691 185.528 257.029 185.32C257.393 185.086 257.718 184.891 258.004 184.735C258.472 184.501 258.914 184.384 259.33 184.384C259.902 184.384 260.37 184.579 260.734 184.969C261.124 185.359 261.319 185.814 261.319 186.334C261.319 187.036 260.955 187.673 260.227 188.245C259.551 188.817 258.602 189.324 257.38 189.766C256.158 190.182 254.897 190.39 253.597 190.39ZM280.337 169.525H289.58C290.204 169.525 290.724 169.733 291.14 170.149C291.556 170.565 291.764 171.085 291.764 171.709C291.764 172.307 291.556 172.814 291.14 173.23C290.724 173.62 290.204 173.815 289.58 173.815H280.337C279.713 173.815 279.193 173.607 278.777 173.191C278.361 172.775 278.153 172.255 278.153 171.631C278.153 171.033 278.361 170.539 278.777 170.149C279.193 169.733 279.713 169.525 280.337 169.525ZM284.51 164.65C285.186 164.65 285.732 164.884 286.148 165.352C286.59 165.794 286.811 166.353 286.811 167.029V184.384C286.811 184.748 286.876 185.047 287.006 185.281C287.162 185.515 287.357 185.684 287.591 185.788C287.851 185.892 288.124 185.944 288.41 185.944C288.722 185.944 289.008 185.892 289.268 185.788C289.528 185.658 289.827 185.593 290.165 185.593C290.529 185.593 290.854 185.762 291.14 186.1C291.452 186.438 291.608 186.906 291.608 187.504C291.608 188.232 291.205 188.83 290.399 189.298C289.619 189.766 288.774 190 287.864 190C287.318 190 286.707 189.961 286.031 189.883C285.381 189.779 284.757 189.558 284.159 189.22C283.587 188.856 283.106 188.31 282.716 187.582C282.326 186.854 282.131 185.853 282.131 184.579V167.029C282.131 166.353 282.352 165.794 282.794 165.352C283.262 164.884 283.834 164.65 284.51 164.65ZM317.312 179.587C317.312 181.719 316.831 183.604 315.869 185.242C314.933 186.854 313.659 188.115 312.047 189.025C310.461 189.935 308.68 190.39 306.704 190.39C304.728 190.39 302.934 189.935 301.322 189.025C299.736 188.115 298.462 186.854 297.5 185.242C296.564 183.604 296.096 181.719 296.096 179.587C296.096 177.455 296.564 175.583 297.5 173.971C298.462 172.333 299.736 171.059 301.322 170.149C302.934 169.213 304.728 168.745 306.704 168.745C308.68 168.745 310.461 169.213 312.047 170.149C313.659 171.059 314.933 172.333 315.869 173.971C316.831 175.583 317.312 177.455 317.312 179.587ZM312.632 179.587C312.632 178.261 312.359 177.117 311.813 176.155C311.293 175.167 310.578 174.4 309.668 173.854C308.784 173.308 307.796 173.035 306.704 173.035C305.612 173.035 304.611 173.308 303.701 173.854C302.817 174.4 302.102 175.167 301.556 176.155C301.036 177.117 300.776 178.261 300.776 179.587C300.776 180.887 301.036 182.031 301.556 183.019C302.102 183.981 302.817 184.735 303.701 185.281C304.611 185.827 305.612 186.1 306.704 186.1C307.796 186.1 308.784 185.827 309.668 185.281C310.578 184.735 311.293 183.981 311.813 183.019C312.359 182.031 312.632 180.887 312.632 179.587Z" fill="white"/>
<path d="M221.151 354.128C221.519 354.128 221.871 354.272 222.207 354.56C222.543 354.832 222.711 355.208 222.711 355.688C222.711 355.832 222.687 355.992 222.639 356.168L217.911 370.088C217.815 370.376 217.639 370.6 217.383 370.76C217.143 370.904 216.887 370.984 216.615 371C216.343 371 216.071 370.92 215.799 370.76C215.543 370.6 215.343 370.368 215.199 370.064L211.647 362L211.863 362.144L208.359 370.064C208.215 370.368 208.007 370.6 207.735 370.76C207.479 370.92 207.215 371 206.943 371C206.687 370.984 206.431 370.904 206.175 370.76C205.919 370.6 205.743 370.376 205.647 370.088L200.919 356.168C200.871 355.992 200.847 355.832 200.847 355.688C200.847 355.208 201.015 354.832 201.351 354.56C201.703 354.272 202.063 354.128 202.431 354.128C202.735 354.128 203.015 354.208 203.271 354.368C203.543 354.528 203.727 354.76 203.823 355.064L207.639 366.632L207.111 366.608L210.519 358.424C210.647 358.136 210.831 357.912 211.071 357.752C211.311 357.576 211.583 357.496 211.887 357.512C212.191 357.496 212.463 357.576 212.703 357.752C212.943 357.912 213.119 358.136 213.231 358.424L216.351 366.248L215.967 366.488L219.735 355.064C219.831 354.76 220.015 354.528 220.287 354.368C220.559 354.208 220.847 354.128 221.151 354.128ZM236.165 357.92C236.581 357.92 236.925 358.056 237.197 358.328C237.469 358.6 237.605 358.952 237.605 359.384V369.536C237.605 369.952 237.469 370.304 237.197 370.592C236.925 370.864 236.581 371 236.165 371C235.749 371 235.405 370.864 235.133 370.592C234.861 370.304 234.725 369.952 234.725 369.536V368.36L235.253 368.576C235.253 368.784 235.141 369.04 234.917 369.344C234.693 369.632 234.389 369.92 234.005 370.208C233.621 370.496 233.165 370.744 232.637 370.952C232.125 371.144 231.565 371.24 230.957 371.24C229.853 371.24 228.853 370.96 227.957 370.4C227.061 369.824 226.349 369.04 225.821 368.048C225.309 367.04 225.053 365.888 225.053 364.592C225.053 363.28 225.309 362.128 225.821 361.136C226.349 360.128 227.053 359.344 227.933 358.784C228.813 358.208 229.789 357.92 230.861 357.92C231.549 357.92 232.181 358.024 232.757 358.232C233.333 358.44 233.829 358.704 234.245 359.024C234.677 359.344 235.005 359.672 235.229 360.008C235.469 360.328 235.589 360.6 235.589 360.824L234.725 361.136V359.384C234.725 358.968 234.861 358.624 235.133 358.352C235.405 358.064 235.749 357.92 236.165 357.92ZM231.317 368.6C232.021 368.6 232.637 368.424 233.165 368.072C233.693 367.72 234.101 367.24 234.389 366.632C234.693 366.024 234.845 365.344 234.845 364.592C234.845 363.824 234.693 363.136 234.389 362.528C234.101 361.92 233.693 361.44 233.165 361.088C232.637 360.736 232.021 360.56 231.317 360.56C230.629 360.56 230.021 360.736 229.493 361.088C228.965 361.44 228.549 361.92 228.245 362.528C227.957 363.136 227.813 363.824 227.813 364.592C227.813 365.344 227.957 366.024 228.245 366.632C228.549 367.24 228.965 367.72 229.493 368.072C230.021 368.424 230.629 368.6 231.317 368.6ZM251.451 358.16C251.867 358.16 252.211 358.304 252.483 358.592C252.755 358.864 252.891 359.208 252.891 359.624V369.824C252.891 371.296 252.611 372.464 252.051 373.328C251.507 374.208 250.771 374.84 249.843 375.224C248.915 375.608 247.875 375.8 246.723 375.8C246.211 375.8 245.667 375.76 245.091 375.68C244.515 375.6 244.043 375.48 243.675 375.32C243.195 375.112 242.859 374.848 242.667 374.528C242.491 374.224 242.459 373.896 242.571 373.544C242.715 373.08 242.947 372.76 243.267 372.584C243.587 372.424 243.923 372.408 244.275 372.536C244.531 372.616 244.867 372.736 245.283 372.896C245.699 373.072 246.179 373.16 246.723 373.16C247.459 373.16 248.067 373.056 248.547 372.848C249.043 372.656 249.411 372.32 249.651 371.84C249.907 371.376 250.035 370.736 250.035 369.92V368.312L250.539 368.888C250.267 369.416 249.923 369.856 249.507 370.208C249.107 370.544 248.627 370.8 248.067 370.976C247.507 371.152 246.867 371.24 246.147 371.24C245.299 371.24 244.555 371.048 243.915 370.664C243.291 370.264 242.803 369.72 242.451 369.032C242.099 368.328 241.923 367.528 241.923 366.632V359.624C241.923 359.208 242.059 358.864 242.331 358.592C242.603 358.304 242.947 358.16 243.363 358.16C243.779 358.16 244.123 358.304 244.395 358.592C244.667 358.864 244.803 359.208 244.803 359.624V365.768C244.803 366.808 245.027 367.544 245.475 367.976C245.939 368.392 246.579 368.6 247.395 368.6C247.955 368.6 248.427 368.496 248.811 368.288C249.195 368.064 249.491 367.744 249.699 367.328C249.907 366.896 250.011 366.376 250.011 365.768V359.624C250.011 359.208 250.147 358.864 250.419 358.592C250.691 358.304 251.035 358.16 251.451 358.16ZM265.369 371.24C264.153 371.24 263.017 371.016 261.961 370.568C260.905 370.12 259.977 369.504 259.177 368.72C258.377 367.92 257.745 367 257.281 365.96C256.833 364.92 256.609 363.8 256.609 362.6C256.609 361.4 256.833 360.28 257.281 359.24C257.745 358.2 258.377 357.288 259.177 356.504C259.977 355.704 260.905 355.08 261.961 354.632C263.017 354.184 264.153 353.96 265.369 353.96C266.121 353.96 266.849 354.04 267.553 354.2C268.257 354.36 268.905 354.6 269.497 354.92C269.737 355.048 269.913 355.224 270.025 355.448C270.153 355.656 270.217 355.872 270.217 356.096C270.217 356.48 270.089 356.824 269.833 357.128C269.577 357.432 269.249 357.584 268.849 357.584C268.721 357.584 268.585 357.568 268.441 357.536C268.313 357.504 268.185 357.456 268.057 357.392C267.657 357.216 267.233 357.08 266.785 356.984C266.337 356.888 265.865 356.84 265.369 356.84C264.329 356.84 263.377 357.104 262.513 357.632C261.665 358.144 260.985 358.84 260.473 359.72C259.977 360.584 259.729 361.544 259.729 362.6C259.729 363.64 259.977 364.6 260.473 365.48C260.985 366.36 261.665 367.064 262.513 367.592C263.377 368.104 264.329 368.36 265.369 368.36C265.849 368.36 266.377 368.312 266.953 368.216C267.529 368.12 268.001 367.992 268.369 367.832L268.153 368.552V364.448L268.561 364.808H265.897C265.481 364.808 265.129 364.672 264.841 364.4C264.569 364.128 264.433 363.784 264.433 363.368C264.433 362.952 264.569 362.608 264.841 362.336C265.129 362.064 265.481 361.928 265.897 361.928H269.833C270.249 361.928 270.593 362.072 270.865 362.36C271.137 362.632 271.273 362.976 271.273 363.392V368.48C271.273 368.8 271.193 369.064 271.033 369.272C270.889 369.48 270.721 369.648 270.529 369.776C269.793 370.224 268.985 370.584 268.105 370.856C267.241 371.112 266.329 371.24 265.369 371.24ZM287.576 364.592C287.576 365.904 287.28 367.064 286.688 368.072C286.112 369.064 285.328 369.84 284.336 370.4C283.36 370.96 282.264 371.24 281.048 371.24C279.832 371.24 278.728 370.96 277.736 370.4C276.76 369.84 275.976 369.064 275.384 368.072C274.808 367.064 274.52 365.904 274.52 364.592C274.52 363.28 274.808 362.128 275.384 361.136C275.976 360.128 276.76 359.344 277.736 358.784C278.728 358.208 279.832 357.92 281.048 357.92C282.264 357.92 283.36 358.208 284.336 358.784C285.328 359.344 286.112 360.128 286.688 361.136C287.28 362.128 287.576 363.28 287.576 364.592ZM284.696 364.592C284.696 363.776 284.528 363.072 284.192 362.48C283.872 361.872 283.432 361.4 282.872 361.064C282.328 360.728 281.72 360.56 281.048 360.56C280.376 360.56 279.76 360.728 279.2 361.064C278.656 361.4 278.216 361.872 277.88 362.48C277.56 363.072 277.4 363.776 277.4 364.592C277.4 365.392 277.56 366.096 277.88 366.704C278.216 367.296 278.656 367.76 279.2 368.096C279.76 368.432 280.376 368.6 281.048 368.6C281.72 368.6 282.328 368.432 282.872 368.096C283.432 367.76 283.872 367.296 284.192 366.704C284.528 366.096 284.696 365.392 284.696 364.592Z" fill="white"/>
<path d="M123.5 351.5C101.685 329.685 101.685 294.315 123.5 272.5L163 233L242 312L202.5 351.5C180.685 373.315 145.315 373.315 123.5 351.5V351.5Z" fill="#234272"/>
<g style="mix-blend-mode:color-dodge">
<path d="M159.163 287.25C163.54 287.25 167.507 288.976 170.375 291.76C173.242 294.543 175.018 298.396 175.018 302.646C175.018 306.896 173.242 310.747 170.375 313.529C167.507 316.313 163.54 318.039 159.163 318.039C154.785 318.039 150.818 316.313 147.95 313.529C145.083 310.747 143.306 306.896 143.306 302.646C143.306 298.396 145.083 294.543 147.95 291.76C150.818 288.976 154.785 287.25 159.163 287.25ZM179.788 317.642C178.868 317.642 177.969 317.729 177.106 317.897C175.326 318.24 173.673 318.905 172.162 319.885C171.414 320.37 170.718 320.926 170.084 321.546C168.804 322.787 167.801 324.254 167.108 325.877C166.766 326.682 166.506 327.518 166.331 328.372C166.157 329.225 166.069 330.093 166.07 330.963C166.07 332.716 166.42 334.444 167.108 336.067C167.449 336.872 167.873 337.641 168.374 338.363C169.377 339.82 170.675 341.066 172.176 342.037C172.923 342.52 173.721 342.938 174.552 343.272C175.353 343.593 176.204 343.848 177.087 344.02C179.945 344.497 182.605 344.302 185.231 343.194C185.702 342.996 186.169 342.767 186.618 342.514C186.84 342.378 187.105 342.323 187.365 342.357C187.626 342.392 187.865 342.514 188.042 342.703L192.959 347.961L197 344.363L191.869 338.929C191.516 338.592 191.423 338.053 191.681 337.614C191.94 337.169 192.185 336.704 192.395 336.223C192.603 335.755 192.79 335.264 192.94 334.765C193.572 332.695 193.682 330.533 193.256 328.405L193.25 328.368C192.717 325.772 191.423 323.412 189.492 321.543C186.921 319.042 183.411 317.642 179.788 317.642ZM185.55 322.568C186.132 322.947 186.665 323.371 187.134 323.824C188.571 325.234 189.587 327.038 189.98 328.989C190.374 330.936 190.184 332.98 189.393 334.814C189.132 335.43 188.804 336.018 188.43 336.563C188.048 337.116 187.612 337.63 187.131 338.093C186.648 338.563 186.118 338.986 185.55 339.355C182.695 341.212 179.014 341.58 175.812 340.284C175.186 340.031 174.587 339.719 174.024 339.352C172.887 338.618 171.91 337.673 171.149 336.572C170.002 334.913 169.391 332.961 169.393 330.963C169.393 329.626 169.668 328.34 170.164 327.158L170.186 327.103C170.71 325.878 171.475 324.764 172.44 323.824C172.911 323.371 173.446 322.944 174.027 322.568C175.142 321.85 176.449 321.318 177.759 321.065C178.422 320.94 179.1 320.873 179.788 320.873C181.85 320.873 183.829 321.463 185.55 322.568ZM160.06 347.167C161.349 346.371 162.596 345.526 163.801 344.63C164.441 345.623 165.167 346.56 165.965 347.435C164.405 348.59 162.785 349.665 161.111 350.656C160.528 351.074 159.713 351.126 159.066 350.73C152.007 346.377 146.083 341.125 141.414 335.442C134.983 327.606 130.927 318.914 129.54 310.555C128.131 302.073 129.455 293.909 133.8 287.269C135.512 284.651 137.705 282.264 140.381 280.197C146.51 275.454 153.53 272.943 160.493 273.001C167.204 273.057 173.852 275.486 179.596 280.575C181.608 282.355 183.303 284.386 184.686 286.596C189.31 293.999 190.346 303.431 188.374 312.999C187.232 312.676 186.048 312.445 184.837 312.31C186.637 303.568 185.732 295.027 181.602 288.41C180.387 286.468 178.892 284.704 177.162 283.172C172.105 278.693 166.296 276.553 160.464 276.506C154.336 276.457 148.115 278.699 142.628 282.944C140.286 284.753 138.364 286.848 136.86 289.15C133.001 295.048 131.837 302.361 133.106 310.008C134.394 317.773 138.199 325.896 144.244 333.259C148.456 338.384 153.756 343.145 160.06 347.167ZM167.816 294.242C165.605 292.097 162.541 290.761 159.163 290.761C155.784 290.761 152.72 292.097 150.508 294.242C148.297 296.388 146.923 299.367 146.923 302.646C146.923 305.925 148.297 308.901 150.508 311.047C152.72 313.194 155.784 314.528 159.163 314.528C162.541 314.528 165.605 313.194 167.816 311.047C170.028 308.901 171.403 305.925 171.403 302.646C171.403 299.367 170.028 296.388 167.816 294.242Z" fill="white"/>
</g>
<defs>
<filter id="filter0_i_214_516" x="0" y="-1" width="395" height="540" filterUnits="userSpaceOnUse" color-interpolation-filters="sRGB">
<feFlood flood-opacity="0" result="BackgroundImageFix"/>
<feBlend mode="normal" in="SourceGraphic" in2="BackgroundImageFix" result="shape"/>
<feColorMatrix in="SourceAlpha" type="matrix" values="0 0 0 0 0 0 0 0 0 0 0 0 0 0 0 0 0 0 127 0" result="hardAlpha"/>
<feOffset dy="-1"/>
<feGaussianBlur stdDeviation="32.5"/>
<feComposite in2="hardAlpha" operator="arithmetic" k2="-1" k3="1"/>
<feColorMatrix type="matrix" values="0 0 0 0 0 0 0 0 0 0 0 0 0 0 0 0 0 0 0.06 0"/>
<feBlend mode="normal" in2="shape" result="effect1_innerShadow_214_516"/>
</filter>
</defs>
</svg>
