<svg width="237" height="91" viewBox="0 0 237 91" fill="none" xmlns="http://www.w3.org/2000/svg">
<path d="M229.825 89.6309H222.052C221.636 89.2811 222.339 88.4881 223.077 88.4351C223.397 88.4114 223.802 88.4769 224.263 88.5745C224.37 87.1711 224.981 80.8579 227.284 81.113C229.873 81.3973 227.284 83.8919 226.552 85.3705C226.01 86.4645 225.438 88.0338 225.177 88.7752C225.387 88.8198 225.604 88.8644 225.827 88.9048C226.17 87.8637 227.447 84.3615 229.071 84.5664C230.977 84.8047 230.21 86.2095 228.859 87.0429C227.868 87.6561 226.651 88.5271 226.072 88.948C226.563 89.0274 227.074 89.0804 227.593 89.0679C228.924 89.0372 229.574 89.4246 229.826 89.6337L229.825 89.6309Z" fill="#82B378"/>
<path d="M17.673 89.2099C17.1978 88.4713 15.7664 86.555 13.8597 86.8087C11.7825 87.0846 16.1542 88.4378 17.4925 89.2155C17.195 89.2197 16.9397 89.196 16.7521 89.1305C15.8581 88.8155 14.3251 89.4203 13.8358 89.6322H22.3536C22.2944 89.4315 22.1407 89.1026 21.7444 88.8629C21.6048 88.7779 21.3227 88.7667 20.9603 88.7946C21.4666 88.2051 21.8191 86.3195 20.4089 86.8045C19.3794 87.1585 19.3822 88.311 19.4824 88.9911C19.2638 89.0245 19.041 89.0594 18.821 89.0901C18.3965 86.9536 16.8974 80.6948 13.8569 80.5276C10.7755 80.3589 16.4701 87.0191 18.3669 89.15C18.1243 89.1792 17.8902 89.2002 17.673 89.2113V89.2099Z" fill="#82B378"/>
<path d="M138.196 90.3743C138.196 90.3743 138.196 88.9584 138.401 88.4873C138.605 88.0163 139.354 86.0986 139.354 86.0986H142.282C142.282 86.0986 142.826 87.8476 142.86 88.4204C142.894 88.9918 142.86 90.3757 142.86 90.3757H138.196V90.3743Z" fill="#233862"/>
<path d="M156.786 90.3743C156.786 90.3743 156.786 88.9584 156.582 88.4873C156.377 88.0163 155.628 86.0986 155.628 86.0986H152.701C152.701 86.0986 152.156 87.8476 152.122 88.4204C152.089 88.9918 152.122 90.3757 152.122 90.3757H156.786V90.3743Z" fill="#233862"/>
<path d="M145.057 10.873C145.057 10.873 144.954 14.0268 144.545 15.44L141.312 17.6684L153.482 19.4676L150.58 15.5041C150.58 15.5041 149.704 11.2758 150.164 9.71075C150.623 8.1457 145.057 10.8716 145.057 10.8716V10.873Z" fill="#FFB27D"/>
<path d="M145.039 11.3091C145.039 11.3091 146.001 13.5988 147.814 13.5487C149.627 13.4985 150.04 11.4721 150.04 11.4721L145.039 11.3091Z" fill="#ED985F"/>
<path d="M143.957 9.45575C143.957 9.45575 143.372 6.56814 142.963 5.69294C142.554 4.81774 142.214 0.915558 146.743 0.713481C146.743 0.713481 148.479 0.915557 149.432 0.342773C149.432 0.342773 149.432 0.914166 149.194 1.11624C149.194 1.11624 150.759 0.745536 151.984 2.09179C153.21 3.43804 151.168 8.14713 151.269 9.25785L143.957 9.45436V9.45575Z" fill="#2C3A64"/>
<path d="M147.607 12.6637C146.295 12.6415 143.876 10.912 143.876 8.77133V5.43079C143.876 4.64896 144.427 4.00928 145.101 4.00928H150.112C150.786 4.00928 151.338 4.64896 151.338 5.43079V8.58179C151.338 10.8255 149.112 12.6888 147.606 12.6624L147.607 12.6637Z" fill="#FFB27D"/>
<path d="M143.875 7.21483C143.875 7.21483 143.882 5.20799 145.49 4.89861C147.099 4.59061 150.7 5.87694 151.21 4.41363C151.721 2.95031 144.252 2.97539 143.875 3.90913C143.499 4.84286 143.875 7.21483 143.875 7.21483Z" fill="#2C3A64"/>
<path d="M138.564 41.3212C138.564 41.3212 139.076 56.7794 138.311 65.5983C137.545 74.4186 138.316 86.6924 138.316 86.6924C138.316 86.6924 140.766 88.0275 143.421 86.6924C143.421 86.6924 146.333 69.6538 146.315 65.5983C146.295 61.2794 149.485 41.9943 149.485 41.9943L138.564 41.3198V41.3212Z" fill="#B64C41"/>
<path d="M156.681 86.6921C156.681 86.6921 154.231 88.0272 151.576 86.6921C151.576 86.6921 148.664 69.6535 148.682 65.598C148.69 63.7738 148.126 59.2793 147.472 54.6984C146.576 48.4298 145.512 41.9954 145.512 41.9954L156.856 41.2944C156.856 41.2944 155.921 56.7791 156.686 65.598C157.452 74.4183 156.681 86.6921 156.681 86.6921Z" fill="#B64C41"/>
<path d="M156.72 43.8939C156.72 43.8939 151.884 44.8192 147.472 44.8192C145.548 44.8192 143.457 44.6102 141.793 44.39C139.952 44.1489 138.632 43.8939 138.632 43.8939C138.632 43.8939 137.652 43.9789 138.23 39.2015C138.67 35.5669 138.532 32.2835 138.435 28.9067C138.424 28.5318 138.432 28.0873 138.456 27.5925C138.644 23.6555 139.849 16.5675 140.767 16.187C140.767 16.187 142.133 15.6853 144.545 15.4414C144.545 15.4874 145.946 17.511 147.607 17.7367C148.639 17.3326 149.45 16.9883 150.58 15.5069C152.011 15.6714 153.571 15.9515 155.241 16.3947C155.241 16.3947 155.414 17.1458 156.07 30.1735C156.331 35.3341 158.113 43.9106 156.72 43.8939Z" fill="#739AF0"/>
<path d="M148.684 65.5983C148.692 63.7741 148.128 59.2796 147.474 54.6987C148.153 51.9616 149.808 49.3276 149.808 49.3276C151.902 55.1307 148.684 65.5997 148.684 65.5997V65.5983Z" fill="#AA413E"/>
<path d="M133.967 31.6941C133.852 31.7889 134.255 32.7742 134.846 34.0577C136.066 36.6945 138.091 40.5897 138.091 40.5897C137.798 41.6893 137.476 42.3679 137.476 42.3679C134.069 39.7228 131.872 37.4721 130.47 35.7454C128.498 33.3177 128.094 31.9268 128.094 31.9268C135.679 16.6665 141.019 16.1035 141.019 16.1035L140.388 26.1892C140.388 26.1892 134.317 31.4056 133.966 31.6941H133.967Z" fill="#2B478B"/>
<path d="M158.077 47.8824C156.946 50.1192 152.682 50.0383 152.682 50.0383C151.899 44.0973 151.726 15.6602 151.726 15.6602C153.168 15.8316 155.085 16.3416 155.085 16.3416C156.47 18.9882 156.96 23.9439 157.08 27.4364C157.147 29.3916 157.099 30.8884 157.025 31.2633C156.917 31.8207 157.053 34.4784 157.262 37.5109C157.585 42.2409 158.077 47.881 158.077 47.881V47.8824Z" fill="#2B478B"/>
<path d="M143.424 15.5806C143.424 15.5806 143.138 44.0943 142.355 50.0368C142.355 50.0368 138.092 50.1176 136.961 47.8822C136.961 47.8822 138.712 30.3336 138.436 28.9065C138.244 27.9115 138.743 19.7322 140.587 16.2175C140.587 16.2175 142.2 15.7241 143.424 15.5806Z" fill="#2B478B"/>
<path d="M137.687 40.782C137.687 40.782 139.526 39.0999 140.274 40.042C141.023 40.9841 141.16 42.4641 140.58 42.3638C140.002 42.262 138.811 41.7241 138.64 41.9931C138.469 42.262 137.708 42.7763 137.475 42.368C137.244 41.9596 137.687 40.782 137.687 40.782Z" fill="#FFB27D"/>
<path d="M138.091 40.5895C137.797 41.6891 137.476 42.3678 137.476 42.3678C134.069 39.7227 131.872 37.472 130.47 35.7452C131.527 35.6672 133.07 35.2937 134.846 34.0562C136.066 36.6929 138.091 40.5881 138.091 40.5881V40.5895Z" fill="#FFB27D"/>
<path d="M167.391 31.9267C167.391 31.9267 166.986 33.319 165.016 35.7453C163.615 37.4706 161.417 39.7213 158.01 42.3678C158.01 42.3678 157.689 41.6891 157.395 40.5896C157.395 40.5896 159.421 36.6943 160.64 34.0576C161.233 32.774 161.635 31.7888 161.52 31.694C161.248 31.4696 157.539 28.2852 155.885 26.865C155.406 26.4525 155.098 26.1891 155.098 26.1891L154.719 16.2539C154.719 16.2539 159.805 16.6664 167.393 31.9267H167.391Z" fill="#2B478B"/>
<path d="M157.798 40.7815C157.798 40.7815 155.959 39.0994 155.21 40.0415C154.461 40.9836 154.324 42.4636 154.904 42.3633C155.482 42.2616 156.674 41.7236 156.844 41.9926C157.015 42.2616 157.777 42.7758 158.009 42.3675C158.24 41.9591 157.798 40.7815 157.798 40.7815Z" fill="#FFB27D"/>
<path d="M157.395 40.5895C157.688 41.6891 158.009 42.3678 158.009 42.3678C161.417 39.7227 163.614 37.472 165.015 35.7452C163.958 35.6672 162.415 35.2937 160.639 34.0562C159.42 36.6929 157.395 40.5881 157.395 40.5881V40.5895Z" fill="#FFB27D"/>
<path d="M161.519 31.6939C161.247 31.4695 157.538 28.285 155.884 26.8649C155.884 26.8649 157.535 25.6413 158.556 27.4252C159.577 29.209 161.519 31.6939 161.519 31.6939Z" fill="#233862"/>
<path d="M167.392 31.9268C167.392 31.9268 166.987 33.319 165.017 35.7453C162.735 35.7147 167.392 31.9268 167.392 31.9268Z" fill="#233862"/>
<path d="M145.905 8.62242C145.425 8.62242 144.465 8.51651 144.297 7.69287C144.246 7.44341 144.294 7.22182 144.434 7.0518C144.589 6.86366 144.846 6.75635 145.136 6.75635H146.611C146.892 6.75635 147.088 6.83578 147.194 6.99326C147.371 7.25805 147.235 7.65524 147.168 7.81412C146.938 8.35624 146.623 8.60988 146.174 8.61127C146.156 8.61267 146.053 8.62382 145.905 8.62382V8.62242ZM145.136 6.85251C144.874 6.85251 144.645 6.94727 144.509 7.11172C144.387 7.25945 144.346 7.45316 144.392 7.67336C144.478 8.09563 144.799 8.36599 145.348 8.47609C145.765 8.55971 146.161 8.51372 146.166 8.51372H146.171C146.577 8.51372 146.867 8.27959 147.079 7.77648C147.127 7.6636 147.27 7.27896 147.113 7.04622C147.026 6.91801 146.858 6.85251 146.611 6.85251H145.136Z" fill="#B64C41"/>
<path d="M149.307 8.62235C149.159 8.62235 149.056 8.6126 149.038 8.60981C148.589 8.60981 148.272 8.35617 148.044 7.81265C147.976 7.65378 147.839 7.25659 148.018 6.9918C148.124 6.83432 148.32 6.75488 148.601 6.75488H150.076C150.366 6.75488 150.623 6.86219 150.778 7.05033C150.919 7.22036 150.967 7.44194 150.916 7.69141C150.748 8.51504 149.788 8.62096 149.309 8.62096L149.307 8.62235ZM148.599 6.85244C148.354 6.85244 148.185 6.91794 148.097 7.04615C147.941 7.27889 148.085 7.66353 148.131 7.77641C148.344 8.27952 148.633 8.51365 149.039 8.51365H149.045C149.045 8.51365 149.447 8.55964 149.863 8.47602C150.41 8.36592 150.732 8.09556 150.818 7.67329C150.863 7.45309 150.822 7.25798 150.701 7.11165C150.564 6.9472 150.335 6.85244 150.073 6.85244H148.598H148.599Z" fill="#B64C41"/>
<path d="M147.078 7.43085C147.055 7.43085 147.035 7.4183 147.025 7.3974C147.013 7.36813 147.025 7.33468 147.054 7.32075C147.078 7.3096 147.656 7.05317 148.169 7.32214C148.197 7.33747 148.209 7.37092 148.193 7.40019C148.178 7.42806 148.144 7.4392 148.114 7.42387C147.652 7.18138 147.107 7.42388 147.102 7.42527C147.093 7.42945 147.086 7.43085 147.078 7.43085Z" fill="#B64C41"/>
<path d="M157.262 37.5107C154.845 30.7795 155.884 26.8647 155.884 26.8647L157.082 27.4361C157.148 29.3914 157.1 30.8882 157.027 31.2631C156.918 31.8205 157.055 34.4782 157.264 37.5107H157.262Z" fill="#233862"/>
<path d="M99.8203 90.3743C99.8203 90.3743 99.8203 88.9584 100.025 88.4873C100.229 88.0163 100.978 86.0986 100.978 86.0986H103.906C103.906 86.0986 104.45 87.8476 104.484 88.4204C104.518 88.9918 104.484 90.3757 104.484 90.3757H99.8203V90.3743Z" fill="#233862"/>
<path d="M118.409 90.3743C118.409 90.3743 118.409 88.9584 118.204 88.4873C118 88.0163 117.251 86.0986 117.251 86.0986H114.323C114.323 86.0986 113.779 87.8476 113.744 88.4204C113.71 88.9918 113.744 90.3757 113.744 90.3757H118.407L118.409 90.3743Z" fill="#233862"/>
<path d="M106.68 10.873C106.68 10.873 106.577 14.0268 106.168 15.44L102.936 17.6684L115.106 19.4676L112.204 15.5041C112.204 15.5041 111.328 11.2758 111.788 9.71075C112.247 8.1457 106.681 10.8716 106.681 10.8716L106.68 10.873Z" fill="#FFB27D"/>
<path d="M106.662 11.3091C106.662 11.3091 107.624 13.5988 109.437 13.5487C111.25 13.4985 111.663 11.4721 111.663 11.4721L106.662 11.3091Z" fill="#ED985F"/>
<path d="M105.58 9.45575C105.58 9.45575 104.995 6.56814 104.586 5.69294C104.177 4.81774 103.837 0.915558 108.366 0.713481C108.366 0.713481 110.102 0.915557 111.055 0.342773C111.055 0.342773 111.055 0.914166 110.817 1.11624C110.817 1.11624 112.383 0.745536 113.609 2.09179C114.834 3.43804 112.792 8.14713 112.894 9.25785L105.58 9.45436V9.45575Z" fill="#B64C41"/>
<path d="M111.736 4.01074H106.724C106.049 4.01074 105.498 4.65042 105.498 5.43225V8.77279C105.498 10.9134 107.915 12.6415 109.23 12.6652C110.736 12.6917 112.961 10.8284 112.961 8.58465V5.43364C112.961 4.65181 112.41 4.01214 111.736 4.01214V4.01074Z" fill="#FFB27D"/>
<path d="M105.498 7.21483C105.498 7.21483 105.505 5.20799 107.113 4.89861C108.722 4.59061 112.323 5.87694 112.833 4.41363C113.344 2.95031 105.875 2.97539 105.498 3.90913C105.122 4.84286 105.498 7.21483 105.498 7.21483Z" fill="#B64C41"/>
<path d="M100.187 41.3212C100.187 41.3212 100.699 56.7794 99.9336 65.5983C99.1678 74.4186 99.9392 86.6924 99.9392 86.6924C99.9392 86.6924 102.389 88.0275 105.044 86.6924C105.044 86.6924 107.956 69.6538 107.938 65.5983C107.918 61.2794 111.108 41.9943 111.108 41.9943L100.189 41.3198L100.187 41.3212Z" fill="#2B478B"/>
<path d="M118.303 86.6926C118.303 86.6926 115.853 88.0277 113.198 86.6926C113.198 86.6926 110.286 69.654 110.304 65.5985C110.312 63.7742 109.748 59.2798 109.094 54.6989C108.199 48.4303 107.134 41.9959 107.134 41.9959L118.478 41.2949C118.478 41.2949 117.543 56.7796 118.309 65.5985C119.074 74.4188 118.303 86.6926 118.303 86.6926Z" fill="#2B478B"/>
<path d="M103.416 44.3898C101.575 44.1487 100.255 43.8936 100.255 43.8936C100.255 43.8936 99.2753 43.9786 99.8535 39.2013C100.293 35.5667 100.155 32.2833 100.058 28.9065C100.047 28.5316 100.055 28.087 100.079 27.5923C100.361 28.0382 103.503 33.0525 104.348 36.7791C104.964 39.4967 104.035 42.6993 103.416 44.3898Z" fill="#27437C"/>
<path d="M116.34 16.2539V16.2609C114.868 15.8943 113.483 15.6532 112.203 15.5069C111.073 16.9897 110.262 17.334 109.23 17.7367C107.569 17.5096 106.168 15.4874 106.168 15.4414C104.357 15.624 103.138 15.9529 102.641 16.1048C102.542 16.1159 97.2329 16.81 89.7178 31.9267C89.7178 31.9267 90.1225 33.319 92.094 35.7453C93.4958 37.4706 95.6929 39.7213 99.1001 42.3678C99.1001 42.3678 99.4216 41.6891 99.7149 40.5896C99.7149 40.5896 97.6899 36.6943 96.47 34.0576C95.8777 32.774 95.4744 31.7887 95.59 31.694C95.81 31.5142 98.2596 29.4112 100.069 27.8587C100.055 28.2475 100.051 28.6001 100.059 28.9067C100.158 32.2835 100.295 35.5655 99.8546 39.2015C99.275 43.9789 100.256 43.8939 100.256 43.8939C100.256 43.8939 101.576 44.1489 103.417 44.39C105.082 44.6102 107.172 44.8192 109.096 44.8192C113.508 44.8192 118.344 43.8939 118.344 43.8939C119.736 43.9106 117.954 35.3341 117.694 30.1735C117.633 28.975 117.577 27.881 117.525 26.8818C119.188 28.3088 122.871 31.471 123.143 31.6954C123.259 31.7901 122.856 32.7754 122.263 34.059C121.043 36.6957 119.018 40.5909 119.018 40.5909C119.312 41.6905 119.633 42.3692 119.633 42.3692C123.04 39.7241 125.237 37.4734 126.639 35.7467C128.611 33.319 129.015 31.9281 129.015 31.9281C121.43 16.6678 116.342 16.2553 116.342 16.2553L116.34 16.2539Z" fill="#2F5196"/>
<path d="M110.306 65.5983C110.314 63.7741 109.75 59.2796 109.096 54.6987C109.775 51.9616 111.43 49.3276 111.43 49.3276C113.524 55.1307 110.306 65.5997 110.306 65.5997V65.5983Z" fill="#233862"/>
<path d="M99.3097 40.782C99.3097 40.782 101.149 39.0999 101.897 40.042C102.646 40.9841 102.783 42.4641 102.203 42.3638C101.625 42.262 100.434 41.7241 100.263 41.9931C100.092 42.262 99.3308 42.7763 99.0981 42.368C98.8668 41.9596 99.3097 40.782 99.3097 40.782Z" fill="#FFB27D"/>
<path d="M99.7137 40.5895C99.4204 41.6891 99.0988 42.3678 99.0988 42.3678C95.6917 39.7227 93.4946 37.472 92.0928 35.7452C93.149 35.6672 94.6933 35.2937 96.4687 34.0562C97.6886 36.6929 99.7137 40.5881 99.7137 40.5881V40.5895Z" fill="#FFB27D"/>
<path d="M119.422 40.782C119.422 40.782 117.583 39.0999 116.834 40.042C116.085 40.9841 115.948 42.4641 116.528 42.3638C117.106 42.262 118.298 41.7241 118.468 41.9931C118.639 42.262 119.401 42.7763 119.633 42.368C119.865 41.9596 119.422 40.782 119.422 40.782Z" fill="#FFB27D"/>
<path d="M119.017 40.5895C119.31 41.6891 119.631 42.3678 119.631 42.3678C123.039 39.7227 125.236 37.472 126.638 35.7452C125.581 35.6672 124.037 35.2937 122.262 34.0562C121.042 36.6929 119.017 40.5881 119.017 40.5881V40.5895Z" fill="#FFB27D"/>
<path d="M123.142 31.6939C122.87 31.4695 119.161 28.285 117.507 26.8649C117.507 26.8649 119.158 25.6413 120.179 27.4252C121.2 29.209 123.142 31.6939 123.142 31.6939Z" fill="#2B478B"/>
<path d="M129.014 31.9268C129.014 31.9268 128.61 33.319 126.638 35.7453C124.356 35.7147 129.014 31.9268 129.014 31.9268Z" fill="#2B478B"/>
<path d="M106.337 14.6724C106.337 14.6724 105.797 14.8953 105.644 15.5002C105.644 15.5002 107.811 17.7035 109.23 17.737L106.337 14.6724Z" fill="#EE9849"/>
<path d="M109.229 17.7366L112.027 14.5605C112.027 14.5605 112.606 14.9368 112.597 15.5542C112.597 15.5542 110.432 17.8216 109.229 17.7366Z" fill="#EE9849"/>
<path d="M108.727 17.5026C108.727 17.5026 106.592 35.7202 107.335 37.9402C107.717 39.083 108.23 40.0725 108.638 40.7623C108.931 41.2585 109.657 41.2571 109.948 40.7595C110.515 39.7868 111.257 38.3792 111.257 37.6643C111.257 36.5062 109.636 17.4858 109.636 17.4858L108.728 17.5012L108.727 17.5026Z" fill="#EE9849"/>
<path d="M108.166 16.6094C108.166 16.6094 109.456 16.4812 110.242 16.5606C110.397 16.576 110.485 16.7446 110.408 16.8798C110.188 17.2714 109.739 17.9501 109.269 17.9501C108.609 17.9501 107.579 16.654 108.165 16.6094H108.166Z" fill="#E58638"/>
<path d="M129.032 8.48863C129.032 8.48863 127.834 5.12161 127.769 4.2464C127.704 3.3712 128.103 0.848724 131.053 0.579752C134.004 0.310781 135.101 0 135.101 0L134.539 0.656401C134.539 0.656401 135.36 0.404155 136.213 0.958821C137.067 1.51349 137.501 3.15379 137.374 4.56694C137.246 5.98008 136.129 7.53538 136.113 8.11931C136.098 8.70325 129.032 8.48863 129.032 8.48863Z" fill="#233862"/>
<path d="M120.987 43.4257C120.987 43.4257 120.92 44.195 120.107 45.8674C120.107 45.8674 119.735 47.0046 122.172 48.7104C124.609 50.4162 122.24 43.4243 122.24 43.4243H120.987V43.4257Z" fill="#D9935C"/>
<path d="M129.588 13.7075C129.588 13.7075 128.222 20.9405 126.73 28.4954C125.11 36.7081 123.342 45.3012 123.025 45.4057C122.416 45.6064 121.484 44.8204 121.078 43.817C120.752 43.0101 120.191 36.375 120.573 32.0882C120.666 31.0415 120.773 30.1831 120.893 29.6507C121.502 26.9415 121.687 17.3561 123.515 15.8495C125.342 14.3444 129.588 13.7089 129.588 13.7089V13.7075Z" fill="#D9935C"/>
<path d="M129.588 13.7075C129.588 13.7075 128.8 17.8759 127.769 23.1884C127.442 24.8747 127.089 26.6753 126.73 28.4954C125.269 31.3258 124.015 33.2491 123.627 32.8881C122.838 32.1509 121.45 32.0603 120.571 32.0868C120.664 31.0402 120.772 30.1817 120.891 29.6493C120.939 29.4347 120.984 29.1783 121.028 28.8856C121.539 25.4768 121.829 17.2348 123.513 15.8481C125.341 14.343 129.587 13.7075 129.587 13.7075H129.588Z" fill="#739AF0"/>
<path d="M127.769 23.1888C127.442 24.8751 127.089 26.6757 126.73 28.4958C125.269 31.3262 124.015 33.2495 123.627 32.8885C122.838 32.1513 121.45 32.0607 120.571 32.0872C120.664 31.0406 120.772 30.1821 120.891 29.6497C120.939 29.4351 120.984 29.1787 121.028 28.886L125.408 18.4365L127.766 23.1888H127.769Z" fill="#4A75CB"/>
<path d="M135.652 13.6021C135.685 12.143 135.661 10.4023 135.46 8.93066L129.568 9.88252C129.568 9.88252 129.568 11.6594 129.594 13.63C129.59 13.63 129.588 13.63 129.588 13.63C129.588 13.63 129.427 15.4584 131.706 15.726C133.985 15.9936 135.713 15.0125 135.651 13.6007L135.652 13.6021Z" fill="#D9935C"/>
<path d="M129.551 10.2407C129.551 10.2407 130.939 13.0503 132.53 13.0503C134.12 13.0503 135.61 10.408 135.61 10.408L129.55 10.2407H129.551Z" fill="#CB7D45"/>
<path d="M133.479 90.7843C133.479 90.7843 133.693 89.1343 134.19 88.1531C134.686 87.172 137.845 87.7964 137.845 87.7964C137.845 87.7964 138.477 88.3315 138.612 90.8289L133.478 90.7843H133.479Z" fill="#233862"/>
<path d="M122.715 90.7619C123.457 90.3145 123.035 86.974 123.035 86.974C123.035 86.974 119.576 84.2397 119.1 86.3329C118.625 88.4261 115.814 89.3668 114.214 89.6233C113.11 89.8003 112.767 90.4051 112.661 90.7619H122.715Z" fill="#233862"/>
<path d="M129.743 10.4481C130.316 10.8927 131.994 11.3359 132.479 11.3875C132.479 11.3875 134.968 10.8384 135.421 10.5694C136.122 10.1499 136.077 9.29979 136.112 8.11938C136.156 6.72157 136.298 5.62338 136.14 4.81786C135.953 3.85347 135.334 3.30577 133.602 3.15665C130.422 2.88349 129.098 3.6709 129.043 4.72449C129.028 5.00739 129.014 5.27637 129.006 5.5328C128.879 8.81759 129.141 9.98267 129.743 10.4509V10.4481Z" fill="#D9935C"/>
<path d="M129.88 65.9372C129.739 66.7037 129.65 67.3323 129.626 67.7838C129.305 73.9827 124.346 88.1559 123.459 88.4862C122.087 88.9977 119.925 87.9107 118.796 87.5539C118.328 87.4062 118.01 86.9393 118.115 86.4655C120.57 75.3094 121.472 59.245 121.801 49.7348C121.967 44.9449 122.799 41.635 122.799 41.635C122.799 41.635 134.894 38.4464 134.966 42.4796C135.029 46.0487 130.959 60.0477 129.882 65.9358L129.88 65.9372Z" fill="#2B478B"/>
<path d="M129.88 65.9372L121.801 49.7348C121.967 44.9449 122.799 41.635 122.799 41.635C122.799 41.635 134.893 38.4464 134.965 42.4796C135.029 46.0487 130.959 60.0477 129.881 65.9358L129.88 65.9372Z" fill="#233862"/>
<path d="M127.19 42.4946L133.583 88.2853C133.583 88.2853 136.39 88.9542 138.573 88.4191C138.573 88.4191 140.445 64.0653 140.29 58.1772C140.133 52.2891 141.634 42.4222 139.947 41.3351C138.262 40.2467 127.188 42.4946 127.188 42.4946H127.19Z" fill="#2B478B"/>
<path d="M140.866 41.3353C140.887 41.8663 140.461 42.3081 139.925 42.3165L129.85 42.4684L122.451 42.5799C122.104 42.5854 123.199 39.8456 123.222 21.9819C123.228 17.9962 129.472 13.7065 129.588 13.7065C129.588 14.2821 130.503 15.3413 131.913 15.4333C133.587 15.542 135.641 14.7183 135.641 13.7665C135.641 13.7553 135.835 13.9644 136.147 14.4131C136.983 15.6158 138.666 18.5494 139.74 23.6557C140.589 27.6875 140.262 33.0795 140.873 40.0351C140.918 40.5382 140.851 40.9842 140.864 41.3353H140.866Z" fill="#FFA412"/>
<path d="M140.493 42.3718C140.493 42.3718 139.154 42.9641 136.649 43.4783C134.786 43.8602 132.28 44.1988 129.201 44.2184C124.305 44.249 122.451 42.5808 122.451 42.5808C122.104 42.5864 123.199 39.8465 123.222 21.9829C123.228 17.9971 129.472 13.7075 129.588 13.7075C129.588 13.7075 129.427 19.0173 131.052 20.5781C131.052 20.5781 133.331 18.8389 136.288 13.8873C137.123 15.09 138.666 18.549 139.74 23.6553C139.959 24.6949 140.098 25.8224 140.198 27.046C140.483 30.5691 140.42 34.8713 140.874 40.0361C140.919 40.5392 140.853 40.9851 140.866 41.3363C140.887 41.8673 141.031 42.3648 140.493 42.3732V42.3718Z" fill="#739AF0"/>
<path d="M140.493 42.3721C140.493 42.3721 139.154 42.9644 136.649 43.4787C135.861 42.2913 134.868 40.1479 134.73 36.7697C134.497 31.0572 139.989 23.7002 139.989 23.7002L140.197 27.0449C140.482 30.568 140.419 34.8702 140.873 40.035C140.918 40.5381 140.852 40.984 140.864 41.3352C140.886 41.8662 141.029 42.3637 140.492 42.3721H140.493Z" fill="#4A75CB"/>
<path d="M135.739 23.0282L126.379 28.3687L133.792 41.057L143.152 35.7166L135.739 23.0282Z" fill="#2B478B"/>
<path d="M144.616 34.895C144.616 34.895 142.7 35.0804 139.422 34.7473C137.059 34.5076 133.986 33.9975 130.415 32.9551L131.459 31.1935C131.459 31.1935 135.726 31.0082 138.853 30.5552C139.631 30.4423 140.339 30.3141 140.892 30.1678C141.571 29.988 138.198 21.5384 136.496 16.5687C136.09 15.3827 135.778 14.396 135.641 13.7661C135.641 13.7661 135.939 13.8135 136.406 13.9041C137.73 14.1619 140.424 14.7695 141.57 15.6266C143.12 16.7847 146.99 29.8473 144.616 34.895Z" fill="#D9935C"/>
<path d="M131.497 31.1924C131.497 31.1924 130.052 29.8545 129.492 29.8545C128.932 29.8545 127.323 30.4342 127.158 30.8802C126.995 31.3262 126.928 32.1289 127.388 32.3073C127.848 32.4857 129.754 32.9316 130.247 32.9762C130.74 33.0208 131.956 32.7532 131.496 31.1924H131.497Z" fill="#D9935C"/>
<path d="M144.616 34.8953C144.616 34.8953 142.699 35.0807 139.422 34.7476C139.602 33.8682 139.77 32.1499 138.852 30.5556C139.63 30.4427 140.338 30.3145 140.891 30.1681C141.571 29.9884 138.198 21.5387 136.495 16.569C136.359 14.9622 136.288 13.8877 136.288 13.8877L136.405 13.9058C137.729 14.1636 140.423 14.7713 141.569 15.6283C143.119 16.7865 146.989 29.849 144.616 34.8967V34.8953Z" fill="#739AF0"/>
<path d="M131.054 20.5773C131.054 20.5773 135.613 18.5928 135.679 18.4367C135.747 18.2806 135.454 17.0765 135.138 16.7197C135.138 16.7197 137.326 16.9204 137.462 16.6528C137.597 16.3853 137.642 14.1554 137.642 14.1554C137.642 14.1554 136.785 13.2635 135.657 13.1743C135.657 13.1743 134.668 15.5951 134.303 16.3184C133.333 18.236 131.054 20.5787 131.054 20.5787V20.5773Z" fill="#4A75CB"/>
<path d="M129.969 16.6527C129.969 16.6527 130.262 18.9717 131.052 20.5772C131.052 20.5772 128.672 18.9383 128.469 18.4031C128.266 17.868 129.044 16.8311 129.044 16.8311C129.044 16.8311 127.622 16.7977 127.589 16.3294C127.555 15.8611 128.029 14.0215 128.029 14.0215C128.029 14.0215 129.251 13.1394 129.59 13.1728L129.969 16.6527Z" fill="#4A75CB"/>
<path d="M128.977 6.58335C128.977 6.58335 129.1 4.49012 130.416 4.46503C131.73 4.43994 134.018 4.31312 134.968 3.42956C135.919 2.54739 129.32 2.95015 129.32 2.95015C129.32 2.95015 128.522 5.47263 128.977 6.58335Z" fill="#233862"/>
<path d="M134.258 3.7418C134.258 3.7418 135.971 4.43164 136.212 5.50753C136.212 5.50753 136.776 1.53707 134.258 3.7418Z" fill="#233862"/>
<path d="M84.2207 80.124L85.6408 86.0344L87.7675 86.0233L87.845 80.124H84.2207Z" fill="#FFB27D"/>
<path d="M102.112 80.3763L106.153 86.0344L107.728 84.036L105.297 79.5986L102.112 80.3763Z" fill="#FFB27D"/>
<path d="M87.5886 6.32574C86.7862 6.06513 85.9146 6.19194 85.3181 6.34803C85.4408 6.1585 85.7355 6.04004 85.7355 6.04004C85.3505 6.05955 84.5904 6.59331 84.5904 6.59331C78.9819 5.64843 79.7082 13.3845 80.1764 15.1224C80.6432 16.8602 78.9029 17.8051 76.4787 19.7297C71.8517 23.4033 72.1211 27.0365 72.1211 27.0365C72.1662 27.0519 72.2142 27.07 72.2649 27.0923C72.4342 26.6115 72.7966 25.7014 73.2169 25.491C73.2084 25.5328 72.9179 26.7049 72.853 27.3571C74.6116 28.1988 77.9806 30.1694 80.3343 31.5742C80.2539 31.2244 80.1665 30.7213 80.2427 30.4328L80.7856 31.8446C82.0464 32.5985 82.9179 33.1323 82.9179 33.1323C82.4962 31.7373 87.6041 22.9114 90.6093 19.975C91.2016 18.58 91.0592 16.3543 91.0479 16.1787C91.2524 17.9263 91.1523 18.9493 90.9971 19.5444C93.3861 16.293 89.7181 7.01977 87.5914 6.32852L87.5886 6.32574Z" fill="#163560"/>
<path d="M89.808 20.5587C89.8264 20.5671 88.1017 21.4506 86.8056 21.1008C85.5858 20.7719 84.789 19.2097 84.8059 19.2069C85.3221 19.1051 85.4716 18.4042 85.4603 15.3911L85.6944 15.4371L89.6205 16.205C89.6205 16.205 89.5316 17.4258 89.5288 18.5756C89.526 19.5414 89.5852 20.457 89.8095 20.5601L89.808 20.5587Z" fill="#FFB27D"/>
<path d="M83.5098 8.42882C83.5098 8.42882 85.0004 6.05407 87.7701 7.47418C87.7701 7.47418 86.3345 7.51321 83.5098 8.42882Z" fill="#5FABB7"/>
<path d="M89.619 16.2024C89.619 16.2024 89.5302 17.4232 89.5274 18.573C87.3302 18.5116 86.1696 16.5313 85.6943 15.4331L89.6204 16.201L89.619 16.2024Z" fill="#EF9E67"/>
<path d="M84.8863 15.5713C84.8863 15.5713 83.3985 14.0341 82.8203 12.5819C82.4071 11.5451 82.1491 7.44638 86.3205 7.21364C86.3205 7.21364 87.5221 7.09379 88.7786 7.61222C89.7784 8.02474 91.3071 9.0393 90.5964 12.8021L90.4666 14.0508L84.8849 15.5713H84.8863Z" fill="#163560"/>
<path d="M107.35 82.7445C107.35 82.7445 106.307 82.9229 105.451 82.987C105.26 83.0009 105.08 83.0093 104.922 83.0093C104.51 83.0093 103.767 82.856 103.268 82.7403L103.229 82.732C103.011 82.6804 102.843 82.6386 102.781 82.6233L102.754 82.6163C102.754 82.6163 97.5504 76.8926 94.6326 67.7169C94.5649 67.5023 94.493 67.2877 94.4169 67.0689C92.8191 62.4657 89.5078 56.6905 87.7634 51.4616C87.4855 50.6296 87.2359 49.845 87.0131 49.1036C86.9412 48.8666 86.8721 48.6325 86.8058 48.4026C85.5197 43.9875 85.1474 41.0888 84.8047 37.9907L95.2955 40.6289C95.2955 40.6289 99.6996 59.4973 107.35 82.7445Z" fill="#A53D38"/>
<path d="M90.3063 16.8158C90.3063 16.8158 85.228 17.9139 84.585 14.7783C83.9419 11.6426 82.8532 9.67337 86.0685 8.83859C89.2839 8.00519 90.1611 9.0755 90.6335 10.0706C91.1059 11.0656 91.6108 16.4492 90.3063 16.8158Z" fill="#FFB27D"/>
<path d="M88.3731 8.30046C88.3731 8.30046 87.7287 12.2584 85.6993 13.2284C83.67 14.1983 82.625 13.8165 82.625 13.8165C82.625 13.8165 84.0042 12.1999 83.8858 9.88224C83.8858 9.88224 86.9643 6.7591 88.3731 8.30046Z" fill="#163560"/>
<path d="M88.0873 8.66841C88.0873 8.66841 89.2973 9.28161 89.7133 10.03C90.1308 10.7784 90.5792 12.3992 91.0531 12.2473C91.0531 12.2473 91.5932 9.53665 90.1237 8.35763C88.5654 7.10754 88.0859 8.66841 88.0859 8.66841H88.0873Z" fill="#163560"/>
<path d="M85.5695 85.7046C85.5695 85.7046 85.7402 86.8752 85.2987 88.1281C85.2987 88.1281 84.9504 89.696 86.513 89.7252C88.0755 89.7545 88.4591 89.6082 88.2814 88.6479C88.1051 87.6863 87.7681 86.0237 87.7681 86.0237L85.5695 85.7046Z" fill="#FFB27D"/>
<path d="M85.2987 88.1279C85.2987 88.1279 85.0096 89.6079 85.1859 90.3953C85.1859 90.3953 85.6569 90.7451 86.7921 90.7451C87.8682 90.7451 88.428 90.3953 88.428 90.3953C88.428 90.3953 88.4619 88.7731 88.1742 88.0889C88.1742 88.0889 87.0671 89.7306 85.2987 88.1293V88.1279Z" fill="#C45446"/>
<path d="M111.493 88.8038C111.493 88.8038 108.614 85.6444 107.728 84.0361L105.586 85.1204L110.374 89.5633L111.493 89.4183V88.8038Z" fill="#FFB27D"/>
<path d="M113.323 90.6557C113.323 90.6557 110.228 90.6557 109.697 90.5972C109.167 90.54 108.74 89.7819 108.164 88.6461C107.929 88.1806 107.401 87.9256 106.86 87.7848V90.416H106.042L105.268 87.619C104.757 86.6922 105.227 85.8532 105.586 85.1216C106.004 85.1216 107.126 85.4031 109.254 87.7723C109.954 88.5499 110.727 88.8286 111.493 88.805C111.504 88.8119 111.514 88.8175 111.525 88.8217C113.293 89.6077 113.323 90.6571 113.323 90.6571V90.6557Z" fill="#C45446"/>
<path d="M105.449 82.9869C105.259 83.0009 105.079 83.0092 104.921 83.0092C104.509 83.0092 103.766 82.8559 103.266 82.7403L103.228 82.7319L102.78 82.6232L102.753 82.6162C102.753 82.6162 97.5493 76.8926 94.6315 67.7169C94.5638 67.5023 94.4919 67.2876 94.4158 67.0688C92.8179 62.4657 89.5067 56.6904 87.7622 51.4615C87.4844 50.6295 87.2348 49.8449 87.012 49.1035C86.9401 48.8666 86.871 48.6325 86.8047 48.4025L88.6592 47.0103C88.6592 47.0103 94.2296 55.9239 95.9543 64.3122C97.3843 71.2651 103.539 80.2805 105.448 82.9855L105.449 82.9869Z" fill="#912F2F"/>
<path d="M88.8544 65.0953C88.8855 69.1744 88.6768 78.5522 88.1395 82.4363C88.1395 82.4363 87.6304 82.8822 86.3654 82.8878C85.0708 82.8934 84.4912 82.4209 84.4912 82.4209C83.1416 75.6702 82.1826 70.0845 81.4845 65.2709C80.912 61.3213 80.4015 57.9348 80.0108 55.0193C79.6639 52.4355 79.4087 50.2224 79.286 48.3131C79.2705 48.0539 79.2549 47.8003 79.2437 47.5536C79.2282 47.2261 79.2169 46.9083 79.2112 46.6004C79.2056 46.2896 79.2042 45.9885 79.2056 45.6959L79.2507 45.6917L81.8568 45.4409L90.0912 44.6465C89.9544 51.7944 88.8361 62.7261 88.853 65.0967L88.8544 65.0953Z" fill="#A53D38"/>
<path d="M86.3663 82.8865C85.2649 82.9493 84.4921 82.4197 84.4921 82.4197C83.1425 75.6689 82.1835 70.0832 81.4854 65.2696C80.9129 61.32 80.4024 57.9335 80.0117 55.018C79.6648 52.4342 79.4096 50.2211 79.2869 48.3119C79.2728 47.3712 79.2615 46.4709 79.2516 45.689C79.2403 44.8975 79.2276 44.2271 79.2051 43.7603L81.8577 45.4382L84.6486 47.2025C84.6486 47.2025 80.6887 50.7619 81.6617 57.4917C82.6334 64.2216 85.011 81.9347 86.3649 82.8865H86.3663Z" fill="#912F2F"/>
<path d="M88.5234 19.0745C88.5234 19.0745 92.7556 18.4111 94.1757 19.8075C95.9159 21.5189 99.1848 31.3301 99.0551 32.4506C99.0057 32.8784 97.2881 32.6791 96.6986 32.0687C93.7639 29.0278 89.5557 21.3517 88.5234 19.0745Z" fill="#BC3F3F"/>
<path d="M96.7441 46.4707C93.5852 47.2818 78.844 48.8831 78.7171 45.2346C78.686 44.344 78.7171 43.2695 78.789 42.1059C79.009 38.5019 79.6069 34.0479 79.8946 31.5979C80.0258 30.4746 79.5886 25.4436 79.9242 22.7023C79.9736 22.2967 80.0399 21.94 80.1273 21.6543C80.7633 19.5847 83.6247 19.0245 85.0942 18.9743L89.5251 18.8252C89.5251 18.8252 94.1014 23.8771 94.7388 25.4296C95.3762 26.9821 95.5835 32.2947 96.0785 34.8673C96.5735 37.44 98.2813 46.0763 96.7456 46.4707H96.7441Z" fill="#BC3F3F"/>
<path d="M88.0378 34.1397C88.0378 34.1397 85.5742 41.6179 78.7881 42.1057C79.0081 38.5018 79.606 34.0477 79.8937 31.5977C80.0249 30.4744 79.5877 25.4434 79.9233 22.7021C80.0122 22.7203 80.0911 22.769 80.1842 22.7872C87.6571 24.2128 88.7176 32.5816 88.0392 34.1411L88.0378 34.1397Z" fill="#A53D38"/>
<path d="M98.8419 32.6347C98.8419 32.6347 94.394 34.0758 88.9731 31.7637C88.9731 31.7637 87.4966 31.6258 86.7646 31.8097C86.7646 31.8097 86.9226 30.3631 87.639 29.9687C88.3554 29.5757 91.4368 30.4272 92.3577 30.3018C94.3715 30.0287 97.8787 29.814 98.8419 32.6347Z" fill="#EF9E67"/>
<path d="M94.8769 29.2675C94.8769 29.2675 95.2944 25.6956 93.8799 23.541C93.8799 23.541 94.3791 23.3738 94.7387 23.9326C95.0969 24.4915 97.5959 29.7984 96.4056 30.19C95.2154 30.5803 94.8769 29.2675 94.8769 29.2675Z" fill="#A53D38"/>
<path d="M88.3822 29.8643C88.3188 29.8643 86.281 30.1277 85.9199 30.3785C85.5589 30.6308 85.8776 31.5115 86.5574 31.5951C87.2371 31.6788 88.3822 29.8643 88.3822 29.8643Z" fill="#EF9E67"/>
<path d="M82.8135 31.2186C82.8135 31.2186 88.6166 31.0096 93.8796 30.002C93.8796 30.002 94.8414 30.0103 94.7286 30.8409C94.6158 31.6715 85.6057 36.3193 83.6244 35.4246L82.8135 31.2186Z" fill="#FFB27D"/>
<path d="M93.8799 30.002C93.8799 30.002 94.4961 29.2676 94.8769 29.2676C95.2577 29.2676 96.2561 29.7498 96.4056 30.1902C96.5537 30.6306 95.2252 30.3156 94.7288 30.841C94.2324 31.365 93.8799 30.002 93.8799 30.002Z" fill="#FFB27D"/>
<path d="M85.0939 18.9741C85.0939 18.9741 80.2173 18.9853 79.5051 20.7162C78.2034 23.8755 82.4934 34.3599 83.6258 35.4232C84.1123 35.8803 86.3673 35.1598 86.3673 32.1398C86.3673 30.5733 86.2531 21.4241 85.0939 18.9741Z" fill="#BC3F3F"/>
<path d="M82.6232 45.4756C82.6232 45.4756 85.761 46.5473 85.3196 50.1192C85.3196 50.1192 85.0305 51.5686 84.1265 50.9261C83.2225 50.2836 83.647 50.4021 82.3567 49.5227C81.0663 48.6433 80.2244 47.258 80.371 46.1571L82.6232 45.477V45.4756Z" fill="#FFB27D"/>
<path d="M82.7675 45.7054L80.9088 47.9338C80.8228 48.0384 80.686 48.0857 80.552 48.0607C78.8104 47.7443 72.8141 43.9257 70.8496 42.3663C70.6367 42.1976 70.4717 42.0555 70.3645 41.9468C69.6326 41.2096 67.1068 37.5708 65.3144 34.3306C64.2821 32.4645 63.4938 30.7308 63.4317 29.7595C63.2089 26.2907 65.0549 21.4395 65.0549 21.4395C70.5168 23.3181 71.0908 27.6272 71.0908 27.6272L74.1185 38.7637L82.6942 45.0978C82.8902 45.2427 82.9227 45.5187 82.7689 45.704L82.7675 45.7054Z" fill="#739AF0"/>
<path d="M70.8476 42.3665C70.6346 42.1979 70.4696 42.0558 70.3624 41.9471C69.6305 41.2098 67.1048 37.571 65.3124 34.3308C65.0797 32.3728 65.239 30.536 66.0556 29.2524C66.0556 29.2524 70.6981 37.3258 70.8476 42.3665Z" fill="#4A82D3"/>
<path d="M67.7016 74.4522L66.7737 78.2777L66.1997 80.6455L64.2874 88.5279C64.2874 88.5279 62.6501 89.0268 60.948 88.5279C60.948 88.5279 60.3176 85.919 60.2993 82.6649C60.2894 80.9632 60.4473 79.0846 60.9508 77.3105C61.1553 76.5886 61.4176 75.8848 61.7476 75.2173C64.4468 69.7696 67.7016 74.4494 67.7016 74.4494V74.4522Z" fill="#FFB27D"/>
<path d="M69.2862 90.8329H60.2974C60.2974 90.8329 60.1549 89.488 60.5512 88.2031C60.609 88.0122 60.6796 87.8226 60.7642 87.6387C60.7642 87.6387 62.7709 88.0888 64.5013 87.6387C64.5013 87.6387 66.1287 89.0086 67.1116 89.4281C68.0946 89.849 69.1819 89.6204 69.2848 90.8343L69.2862 90.8329Z" fill="#2B478B"/>
<path d="M66.7737 78.2778L66.1997 80.6456C65.2224 81.2616 63.1141 82.3779 60.2993 82.6664C60.2894 80.9647 60.4473 79.0861 60.9508 77.312C61.7772 76.8981 62.6191 76.6807 63.3355 76.8047C65.1195 77.1127 66.18 77.7566 66.7737 78.2778Z" fill="#E8945B"/>
<path d="M64.6174 90.8329H60.2964C60.2964 90.8329 60.154 89.4881 60.5502 88.2031C61.6347 88.5362 63.8417 89.3738 64.6174 90.8329Z" fill="#1F396D"/>
<path d="M60.5366 74.4522L59.6086 78.2777L59.0347 80.6455L57.1224 88.5279C57.1224 88.5279 55.4851 89.0268 53.7829 88.5279C53.7829 88.5279 53.1526 85.919 53.1342 82.6649C53.1243 80.9632 53.2823 79.0846 53.7857 77.3105C53.9902 76.5886 54.2525 75.8848 54.5825 75.2173C57.2817 69.7696 60.5366 74.4494 60.5366 74.4494V74.4522Z" fill="#FFB27D"/>
<path d="M53.5995 87.6372C53.5995 87.6372 55.6063 88.0874 57.3367 87.6372C57.3367 87.6372 58.9641 89.0071 59.947 89.4266C60.93 89.8461 62.0173 89.619 62.1202 90.8328H53.1313C53.1313 90.8328 52.9438 89.0601 53.5981 87.6372H53.5995Z" fill="#2B478B"/>
<path d="M59.6067 78.2778L59.0327 80.6456C58.0554 81.2616 55.9471 82.3779 53.1323 82.6664C53.1224 80.9647 53.2803 79.0861 53.7838 77.312C54.6102 76.8981 55.4521 76.6807 56.1685 76.8047C57.9525 77.1127 59.013 77.7566 59.6067 78.2778Z" fill="#E8945B"/>
<path d="M69.5771 78.0243C69.3613 78.8131 68.6365 79.3622 67.8087 79.3622H53.3946C52.3087 79.3622 51.4541 78.4493 51.5373 77.3818C51.6882 75.4419 52.2283 72.2727 52.4653 70.1335C52.5626 69.2444 52.6077 68.5336 52.5513 68.1615C51.0959 58.6486 49.8747 47.4424 50.0241 45.3003C50.0453 44.9993 50.0594 44.8432 50.0594 44.8432C50.0594 44.8432 51.1086 44.7554 52.7064 44.6941C57.3489 44.5129 66.6142 44.545 68.1542 47.5441C69.7224 50.6003 70.67 70.8903 70.67 70.8903C70.8985 72.7856 70.089 76.1582 69.5785 78.0257L69.5771 78.0243Z" fill="#C65447"/>
<path d="M52.4653 70.1318C52.5626 69.2427 52.6077 68.5319 52.5513 68.1598C51.0959 58.6468 49.8747 47.4406 50.0241 45.2986C50.0453 44.9976 50.0594 44.8415 50.0594 44.8415C50.0594 44.8415 51.1086 44.7537 52.7064 44.6924C55.108 46.0902 56.6706 48.4719 56.6706 48.4719C56.6706 48.4719 56.1869 66.2756 52.4653 70.1318Z" fill="#B2443B"/>
<path d="M59.5957 7.322C59.5957 6.26702 60.2642 5.36952 61.4163 5.65382C62.4528 5.91025 63.4654 5.8991 63.4654 6.95408C63.4654 8.00906 62.5995 9.23267 61.5306 9.23267C60.4616 9.23267 59.5957 8.37698 59.5957 7.3206V7.322Z" fill="#B2443B"/>
<path d="M60.8205 16.6006C60.8205 16.6006 54.8214 11.2616 60.2522 7.4821C60.2522 7.4821 61.8726 7.05564 62.6962 7.20755C62.6962 7.20755 65.6478 6.35464 67.3753 8.335C69.1029 10.3167 69.8531 11.7494 68.3724 13.5165C66.8916 15.2851 60.8205 16.5993 60.8205 16.5993V16.6006Z" fill="#C65447"/>
<path d="M53.9394 48.8441C53.9394 48.8441 55.4202 51.7805 52.5743 54.0242C52.5743 54.0242 51.3404 54.859 51.1514 53.7748C50.9624 52.6905 51.181 53.0682 50.882 51.5477C50.5845 50.0273 50.9652 48.4553 51.8509 47.771L53.9408 48.8441H53.9394Z" fill="#FFB27D"/>
<path d="M65.7362 16.5522C65.7362 16.5522 65.6629 17.3522 65.5247 18.4323C65.4584 18.9604 65.3766 19.5555 65.2807 20.1576C65.213 20.5896 65.1369 21.0258 65.0537 21.4425L63.1964 27.6414L58.8359 20.6676C58.8359 20.6676 59.8612 19.8301 61.2503 15.2882C61.263 15.2394 61.2728 15.2144 61.2728 15.2144L65.7376 16.555L65.7362 16.5522Z" fill="#FFB27D"/>
<path d="M68.2753 47.1311C68.3318 47.8279 68.1541 47.9548 68.1541 47.9548C68.1541 47.9548 65.4732 48.915 58.7294 48.5833C57.9989 48.5471 57.3122 48.5108 56.6705 48.4732C52.3241 48.2196 50.0001 47.9548 50.0001 47.9548C50.0001 47.9548 46.4406 39.8355 53.128 29.832C53.8839 28.7017 54.7709 27.545 55.8103 26.3757C56.8933 25.1549 57.1316 23.5216 57.542 21.9691C57.6591 21.5245 57.3206 21.4255 57.4898 21.0061C57.4898 21.0061 58.7097 20.666 58.8352 20.666C59.5276 21.2695 60.4415 22.4415 62.7091 22.6728C64.2421 22.8303 64.8428 21.9774 65.06 21.4646C65.6453 21.6736 66.2502 22.0332 66.7467 22.2687C70.8561 24.2184 71.2326 27.9993 71.2326 27.9993C71.2326 27.9993 67.456 40.2703 67.2219 41.8019C67.1175 42.4834 67.9834 43.5425 68.2768 47.1297L68.2753 47.1311Z" fill="#739AF0"/>
<path d="M65.5238 18.4322C65.4575 18.9604 65.2305 20.4042 65.1346 21.0062C60.5174 19.2266 61.121 15.7606 61.248 15.2868C61.2606 15.238 61.2705 15.2129 61.2705 15.2129C61.2705 15.2129 63.7145 16.9271 65.5238 18.4322Z" fill="#E8945B"/>
<path d="M66.5137 19.0455C66.5137 19.0455 61.1802 19.2142 61.1252 15.9308C61.0702 12.6474 60.3439 10.4566 63.7468 10.2099C67.1497 9.96321 67.8323 11.2049 68.1214 12.2975C68.4091 13.3888 67.9 18.9173 66.5137 19.0455Z" fill="#FFB27D"/>
<path d="M66.9794 9.71759C66.9794 9.71759 66.6452 15.2001 60.1426 14.612C60.1426 14.612 60.2808 7.01951 66.9794 9.71759Z" fill="#C65447"/>
<path d="M65.7354 10.2627C65.7354 10.2627 67.5574 12.4911 68.3838 13.2019C68.3838 13.2019 70.4103 10.3282 65.7354 10.2627Z" fill="#C65447"/>
<path d="M65.7354 10.2627C65.7354 10.2627 67.3726 12.9942 68.199 13.705C68.199 13.705 70.4103 10.3282 65.7354 10.2627Z" fill="#C65447"/>
<path d="M56.6705 48.4718C52.3241 48.2182 50.0001 47.9534 50.0001 47.9534C50.0001 47.9534 46.4406 39.8341 53.128 29.8306C54.4818 32.9495 57.6746 41.2849 56.6705 48.4718Z" fill="#4A82D3"/>
<path d="M58.834 20.6646C58.834 20.6646 53.674 21.7112 51.3753 24.341C49.6139 26.3562 47.6875 36.2105 47.6875 37.8397C47.6875 39.4689 49.4968 47.669 50.6278 49.255C50.7068 49.3651 50.8366 49.4264 50.9734 49.4124L53.8784 49.1072C54.121 49.0822 54.2931 48.862 54.255 48.6236L52.6219 38.1658L58.3531 28.1219C58.3531 28.1219 61.7321 24.164 58.834 20.6659V20.6646Z" fill="#739AF0"/>
<path d="M80.9694 88.001C80.9694 88.001 81.4065 88.8442 82.3754 89.0518C82.986 89.1828 83.5078 89.4964 83.8321 89.9368C84.1071 90.3089 83.8406 90.8315 83.3752 90.8315H78.4591C78.0403 90.8315 77.7145 90.4747 77.7554 90.0636C77.7921 89.704 77.8302 89.2845 77.8471 88.9626C77.8838 88.2616 78.5945 87.6958 78.5945 87.6958L80.9679 87.9996L80.9694 88.001Z" fill="#2C3A64"/>
<path d="M82.0818 75.7495C82.2877 79.444 81.7772 87.8393 81.7772 87.8393C81.7772 87.8393 81.4345 88.7758 79.2698 88.9988C78.1106 89.1186 77.067 88.8204 77.067 88.8204C76.6298 86.8331 76.2265 84.9335 75.8542 83.1302C73.1818 70.1749 72.1396 62.1741 72.1396 62.1741L82.6868 59.752C82.6868 59.752 82.2243 67.0657 82.0889 72.0522C82.0466 73.6089 82.0353 74.9384 82.0804 75.7495H82.0818Z" fill="#35488B"/>
<path d="M82.6888 59.752C82.6888 59.752 82.2262 67.0657 82.0908 72.0522L75.8562 83.1302C73.1838 70.1749 72.1416 62.1741 72.1416 62.1741L82.6888 59.752Z" fill="#2C3A64"/>
<path d="M72.0847 43.0017C72.0847 43.0017 68.0035 41.1663 64.9151 42.7717C61.8267 44.3772 63.715 57.6334 68.1304 58.9184C68.1304 58.9184 76.4029 61.5328 72.0833 43.0017H72.0847Z" fill="#35488B"/>
<path d="M83.8914 62.8432C83.8802 62.8251 83.8661 62.8083 83.852 62.7916C83.6827 62.538 83.3161 61.6279 83.3161 61.6279L82.6547 62.485C82.6377 62.5045 82.3754 62.3011 82.3613 62.3234L82.4262 64.5406L83.0848 64.3873C83.113 64.3804 83.1412 64.3706 83.1666 64.3581C83.247 64.3218 83.3175 64.2633 83.3668 64.1839L83.8985 63.3519C84.0014 63.1916 83.9916 62.9923 83.8914 62.8432Z" fill="#E8945B"/>
<path d="M80.8477 40.9419C80.8477 40.9419 82.1479 40.9447 82.9235 42.7508C84.5326 46.4927 83.8331 54.5716 83.7358 55.7284C83.7358 55.7284 84.2886 58.0251 83.4679 61.9969L82.3975 62.6241C82.3975 62.6241 80.7489 46.9303 80.9506 45.3792C81.1523 43.8281 80.8477 40.9433 80.8477 40.9433V40.9419Z" fill="#E8945B"/>
<path d="M72.4117 88.001C72.4117 88.001 72.8489 88.8442 73.8177 89.0518C74.4284 89.1828 74.9502 89.4964 75.2745 89.9368C75.5495 90.3089 75.283 90.8315 74.8176 90.8315H69.9015C69.4827 90.8315 69.1569 90.4747 69.1978 90.0636C69.2345 89.704 69.2725 89.2845 69.2895 88.9626C69.3261 88.2616 70.0369 87.6958 70.0369 87.6958L72.4103 87.9996L72.4117 88.001Z" fill="#2C3A64"/>
<path d="M75.8315 26.1362C74.7809 26.1362 73.4595 26.5835 72.7515 27.2636C71.9985 27.9869 71.2158 28.0231 70.6587 28.876C70.0777 29.7652 69.7167 30.6906 70.0086 31.942C70.3273 33.3092 70.2625 34.6318 71.1326 35.6352C71.5627 36.1327 72.2636 36.1884 72.7515 36.6442C73.6485 37.4817 74.6681 37.7479 75.8315 37.7479C78.0244 37.7479 79.3895 36.4644 80.5121 34.8645C81.4118 33.5823 81.2327 32.7183 81.4443 31.6215C82.1085 28.1709 79.1949 26.1348 75.8315 26.1348V26.1362Z" fill="#35488B"/>
<path d="M78.9199 40.049L74.7272 42.166L73.8867 39.2909C73.8867 39.2909 74.4212 38.2958 74.6623 36.6667C74.7639 35.981 74.8132 35.1839 74.7498 34.3003L78.1654 36.0284C78.1654 36.0284 78.0836 36.3406 78.03 36.8019C77.9722 37.2994 77.9454 37.9711 78.0892 38.608C78.2133 39.1557 78.4601 39.6783 78.9199 40.0476V40.049Z" fill="#FFB27D"/>
<path d="M69.2065 60.8764C69.2065 60.8764 68.4097 71.3175 68.5874 87.9575C68.5874 87.9575 69.5491 88.4578 70.7084 88.5707C72.8745 88.7839 73.4019 87.9352 73.4019 87.9352C73.4019 87.9352 75.616 79.8145 76.1702 76.1548C76.6807 72.7808 80.0315 60.6074 80.0315 60.6074L69.2065 60.8764Z" fill="#35488B"/>
<path d="M81.6913 40.3386C81.319 40.1658 80.1499 39.7031 78.3899 39.4174C78.4083 40.0125 78.2475 40.5686 77.1898 40.7051C75.7824 40.8863 74.5245 39.9372 73.887 39.292C73.887 39.292 72.8942 39.3965 71.7378 39.6474C71.1596 39.7728 70.5391 39.9345 69.9821 40.1393C69.3066 40.3846 68.7227 40.6912 68.4111 41.0689C67.328 42.3831 65.5469 46.3368 65.5469 46.3368C65.5469 46.3368 68.5126 47.4239 69.26 48.0566L69.277 48.1973L69.7409 52.0061L68.3589 59.5917C68.3476 59.6586 68.3406 59.7241 68.3406 59.7896C68.3406 60.2969 68.6917 60.7526 69.2064 60.8752C69.2064 60.8752 69.3249 60.8947 69.5435 60.9254C71.0087 61.1289 76.9571 61.8299 81.6208 60.5784C82.67 60.2969 83.361 59.3074 83.2736 58.2357L82.5135 48.8077C82.9196 48.7394 83.3878 48.6656 83.7686 48.6238C84.0845 48.5903 84.3397 48.5778 84.4455 48.6098C84.4455 48.6098 83.9181 41.2473 81.6913 40.3386Z" fill="#F99746"/>
<path d="M72.8903 54.3308C72.831 56.9773 71.0767 60.0879 69.5438 60.9255C69.3252 60.8962 69.2067 60.8753 69.2067 60.8753C68.6906 60.7527 68.3408 60.297 68.3408 59.7897C68.3408 59.7242 68.3479 59.6587 68.3592 59.5918L69.7412 52.0062L69.2772 48.1974C69.2998 48.1305 69.3111 48.0957 69.3111 48.0957C69.3111 48.0957 72.996 49.6538 72.8917 54.3308H72.8903Z" fill="#ED7D2B"/>
<path d="M83.7684 48.625C83.3777 48.6682 82.5118 48.8089 82.5118 48.8089L82.0732 44.8594C82.0732 44.8594 83.5399 47.6439 83.7698 48.625H83.7684Z" fill="#ED7D2B"/>
<path d="M68.6045 58.2385L68.9641 56.2679C75.0436 47.5758 75.5034 46.0164 72.7703 42.1142C71.9877 40.9965 70.5633 40.2983 69.9823 40.1394C70.5393 39.9345 71.1598 39.7729 71.738 39.6475C72.3148 39.915 72.8451 40.1784 73.2569 40.531C81.6012 47.6692 68.6045 58.2385 68.6045 58.2385Z" fill="#35488B"/>
<path d="M72.1883 49.991C72.3392 49.9799 72.9949 49.6552 72.9949 49.6552C72.9949 49.6552 73.3249 47.2456 75.704 47.0825C75.704 47.0825 76.6954 47.0881 76.4923 47.757C76.2892 48.426 76.2681 48.1361 76.003 49.0852C75.7378 50.0342 75.0454 50.7575 74.3093 50.8007L73.5548 51.0028C73.5548 51.0028 71.7906 50.0189 72.1883 49.9896V49.991Z" fill="#FFB27D"/>
<path d="M72.9947 49.6553C72.9947 49.6553 68.9994 50.0134 68.41 50.2726C68.41 50.2726 68.7343 49.4058 69.3111 48.0972C68.7907 47.5913 67.0787 46.8387 65.9449 46.4917C65.0804 48.6713 64.7476 50.8287 65.2327 52.908C65.2835 53.1282 65.4795 53.2843 65.7065 53.2954C66.9842 53.354 71.2262 53.333 74.3062 50.7743L72.9947 49.6553Z" fill="#FFB27D"/>
<path d="M78.0886 38.6093C76.1467 38.5577 74.6631 36.668 74.6631 36.668L78.0293 36.8031C77.9715 37.3007 77.9447 37.9724 78.0886 38.6093Z" fill="#E8945B"/>
<path d="M78.2731 37.4497C78.2731 37.4497 73.9818 37.9667 73.8901 34.9788C73.7984 31.9908 75.588 30.055 76.7811 30.0773C79.1616 30.1219 79.555 31.0724 79.8314 32.0619C80.1078 33.0514 80.2489 37.2392 78.2731 37.4497Z" fill="#FFB27D"/>
<path d="M77.125 35.7283C77.125 35.7283 77.2181 36.1004 78.1587 36.0321C78.1587 36.0321 78.9484 35.9749 78.9188 35.5638C78.9188 35.5638 78.1502 35.2809 77.125 35.7283Z" fill="white"/>
<path d="M77.844 30.1054C77.844 30.1054 74.176 30.1026 75.0193 32.5916C75.551 34.1594 73.784 34.4033 73.784 34.4033L72.9336 31.8892L73.4667 29.9312L77.844 30.1054Z" fill="#35488B"/>
<path d="M184.261 69.0452C183.634 70.6311 180.417 73.8992 177.101 76.9847C173.143 80.6709 169.043 84.0978 169.043 84.0978C169.043 84.0978 167.169 84.6636 167.987 81.9377C167.987 81.9377 172.507 73.732 174.447 71.3098C175.001 70.6186 175.575 69.9873 176.113 69.4368C177.454 68.0613 178.565 67.2 178.565 67.2C178.565 67.2 178.311 66.7958 177.898 66.0976C175.881 62.6846 170.091 52.2324 171.879 47.5916C174.033 42.0017 179.383 39.4834 179.383 39.4834C179.383 39.4834 181.081 46.5575 182.512 53.8295C183.83 60.5203 184.922 67.3784 184.262 69.0466L184.261 69.0452Z" fill="#F99746"/>
<path d="M182.51 53.828C181.525 58.3058 179.818 64.6412 177.896 66.0962C175.879 62.6832 170.089 52.2309 171.877 47.5901C174.031 42.0002 179.381 39.4819 179.381 39.4819C179.381 39.4819 181.079 46.556 182.51 53.828Z" fill="#ED7D2B"/>
<path d="M177.101 76.9835C173.143 80.6696 169.043 84.0966 169.043 84.0966C169.043 84.0966 167.169 84.6624 167.987 81.9365C167.987 81.9365 172.507 73.7307 174.447 71.3086C175.001 70.6173 175.575 69.986 176.113 69.4355C176.049 71.5302 176.11 75.0839 177.103 76.9835H177.101Z" fill="#ED7D2B"/>
<path d="M181.741 50.0373C181.741 50.0373 177.05 38.4046 177.299 38.0687C177.452 37.8583 177.75 31.5131 177.953 26.7441C178.077 23.8439 178.166 21.5249 178.166 21.5249C178.166 21.5249 180.245 22.2566 180.741 27.2527C180.837 28.2171 180.893 29.1244 180.927 29.9703C181.067 33.5157 180.804 36.0131 181.34 37.1935C182.005 38.6569 181.766 45.3351 181.971 46.0083C182.175 46.6814 183.231 48.3635 181.741 50.0373Z" fill="#FFB27D"/>
<path d="M178.032 42.2861L177.658 40.9231C175.025 42.0492 167.285 40.4033 167.285 40.4033C167.285 40.4033 164.977 43.1042 166.165 48.584C166.744 51.2583 168.795 62.6861 169.634 66.0323C169.937 67.2447 170.174 68.106 170.269 68.4488C170.269 68.4502 170.269 68.4516 170.27 68.4516C170.3 68.5561 170.277 68.6621 170.236 68.7638C169.879 69.6362 169.61 70.5295 169.415 71.4326C167.5 80.2989 172.746 90.0934 172.746 90.0934L173.643 89.5721C173.643 89.5721 173.993 77.7569 174.922 72.4221C175.08 71.5176 175.255 70.7985 175.447 70.3567C176.008 69.0676 176.402 67.0385 176.677 64.654C177.197 60.1455 177.29 54.3675 177.261 49.9218C177.348 49.9135 178.031 42.2861 178.031 42.2861H178.032Z" fill="#F99746"/>
<path d="M166.154 43.7309C165.083 42.1296 168.756 35.5907 168.626 34.9733C168.368 33.7581 167.764 32.4118 167.172 31.2022C166.578 29.9925 165.999 28.9166 165.791 28.2435C165.983 27.9815 166.169 27.7348 166.341 27.5021C166.605 27.1453 166.834 26.8164 166.98 26.5098C167.144 26.1753 167.213 25.8631 167.134 25.5635C167.073 25.335 166.991 25.1078 166.894 24.8862C166.848 24.7817 166.8 24.6772 166.747 24.574C166.202 23.4926 165.384 22.6118 165.384 22.6118C166.677 21.7923 168.715 21.3756 168.733 21.4356C168.884 21.3868 169.018 21.3505 169.127 21.3241C169.201 21.3046 169.277 21.2864 169.354 21.2697C169.61 21.2084 169.868 21.1568 170.091 21.1164C170.557 20.6565 171.111 18.9507 170.944 16.438L171.169 16.4673L174.935 16.9704C174.935 16.9704 174.923 18.134 174.988 19.2239C175.038 20.0768 175.138 20.8837 175.327 21.0607C175.619 21.0844 175.796 21.1011 175.796 21.1011C175.796 21.1011 175.796 21.1011 175.797 21.1039C175.797 21.1067 175.8 21.1095 175.803 21.1122C176.016 21.129 176.21 21.1471 176.389 21.168C176.389 21.168 176.405 21.168 176.432 21.1722C176.763 21.2098 177.037 21.2502 177.259 21.2892C177.276 21.2934 177.29 21.2962 177.306 21.299C177.949 21.4161 178.168 21.5261 178.168 21.5261V21.5373C178.137 22.7107 180.052 24.7608 179.918 27.4143C179.912 27.5146 178.938 34.4674 178.942 34.5706C179.021 36.5509 180.002 42.1269 180.002 42.1269C180.898 43.8522 166.732 45.3782 166.155 43.7309H166.154Z" fill="#FFB27D"/>
<path d="M169.638 7.49937C169.569 7.30705 168.747 5.25562 165.477 6.15173C165.477 6.15173 167.128 5.84373 167.623 6.44997C167.623 6.44997 166.268 5.93293 165.472 6.48202C164.678 7.03111 164.646 8.7202 164.801 9.22469C164.956 9.72919 165.962 11.1953 166.567 11.1591C166.795 11.1451 167.035 11.0545 167.245 10.9486C167.169 11.2246 167.104 11.5242 167.055 11.8503C166.598 14.8717 168.746 17.0165 169.748 16.3935C170.391 15.9936 170.967 17.1141 170.967 17.1141L176.041 9.54523C176.041 9.54523 171.909 5.20824 169.638 7.49798V7.49937Z" fill="#2C3A64"/>
<path d="M174.934 16.9719C174.934 16.9719 174.921 18.1341 174.986 19.2254C172.9 19.2936 171.682 17.4819 171.167 16.4688L174.934 16.9719Z" fill="#ED985F"/>
<path d="M175.693 17.9615C175.693 17.9615 170.77 18.3406 170.58 15.3066C170.388 12.2741 169.624 10.2798 172.759 9.90908C175.894 9.53976 176.578 10.6589 176.891 11.6553C177.204 12.6518 176.97 17.7831 175.693 17.9601V17.9615Z" fill="#FFB27D"/>
<path d="M176.639 9.98014C175.821 9.1133 175.257 9.34882 174.952 9.64287C172.168 8.34261 170.566 10.6115 170.566 10.6115C170.372 12.8078 168.861 14.1513 168.861 14.1513C168.861 14.1513 169.794 14.6446 171.831 13.9938C172.453 13.7945 172.991 13.3165 173.438 12.7479C172.686 14.1861 171.607 15.2564 171.607 15.2564C174.01 13.9771 174.793 10.5167 174.869 10.1516C175.186 10.401 175.815 10.9445 176.031 11.502C176.324 12.2601 176.533 13.8433 177 13.7611C177 13.7611 177.866 11.2804 176.639 9.98153V9.98014Z" fill="#2C3A64"/>
<path d="M178.629 90.3746H170.989C170.989 90.3746 170.703 89.1705 171.205 88.351C171.649 87.6263 171.376 87.1344 171.184 86.5184C171.53 86.6577 171.944 86.8807 172.436 86.8528C172.817 86.8306 173.414 86.5546 173.766 86.3525C174.095 86.7232 175.309 88.4054 175.749 88.7175C176.248 89.0715 178.474 88.9461 178.627 90.3746H178.629Z" fill="#233862"/>
<path d="M167.275 90.1976L164.399 83.2043C164.399 83.2043 165.42 82.4894 166.378 82.6413C167.224 82.7751 167.548 82.4643 167.987 81.9375C167.987 82.3068 168.035 82.7653 168.247 83.2057C168.41 83.5458 168.722 83.851 169.045 84.0976C168.822 84.538 167.873 86.4208 167.746 86.9407C167.602 87.5316 168.558 89.5217 167.276 90.2004L167.275 90.1976Z" fill="#233862"/>
<path d="M178.94 34.5706C178.938 34.5134 179.239 32.3282 179.509 30.3869C180.1 30.3228 180.815 30.1862 181.435 29.8991C181.401 29.0518 180.832 21.8077 177.749 21.4007C177.602 21.3617 177.45 21.3282 177.305 21.299C177.29 21.2976 177.275 21.2934 177.258 21.2892C176.88 21.2195 176.546 21.1833 176.43 21.1722C176.402 21.1694 176.388 21.168 176.388 21.168C176.388 21.168 177.307 23.7462 177.289 24.0486C177.272 24.351 174.32 24.4528 172.38 24.4779C170.455 24.5029 169.372 21.3213 169.354 21.2711C169.277 21.2878 169.201 21.3059 169.127 21.3255C169.018 21.3533 166.444 21.7408 165.384 22.6132C165.384 22.6132 166.2 23.4926 166.747 24.5754C166.8 24.6785 166.849 24.7817 166.894 24.8876C166.993 25.1092 167.075 25.3363 167.134 25.5649C167.213 25.8659 167.142 26.1781 166.98 26.5112C166.834 26.8178 166.604 27.1453 166.341 27.5034C166.169 27.7362 165.982 27.9815 165.791 28.2448C165.862 28.4762 165.977 28.7563 166.123 29.0699C166.399 29.6733 166.784 30.4092 167.172 31.2021C167.764 32.4118 168.369 33.7581 168.626 34.9733C168.757 35.5907 165.083 42.1296 166.154 43.7309C166.324 44.2173 167.681 44.4277 169.486 44.4361C173.787 44.4584 180.631 43.3421 180.001 42.1254C180.001 42.1254 179.019 36.5495 178.94 34.5692V34.5706Z" fill="#2B478B"/>
<path d="M169.485 44.4379C167.68 44.4296 166.324 44.2191 166.153 43.7327C165.082 42.1315 168.755 35.5925 168.625 34.9751C168.368 33.7599 167.763 32.4136 167.171 31.204C166.782 30.411 166.398 29.6751 166.122 29.0717C166.274 28.478 166.363 28.1338 166.363 28.1338C166.363 28.1338 170.272 32.6255 171.168 34.7438C171.87 36.4064 170.228 42.0687 169.487 44.4379H169.485Z" fill="#233862"/>
<path d="M167.627 41.3924L166.854 42.7163C161.883 40.7708 158.717 36.3878 158.717 36.3878C158.544 33.8988 159.723 31.0377 161.134 28.5696C161.368 28.1612 161.608 27.7626 161.851 27.3794C162.849 28.2225 164.244 29.3249 165.571 30.1276C165.365 30.4663 165.117 30.8705 164.85 31.3039C163.749 33.0989 162.323 35.3984 162.138 35.5809C161.832 35.8834 167.627 41.3938 167.627 41.3938V41.3924Z" fill="#FFB27D"/>
<path d="M165.055 31.8419C162.608 31.6831 160.805 28.5362 160.805 28.5362C162.716 25.1985 165.384 22.6133 165.384 22.6133C172.166 25.172 166.162 31.12 165.055 31.8419Z" fill="#2B478B"/>
<path d="M167.627 41.3915C167.627 41.3915 168.046 41.3329 168.318 41.0974C168.59 40.8619 169.459 40.1971 169.51 40.4034C169.56 40.6097 168.879 40.9288 169.237 40.9804C169.594 41.0305 170.157 40.7936 170.718 40.8786C171.279 40.9636 172.144 42.2416 171.877 42.3935C171.611 42.5454 170.641 42.0409 170.385 42.2165C170.13 42.3935 168.308 43.3774 166.853 42.7168C165.397 42.0562 167.626 41.3915 167.626 41.3915H167.627Z" fill="#FFB27D"/>
<path d="M180.219 90.2563L180.07 46.8599C180.07 46.8599 179.734 43.7326 176.976 43.7159C174.033 43.6992 173.844 46.8223 173.844 46.8223C173.844 46.8223 173.885 47.0927 174.186 47.0941C174.502 47.0954 174.557 46.8265 174.557 46.8265C174.557 46.8265 174.703 44.4183 176.972 44.4308C179.098 44.4434 179.358 46.8543 179.358 46.8543L179.097 90.2479L180.219 90.2549V90.2563Z" fill="#233862"/>
<path d="M178.718 90.2465L180.548 90.2576L180.396 88.3651C180.396 88.3651 180.413 88.1017 180.043 88.085C179.699 88.0696 179.021 88.0167 178.956 88.2215C178.898 88.4013 178.718 90.2465 178.718 90.2465Z" fill="#233862"/>
<path d="M176.967 41.416L176.839 42.0362C176.839 42.0362 173.734 42.0069 172.989 45.2903C172.989 45.2903 172.784 46.6575 173.784 46.3704C174.784 46.0847 174.633 45.3851 176.049 45.0116C177.465 44.6367 178.387 44.3496 178.607 43.335L178.846 42.2048L176.969 41.4174L176.967 41.416Z" fill="#FFB27D"/>
<path d="M188.107 14.5746C188.107 14.5746 187.266 17.7633 186.54 20.6774C186.248 21.8522 185.974 22.981 185.781 23.8409C185.584 24.7231 185.471 25.321 185.513 25.3878C186.123 26.3787 184.962 32.3964 184.059 34.5789C183.98 34.7726 183.87 34.9983 183.739 35.2506C182.48 37.6546 179.139 42.3665 179.139 42.3665C179.139 42.3665 178.204 42.4571 177.593 42.2257C177.084 42.032 176.74 41.4132 176.74 41.4132C177.039 40.9436 178.272 35.383 179.833 32.271C180.501 30.9401 181.548 18.5562 182.835 16.895C183.91 15.5098 188.108 14.5732 188.108 14.5732L188.107 14.5746Z" fill="#F99746"/>
<path d="M185.514 25.3876C186.123 26.3785 184.962 32.3962 184.06 34.5786C183.981 34.7723 183.871 34.9981 183.74 35.2504C182.582 30.0437 184.597 22.6909 184.597 22.6909C185.088 22.886 185.478 23.2888 185.783 23.8407C185.586 24.7228 185.473 25.3207 185.515 25.3876H185.514Z" fill="#ED7D2B"/>
<path d="M193.769 85.5552C193.769 85.5552 194.057 90.2629 193.157 90.3229C193.037 90.3312 188.597 90.3047 188.597 90.3047L182.868 90.2713C182.868 90.2713 182.973 88.8902 184.631 88.6143C186.289 88.3383 189.07 87.2039 190.087 85.0452C191.158 82.7749 193.768 85.5552 193.768 85.5552H193.769Z" fill="#0F2949"/>
<path d="M202.385 85.6055C202.385 85.6055 202.672 90.3132 201.772 90.3731C201.653 90.3815 197.212 90.355 197.212 90.355L191.483 90.3216C191.483 90.3216 191.588 88.9405 193.248 88.6645C194.906 88.3886 197.687 87.2542 198.704 85.0955C199.774 82.8252 202.385 85.6055 202.385 85.6055Z" fill="#163560"/>
<path d="M194.107 74.2152C194.237 76.2053 194.507 78.7654 194.392 81.0718C194.23 84.2953 194.11 87.0143 194.11 87.0143C191.953 87.7251 188.012 86.8248 188.012 86.8248C188.012 86.8248 186.661 78.6678 185.547 72.1554C185.047 69.2371 184.633 66.7132 184.479 65.5217C183.983 61.6697 185.177 41.2125 185.177 41.2125C185.177 41.2125 191.021 37.5598 193.414 39.4747C195.808 41.3895 197.277 43.2556 193.276 64.0556C192.973 65.6332 193.818 69.7569 194.107 74.2166V74.2152Z" fill="#2B478B"/>
<path d="M194.107 74.2152C194.237 76.2053 194.476 79.3911 194.361 81.6976C192.35 79.5695 188.388 75.0792 185.547 72.1554C185.047 69.2371 184.633 66.7132 184.479 65.5217C183.983 61.6697 185.177 41.2125 185.177 41.2125C185.177 41.2125 191.021 37.5598 193.414 39.4747C195.808 41.3895 197.277 43.2556 193.276 64.0556C192.973 65.6332 193.818 69.7569 194.107 74.2166V74.2152Z" fill="#233862"/>
<path d="M190.436 41.6587C190.436 41.6587 190.835 62.1465 191.629 65.9497C192.423 69.7529 196.582 87.165 196.582 87.165C196.582 87.165 200.576 87.5483 202.67 86.6758C202.67 86.6758 202.585 78.6234 201.905 73.8879C201.269 69.4645 200.107 65.416 200.287 63.8202C202.659 42.7778 201.048 41.0288 198.512 39.3006C195.977 37.5725 190.435 41.6587 190.435 41.6587H190.436Z" fill="#2B478B"/>
<path d="M198.327 43.4981C198.327 43.4981 196.925 46.2366 199.575 48.3494C199.575 48.3494 200.724 49.1368 200.907 48.1236C201.091 47.1104 200.885 47.463 201.171 46.0429C201.459 44.6228 201.11 43.1511 200.287 42.5059L198.327 43.4981Z" fill="#FFB27D"/>
<path d="M186.855 9.92564C186.855 9.92564 188.439 12.3352 188.108 14.5748L190.439 20.2204L194.744 13.7985C194.744 13.7985 192.505 11.3611 191.683 8.0498L186.855 9.92564Z" fill="#FFB27D"/>
<path d="M186.142 11.9702C186.142 11.9702 191.96 12.2531 192.087 8.80109C192.214 5.34905 193.801 3.06071 189.449 2.73181C185.87 2.46144 184.671 3.92894 184.345 5.07172C184.019 6.2145 183.986 11.7723 186.142 11.9702Z" fill="#FFB27D"/>
<path d="M200.207 42.7022C198.956 42.8095 197.233 42.9419 195.144 43.0604C194.727 43.084 194.295 43.1063 193.85 43.1286C187.54 43.4408 185.04 42.4165 185.04 42.4165C185.04 42.4165 184.873 42.2813 184.931 41.551C185.227 37.784 186.045 36.6747 185.951 35.9584C185.741 34.3473 181.868 21.1873 181.868 21.1873C181.868 21.1873 181.817 17.037 186.499 15.1166C186.982 14.9173 187.513 14.7445 188.101 14.6009C188.303 15.1389 188.857 16.0392 190.293 15.8831C192.414 15.6517 193.931 14.4253 194.583 13.7954C194.7 13.7954 194.746 13.7996 194.746 13.7996C194.902 14.2414 195.023 14.7027 195.13 15.1709C195.504 16.8043 195.717 18.5212 196.722 19.8103C197.714 21.0827 198.563 22.337 199.285 23.5634C199.887 24.5835 200.402 25.5856 200.842 26.5597C204.921 35.6142 201.682 42.5768 200.21 42.7036L200.207 42.7022Z" fill="#F99746"/>
<path d="M200.206 42.7024C198.956 42.8097 197.232 42.9421 195.144 43.0605C194.595 32.9121 198.837 23.1929 198.837 23.1929C198.994 23.303 199.143 23.4256 199.283 23.5622C200.008 24.266 200.508 25.307 200.84 26.5585C202.058 31.1658 200.971 38.6329 200.208 42.7024H200.206Z" fill="#ED7D2B"/>
<path d="M184.285 8.66566C184.285 8.66566 183.125 13.1016 185.043 13.7385C186.963 14.3754 192.071 13.9043 192.1 8.45801C192.1 8.45801 189.412 10.0217 188.133 9.97428C186.854 9.9269 186.032 9.19245 184.846 9.75548C184.846 9.75548 184.413 9.72482 184.283 8.66705L184.285 8.66566Z" fill="#C8D9E8"/>
<path d="M194.745 13.7968C194.745 13.7968 198.813 13.9111 200.946 16.6872C202.58 18.8153 204.253 30.1887 204.243 31.9001C204.233 33.6115 202.321 43.0436 201.277 44.0638C201.277 44.0638 200.604 44.231 199.709 44.054C198.758 43.8673 198.201 43.3196 198.201 43.3196C198.201 43.3196 198.781 32.8088 198.787 31.8235C198.795 30.395 194.33 21.629 194.33 21.629C194.33 21.629 192.013 17.4565 194.745 13.7954V13.7968Z" fill="#F99746"/>
<path d="M191.844 3.81856C191.748 3.46597 191.309 3.27782 191.309 3.27782C188.04 1.84796 185.636 3.37678 185.636 3.37678C187.661 0.723296 192.506 1.31141 193.513 3.721C195.158 7.65663 192.102 8.45518 192.102 8.45518C192.102 8.45518 189.064 7.17304 190.837 5.59684C191.425 5.07422 191.71 4.60875 191.806 4.2032C191.838 4.06802 191.849 3.93981 191.842 3.81717L191.844 3.81856Z" fill="#C8D9E8"/>
<path d="M0.423072 89.6143H236.366C236.599 89.6143 236.789 89.801 236.789 90.0323C236.789 90.2623 236.6 90.4504 236.366 90.4504H0.423072C0.190382 90.4504 0 90.2637 0 90.0323C0 89.8024 0.188972 89.6143 0.423072 89.6143Z" fill="#2E3552"/>
</svg>
