<svg width="113" height="134" viewBox="0 0 113 134" fill="none" xmlns="http://www.w3.org/2000/svg">
<g opacity="0.07" clip-path="url(#clip0_111_911)">
<path d="M50.1253 24.4835C57.3985 24.4835 63.9906 27.4482 68.7559 32.2304C73.5212 37.0127 76.4728 43.6308 76.4728 50.9325C76.4728 58.2342 73.5212 64.8498 68.7559 69.6294C63.9906 74.4117 57.3985 77.3764 50.1253 77.3764C42.8494 77.3764 36.2573 74.4117 31.492 69.6294C26.7267 64.8498 23.7751 58.2342 23.7751 50.9325C23.7751 43.6308 26.7267 37.0127 31.492 32.2304C36.2573 27.4482 42.8494 24.4835 50.1253 24.4835ZM84.3984 76.6954C82.8692 76.6954 81.3764 76.8447 79.9411 77.1328C76.9843 77.7221 74.2363 78.8639 71.7257 80.5479C70.4826 81.3811 69.3259 82.3375 68.2731 83.4026C66.1462 85.5345 64.4786 88.0539 63.3277 90.8431C62.7595 92.2259 62.3269 93.6609 62.0359 95.1278C61.7468 96.5941 61.6017 98.0853 61.6027 99.58C61.6027 102.592 62.1847 105.559 63.3277 108.348C63.8947 109.731 64.5994 111.052 65.4311 112.293C67.0987 114.796 69.2544 116.936 71.7492 118.604C72.9914 119.435 74.3172 120.152 75.6977 120.726C77.0286 121.278 78.4431 121.716 79.9098 122.012C84.6594 122.831 89.0802 122.496 93.4437 120.592C94.2266 120.252 95.0017 119.859 95.748 119.424C96.1178 119.191 96.5576 119.095 96.9904 119.155C97.4231 119.214 97.8213 119.424 98.115 119.749L106.286 128.782L113.001 122.601L104.475 113.264C103.888 112.685 103.734 111.761 104.162 111.007C104.592 110.242 104.999 109.443 105.349 108.616C105.694 107.811 106.004 106.968 106.255 106.112C107.304 102.555 107.486 98.8415 106.779 95.1854L106.769 95.1226C105.884 90.6624 103.734 86.6082 100.524 83.3974C96.2517 79.0996 90.419 76.6954 84.3984 76.6954ZM93.9734 85.1573C94.9416 85.8095 95.8263 86.5375 96.6066 87.3154C98.9945 89.7379 100.683 92.8362 101.335 96.1885C101.99 99.5329 101.675 103.045 100.359 106.196C99.9262 107.254 99.3807 108.265 98.7596 109.2C98.1255 110.15 97.4 111.033 96.6014 111.829C95.7977 112.636 94.9176 113.362 93.9734 113.998C89.229 117.187 83.1119 117.819 77.7907 115.592C76.751 115.158 75.7563 114.622 74.8208 113.992C72.9304 112.731 71.3065 111.108 70.0425 109.215C68.1369 106.366 67.1211 103.011 67.1248 99.58C67.1248 97.2832 67.5815 95.0728 68.4062 93.0431L68.4427 92.9488C69.313 90.8438 70.5852 88.9301 72.1877 87.3154C72.9706 86.5375 73.8605 85.8042 74.8261 85.1573C76.679 83.9238 78.8502 83.0098 81.0267 82.575C82.128 82.3603 83.2554 82.245 84.3984 82.245C87.825 82.245 91.1132 83.2586 93.9734 85.1573ZM51.6154 127.417C53.758 126.05 55.8301 124.599 57.8317 123.059C58.8965 124.764 60.1021 126.375 61.4279 127.878C58.8363 129.862 56.1438 131.709 53.3613 133.412C52.3931 134.13 51.0387 134.219 49.9635 133.538C38.2329 126.061 28.3891 117.038 20.6304 107.275C9.94371 93.8131 3.20285 78.8796 0.898486 64.5198C-1.44241 49.9478 0.757562 35.9232 7.9786 24.5149C10.8232 20.0181 14.4663 15.9168 18.9132 12.3655C29.0989 4.21782 40.7643 -0.0956398 52.3357 0.00388139C63.4869 0.100784 74.5338 4.27281 84.0801 13.015C87.4231 16.0739 90.239 19.5624 92.5381 23.3599C100.221 36.0777 101.943 52.2813 98.6657 68.718C96.7684 68.1628 94.8007 67.7673 92.7886 67.5342C95.7793 52.517 94.2762 37.8429 87.4127 26.4765C85.3939 23.139 82.9095 20.1087 80.035 17.4777C71.6318 9.78315 61.9785 6.1061 52.2861 6.02491C42.103 5.9411 31.766 9.79362 22.6477 17.0849C18.7567 20.1936 15.5624 23.7921 13.0623 27.7467C6.65026 37.8795 4.71648 50.4428 6.82511 63.5796C8.96507 76.9206 15.2884 90.8746 25.3331 103.524C32.3323 112.329 41.1401 120.508 51.6154 127.417ZM64.5047 36.4941C60.8302 32.8092 55.7387 30.515 50.1253 30.515C44.5092 30.515 39.4177 32.8092 35.7432 36.4941C32.0687 40.1816 29.7853 45.2991 29.7853 50.9325C29.7853 56.5659 32.0687 61.6782 35.7432 65.3657C39.4177 69.0532 44.5092 71.3448 50.1253 71.3448C55.7387 71.3448 60.8302 69.0532 64.5047 65.3657C68.1792 61.6782 70.4653 56.5659 70.4653 50.9325C70.4653 45.2991 68.1792 40.1816 64.5047 36.4941Z" fill="white"/>
</g>
<defs>
<clipPath id="clip0_111_911">
<rect width="113" height="134" fill="white"/>
</clipPath>
</defs>
</svg>
