<svg width="28" height="28" viewBox="0 0 28 28" fill="none" xmlns="http://www.w3.org/2000/svg">
<path d="M7.7915 25.2874H19.9654C19.9654 26.7855 18.7509 28 17.2528 28H10.5042C9.00601 28 7.7915 26.7855 7.7915 25.2874Z" fill="#233862"/>
<rect x="2.92163" y="6.052" width="22.1566" height="19.7285" rx="9.86424" fill="#233862"/>
<path d="M12.6609 2.47937C12.6609 2.00873 13.0424 1.6272 13.5131 1.6272C13.9837 1.6272 14.3652 2.00873 14.3652 2.47937V6.31271H12.6609V2.47937Z" fill="#233862"/>
<path d="M25.8088 12.2173C27.0191 12.2173 28.0001 13.1984 28.0001 14.4086V17.4242C28.0001 18.6344 27.0191 19.6155 25.8088 19.6155V12.2173Z" fill="#233862"/>
<path d="M2.19141 19.6152C0.98118 19.6152 9.79054e-05 18.6342 9.78009e-05 17.4239L9.75406e-05 14.4084C9.74361e-05 13.1981 0.98118 12.2171 2.19141 12.2171L2.19141 19.6152Z" fill="#233862"/>
<ellipse cx="9.0089" cy="13.2035" rx="1.21739" ry="1.23303" fill="#148A75"/>
<ellipse cx="18.7479" cy="13.2035" rx="1.21739" ry="1.23303" fill="#148A75"/>
<rect x="7.7915" y="20.8484" width="3.16522" height="0.739818" fill="#148A75"/>
<rect x="12.1741" y="20.8484" width="3.16522" height="0.739818" fill="#148A75"/>
<rect x="16.8" y="20.8484" width="3.16522" height="0.739818" fill="#148A75"/>
<path d="M12.1431 6.27675C12.1431 5.89159 12.4553 5.57935 12.8405 5.57935H14.1999C14.5851 5.57935 14.8973 5.89159 14.8973 6.27675H12.1431Z" fill="#233862"/>
<ellipse cx="13.5201" cy="1.39482" rx="1.37713" ry="1.39482" fill="#233862"/>
</svg>
