<svg width="20" height="23" viewBox="0 0 20 23" fill="none" xmlns="http://www.w3.org/2000/svg">
<path fill-rule="evenodd" clip-rule="evenodd" d="M14.1471 0C14.5717 0 14.9164 0.344614 14.9164 0.769228L14.9168 1.63877C16.4144 1.74145 17.6581 2.2544 18.5384 3.1365C19.4994 4.10163 20.0051 5.48931 20 7.15392V16.5108C20 19.9282 17.8297 22.0513 14.3374 22.0513H5.66254C2.17025 22.0513 0 19.8985 0 16.4329V7.15187C0 3.92849 1.93543 1.85942 5.09197 1.63913L5.0926 0.769228C5.0926 0.344614 5.43721 0 5.86182 0C6.28644 0 6.63105 0.344614 6.63105 0.769228L6.63074 1.61948H13.3774L13.3779 0.769228C13.3779 0.344614 13.7225 0 14.1471 0ZM18.4615 9.13227H1.53846V16.4329C1.53846 19.0646 3.00307 20.5128 5.66254 20.5128H14.3374C16.9969 20.5128 18.4615 19.0913 18.4615 16.5108L18.4615 9.13227ZM14.5653 15.5859C14.9899 15.5859 15.3345 15.9305 15.3345 16.3551C15.3345 16.7797 14.9899 17.1243 14.5653 17.1243C14.1407 17.1243 13.7919 16.7797 13.7919 16.3551C13.7919 15.9305 14.1314 15.5859 14.556 15.5859H14.5653ZM10.014 15.5859C10.4386 15.5859 10.7832 15.9305 10.7832 16.3551C10.7832 16.7797 10.4386 17.1243 10.014 17.1243C9.5894 17.1243 9.24068 16.7797 9.24068 16.3551C9.24068 15.9305 9.58017 15.5859 10.0048 15.5859H10.014ZM5.45321 15.5859C5.87782 15.5859 6.22244 15.9305 6.22244 16.3551C6.22244 16.7797 5.87782 17.1243 5.45321 17.1243C5.0286 17.1243 4.67885 16.7797 4.67885 16.3551C4.67885 15.9305 5.01937 15.5859 5.44398 15.5859H5.45321ZM14.5653 11.5995C14.9899 11.5995 15.3345 11.9442 15.3345 12.3688C15.3345 12.7934 14.9899 13.138 14.5653 13.138C14.1407 13.138 13.7919 12.7934 13.7919 12.3688C13.7919 11.9442 14.1314 11.5995 14.556 11.5995H14.5653ZM10.014 11.5995C10.4386 11.5995 10.7832 11.9442 10.7832 12.3688C10.7832 12.7934 10.4386 13.138 10.014 13.138C9.5894 13.138 9.24068 12.7934 9.24068 12.3688C9.24068 11.9442 9.58017 11.5995 10.0048 11.5995H10.014ZM5.45321 11.5995C5.87782 11.5995 6.22244 11.9442 6.22244 12.3688C6.22244 12.7934 5.87782 13.138 5.45321 13.138C5.0286 13.138 4.67885 12.7934 4.67885 12.3688C4.67885 11.9442 5.01937 11.5995 5.44398 11.5995H5.45321ZM13.3774 3.15794H6.63074L6.63105 4.1446C6.63105 4.56921 6.28644 4.91383 5.86182 4.91383C5.43721 4.91383 5.0926 4.56921 5.0926 4.1446L5.09205 3.18122C2.79439 3.37424 1.53846 4.76701 1.53846 7.15187V7.59382H18.4615L18.4615 7.15187C18.4656 5.88521 18.1251 4.9006 17.4492 4.22368C16.8558 3.62861 15.9885 3.27322 14.9172 3.18171L14.9164 4.1446C14.9164 4.56921 14.5717 4.91383 14.1471 4.91383C13.7225 4.91383 13.3779 4.56921 13.3779 4.1446L13.3774 3.15794Z" fill="#352555"/>
</svg>
