<svg width="20" height="20" viewBox="0 0 20 20" fill="none" xmlns="http://www.w3.org/2000/svg">
<path fill-rule="evenodd" clip-rule="evenodd" d="M10.1951 3.36593C11.5501 2.50927 13.3501 2.2726 14.9051 2.77093C18.2876 3.86177 19.3376 7.54926 18.3985 10.4834C16.9493 15.0918 10.7601 18.5293 10.4976 18.6734C10.4043 18.7251 10.301 18.7509 10.1976 18.7509C10.0943 18.7509 9.99181 18.7259 9.89848 18.6751C9.63765 18.5326 3.49348 15.1459 1.99598 10.4843C1.99515 10.4843 1.99515 10.4834 1.99515 10.4834C1.05515 7.54843 2.10181 3.8601 5.48098 2.77093C7.06765 2.2576 8.79681 2.48343 10.1951 3.36593ZM5.86431 3.96093C3.13015 4.8426 2.44348 7.78343 3.18598 10.1026C4.35431 13.7376 8.97015 16.6768 10.1968 17.4043C11.4276 16.6693 16.0768 13.6976 17.2076 10.1059C17.9501 7.78427 17.261 4.84343 14.5226 3.96093C13.196 3.5351 11.6485 3.79427 10.5801 4.62093C10.3568 4.7926 10.0468 4.79593 9.82181 4.62593C8.69015 3.7751 7.21181 3.52593 5.86431 3.96093ZM13.7226 5.61585C14.8585 5.98335 15.6543 6.98918 15.7518 8.17835C15.7793 8.52251 15.5235 8.82418 15.1793 8.85168C15.1618 8.85335 15.1451 8.85418 15.1276 8.85418C14.8051 8.85418 14.5318 8.60668 14.5051 8.28002C14.4501 7.59502 13.9918 7.01668 13.3393 6.80585C13.0101 6.69918 12.8301 6.34668 12.936 6.01918C13.0435 5.69085 13.3926 5.51251 13.7226 5.61585Z" fill="#352555"/>
</svg>
