<svg width="16" height="20" viewBox="0 0 16 20" fill="none" xmlns="http://www.w3.org/2000/svg">
<path fill-rule="evenodd" clip-rule="evenodd" d="M7.877 12.5853L7.99611 12.5853L8.26007 12.5861C10.502 12.5982 15.754 12.8041 15.754 16.3045C15.754 19.55 11.4406 19.9836 8.0854 20L7.49393 19.9997C5.25199 19.9876 0 19.7818 0 16.2823C0 12.9682 4.495 12.5853 7.877 12.5853ZM7.877 14.1009C3.646 14.1009 1.5 14.8354 1.5 16.2823C1.5 17.7433 3.646 18.4849 7.877 18.4849C12.108 18.4849 14.254 17.7504 14.254 16.3045C14.254 14.8415 12.108 14.1009 7.877 14.1009ZM7.877 0C10.81 0 13.195 2.41077 13.195 5.37321C13.195 8.33565 10.81 10.7464 7.877 10.7464H7.846C6.427 10.7414 5.097 10.1786 4.1 9.16416C3.102 8.14873 2.555 6.80088 2.55997 5.37018C2.55997 2.41077 4.945 0 7.877 0ZM7.877 1.51557C5.773 1.51557 4.05997 3.24636 4.05997 5.37321C4.056 6.40279 4.448 7.3677 5.163 8.09619C5.879 8.82366 6.833 9.2268 7.849 9.23084L7.877 9.97954V9.23084C9.982 9.23084 11.695 7.50006 11.695 5.37321C11.695 3.24636 9.982 1.51557 7.877 1.51557Z" fill="#352555"/>
</svg>
