<svg width="17" height="23" viewBox="0 0 17 23" fill="none" xmlns="http://www.w3.org/2000/svg">
<g clip-path="url(#clip0_111_900)">
<path fill-rule="evenodd" clip-rule="evenodd" d="M8.04205 22.0702C8.12236 22.1281 8.21878 22.1608 8.31853 22.1639C8.41828 22.1671 8.51664 22.1405 8.60058 22.0877C10.438 20.9532 12.0701 19.5285 13.4304 17.8715C15.1937 15.71 16.2946 13.3174 16.683 11.0124C17.0697 8.67237 16.7081 6.42335 15.5177 4.59438C15.0334 3.8509 14.4253 3.19189 13.7186 2.64465C12.0394 1.3355 10.1204 0.644166 8.21033 0.658168C6.36828 0.672169 4.55308 1.34425 2.98313 2.74266C2.43942 3.22825 1.96979 3.7876 1.58861 4.40361C0.30866 6.46361 0.0329798 9.09417 0.595083 11.7545C1.06691 13.8733 1.9692 15.8779 3.24844 17.6493C4.52767 19.4207 6.15778 20.9229 8.04205 22.0667V22.0702ZM8.5791 4.81666C7.76431 4.81458 6.96722 5.04891 6.28872 5.48997C5.61022 5.93103 5.08082 6.55899 4.76754 7.29436C4.45426 8.02974 4.37119 8.83946 4.52885 9.62101C4.6865 10.4026 5.07779 11.1208 5.65317 11.6848C6.22856 12.2489 6.96217 12.6333 7.76115 12.7895C8.56012 12.9457 9.38852 12.8666 10.1415 12.5622C10.8945 12.2578 11.5381 11.7419 11.991 11.0797C12.4439 10.4174 12.6857 9.63875 12.6857 8.84214C12.6857 7.77542 12.2526 6.75232 11.4816 5.99755C10.7106 5.24278 9.66477 4.81805 8.57372 4.81666H8.5791Z" fill="white"/>
</g>
<defs>
<clipPath id="clip0_111_900">
<rect width="16.514" height="21.5066" fill="white" transform="matrix(-1 0 0 1 16.832 0.659424)"/>
</clipPath>
</defs>
</svg>
