<svg width="38" height="31" viewBox="0 0 38 31" fill="none" xmlns="http://www.w3.org/2000/svg">
<path d="M22.3914 3.71109L21.7811 3.7853L21.7811 3.7853L22.3914 3.71109ZM22.123 2.78447L21.7154 3.2447L21.7154 3.2447L22.123 2.78447ZM22.6509 5.84526L22.0406 5.91947L22.0406 5.91947L22.6509 5.84526ZM23.1268 7.32617L23.3824 6.767L23.3824 6.767L23.1268 7.32617ZM24.558 6.71703L24.9012 7.22714L24.9012 7.22714L24.558 6.71703ZM27.0584 5.03468L26.7152 4.52458L26.7152 4.52458L27.0584 5.03468ZM27.8111 4.67501L27.7816 5.28912L27.7816 5.28912L27.8111 4.67501ZM28.5259 5.10515L28.1354 5.58002L28.1354 5.58002L28.5259 5.10515ZM31.0736 7.20022L30.6831 7.67509L30.6831 7.67509L31.0736 7.20022ZM31.8192 8.07379L32.4332 8.04315L32.4332 8.04314L31.8192 8.07379ZM31.1642 9.01724L31.6001 9.45088L31.6001 9.45088L31.1642 9.01724ZM29.9543 10.2333L30.3902 10.6669L30.3902 10.6669L29.9543 10.2333ZM30.7252 12.3261L30.6748 12.9388L30.6748 12.9388L30.7252 12.3261ZM33.2915 12.5371L33.3419 11.9244L33.3419 11.9244L33.2915 12.5371ZM34.2578 12.7797L34.71 12.3632L34.71 12.3632L34.2578 12.7797ZM34.2578 17.4802L33.8056 17.0636L33.8056 17.0636L34.2578 17.4802ZM33.2915 17.7228L33.2412 17.11L33.2412 17.11L33.2915 17.7228ZM30.726 17.9338L30.7764 18.5465L30.7764 18.5465L30.726 17.9338ZM28.8808 18.4424L29.4577 18.655L29.4577 18.6549L28.8808 18.4424ZM29.9551 20.0265L30.3909 19.5929L30.3909 19.5929L29.9551 20.0265ZM31.1644 21.242L30.7286 21.6757L30.7286 21.6757L31.1644 21.242ZM31.0738 23.0591L30.6832 22.5842L30.6832 22.5842L31.0738 23.0591ZM28.5261 25.1541L28.1356 24.6793L28.1356 24.6793L28.5261 25.1541ZM27.8113 25.5843L27.8408 26.1984L27.8408 26.1984L27.8113 25.5843ZM27.0586 25.2246L26.7154 25.7347L26.7154 25.7347L27.0586 25.2246ZM24.5581 23.5422L24.9013 23.0321L24.9013 23.0321L24.5581 23.5422ZM23.1268 22.933L22.8712 22.3739L22.8712 22.3739L23.1268 22.933ZM22.651 24.4139L22.0407 24.3397L22.0362 24.3767V24.4139H22.651ZM22.651 24.4139L23.2613 24.4882L23.2658 24.4512V24.4139H22.651ZM22.3914 26.5487L21.7811 26.4745L21.7811 26.4745L22.3914 26.5487ZM22.123 27.4753L21.7154 27.0151L21.7154 27.0151L22.123 27.4753ZM16.3167 27.4753L16.7244 27.0151L16.7244 27.0151L16.3167 27.4753ZM16.0483 26.5487L15.438 26.6229L15.438 26.6229L16.0483 26.5487ZM15.7888 24.4145L16.3991 24.3403L16.3991 24.3403L15.7888 24.4145ZM15.3129 22.9336L15.5686 22.3744L15.5685 22.3744L15.3129 22.9336ZM13.8817 23.5427L14.2249 24.0528L14.2249 24.0528L13.8817 23.5427ZM11.381 25.2252L11.7242 25.7353L11.7243 25.7353L11.381 25.2252ZM10.6284 25.5849L10.5989 26.199L10.5989 26.199L10.6284 25.5849ZM9.91359 25.1548L10.3041 24.6799L10.3041 24.6799L9.91359 25.1548ZM7.36591 23.0597L6.9754 23.5346L6.9754 23.5346L7.36591 23.0597ZM7.27524 21.2427L6.8394 20.809L6.83939 20.809L7.27524 21.2427ZM8.48519 20.0266L8.92103 20.4602L8.92103 20.4602L8.48519 20.0266ZM9.55947 18.4425L10.1364 18.2299L10.1364 18.2299L9.55947 18.4425ZM7.71428 17.9338L7.66389 18.5465L7.66389 18.5465L7.71428 17.9338ZM5.14839 17.7228L5.098 18.3355L5.098 18.3355L5.14839 17.7228ZM4.18214 17.4802L4.63435 17.0636L4.63435 17.0636L4.18214 17.4802ZM4.01953 16.4973L3.40471 16.4973V16.4973H4.01953ZM4.01953 13.7626L4.63435 13.7626V13.7626H4.01953ZM4.18214 12.7797L4.63435 13.1963L4.63435 13.1963L4.18214 12.7797ZM5.14839 12.5371L5.098 11.9244L5.098 11.9244L5.14839 12.5371ZM7.71504 12.3261L7.76543 12.9388L7.76543 12.9388L7.71504 12.3261ZM9.56022 11.8174L10.1371 12.0299L10.1371 12.0299L9.56022 11.8174ZM8.48595 10.2333L8.0501 10.6669L8.0501 10.6669L8.48595 10.2333ZM7.27544 9.01661L7.71129 8.58297L7.71018 8.58187L7.27544 9.01661ZM7.27544 9.01661L6.83959 9.45025L6.84069 9.45135L7.27544 9.01661ZM6.62048 8.07315L7.23453 8.10379L7.23453 8.10379L6.62048 8.07315ZM7.36611 7.19959L7.75662 7.67446L7.75662 7.67446L7.36611 7.19959ZM9.91379 5.10451L9.52328 4.62964L9.52328 4.62964L9.91379 5.10451ZM10.6286 4.67438L10.658 5.28849L10.658 5.28849L10.6286 4.67438ZM11.3812 5.03405L11.7245 4.52394L11.7245 4.52394L11.3812 5.03405ZM13.8818 6.71647L14.225 6.20636L13.8818 6.71647ZM15.7888 5.84469L15.1785 5.77048L15.1785 5.77048L15.7888 5.84469ZM16.0483 3.71109L15.438 3.63687L15.438 3.63687L16.0483 3.71109ZM16.3167 2.78447L16.7244 3.2447L16.7244 3.2447L16.3167 2.78447ZM23.0017 3.63687C22.9724 3.39563 22.9445 3.15669 22.8952 2.96187C22.8416 2.75013 22.7458 2.51475 22.5307 2.32423L21.7154 3.2447C21.6748 3.20877 21.6818 3.17935 21.7032 3.26361C21.7288 3.36477 21.7478 3.51185 21.7811 3.7853L23.0017 3.63687ZM23.2613 5.77104L23.0017 3.63687L21.7811 3.7853L22.0406 5.91947L23.2613 5.77104ZM23.3824 6.767C23.4741 6.80893 23.4539 6.88138 23.4049 6.7034C23.3536 6.51706 23.318 6.23741 23.2613 5.77104L22.0406 5.91947C22.0924 6.34494 22.138 6.73418 22.2193 7.02955C22.3028 7.33327 22.4663 7.70026 22.8712 7.88534L23.3824 6.767ZM24.2148 6.20693C23.825 6.46919 23.5902 6.6252 23.4157 6.70836C23.2491 6.78779 23.2907 6.72507 23.3824 6.767L22.8712 7.88534C23.276 8.07042 23.6605 7.95389 23.9448 7.81835C24.2214 7.68653 24.5456 7.4664 24.9012 7.22714L24.2148 6.20693ZM26.7152 4.52458L24.2148 6.20693L24.9012 7.22714L27.4016 5.54479L26.7152 4.52458ZM27.8406 4.0609C27.5914 4.04893 27.3842 4.12451 27.2138 4.21245C27.0577 4.29299 26.8862 4.40952 26.7152 4.52458L27.4016 5.54479C27.5967 5.41355 27.6998 5.34535 27.7776 5.30519C27.8411 5.27242 27.8273 5.29132 27.7816 5.28912L27.8406 4.0609ZM28.9164 4.63027C28.7572 4.49936 28.5977 4.36694 28.45 4.27181C28.2888 4.16795 28.0898 4.07287 27.8406 4.0609L27.7816 5.28912C27.736 5.28693 27.724 5.2668 27.7841 5.3055C27.8577 5.35294 27.9538 5.43069 28.1354 5.58002L28.9164 4.63027ZM31.4641 6.72534L28.9164 4.63027L28.1354 5.58002L30.6831 7.67509L31.4641 6.72534ZM32.4332 8.04314C32.4163 7.70443 32.2479 7.45516 32.0765 7.2691C31.9171 7.09605 31.694 6.91445 31.4641 6.72534L30.6831 7.67509C30.9411 7.88734 31.0841 8.00675 31.1721 8.10226C31.2481 8.18476 31.2085 8.1716 31.2051 8.10443L32.4332 8.04314ZM31.6001 9.45088C31.8101 9.23982 32.0139 9.03692 32.1553 8.84886C32.3074 8.64666 32.4502 8.38186 32.4332 8.04315L31.2051 8.10443C31.2018 8.03725 31.2399 8.02021 31.1725 8.10987C31.0945 8.21367 30.9641 8.34672 30.7284 8.58361L31.6001 9.45088ZM30.3902 10.6669L31.6001 9.45088L30.7284 8.58361L29.5185 9.79967L30.3902 10.6669ZM29.457 11.6049C29.5033 11.7306 29.3991 11.7712 29.5575 11.5579C29.7091 11.3537 29.9722 11.0871 30.3902 10.6669L29.5185 9.79967C29.1299 10.1902 28.788 10.5316 28.5703 10.8247C28.3593 11.1089 28.1212 11.5361 28.3031 12.0299L29.457 11.6049ZM30.7756 11.7133C30.185 11.6648 29.8118 11.6325 29.5639 11.5755C29.3051 11.5159 29.4107 11.4792 29.457 11.6049L28.3031 12.0299C28.485 12.5237 28.9434 12.6945 29.2883 12.7738C29.6441 12.8557 30.1258 12.8937 30.6748 12.9388L30.7756 11.7133ZM33.3419 11.9244L30.7756 11.7133L30.6748 12.9388L33.2412 13.1499L33.3419 11.9244ZM34.71 12.3632C34.5092 12.1452 34.2631 12.0547 34.0435 12.0076C33.8411 11.9642 33.5933 11.945 33.3419 11.9244L33.2412 13.1499C33.5256 13.1733 33.6795 13.1871 33.7857 13.2099C33.8746 13.229 33.8438 13.2377 33.8056 13.1963L34.71 12.3632ZM35.0352 13.7626C35.0352 13.5104 35.0364 13.2618 35.0098 13.0566C34.9808 12.8339 34.9108 12.5812 34.71 12.3632L33.8056 13.1963C33.7674 13.1549 33.7787 13.1248 33.7904 13.215C33.8044 13.3227 33.8056 13.4772 33.8056 13.7626H35.0352ZM35.0352 16.4973V13.7626H33.8056V16.4973H35.0352ZM34.71 17.8967C34.9108 17.6787 34.9808 17.4261 35.0098 17.2033C35.0364 16.9981 35.0352 16.7495 35.0352 16.4973H33.8056C33.8056 16.7827 33.8044 16.9372 33.7904 17.0449C33.7787 17.1351 33.7674 17.1051 33.8056 17.0636L34.71 17.8967ZM33.3419 18.3355C33.5933 18.3149 33.8411 18.2957 34.0435 18.2523C34.2631 18.2052 34.5092 18.1147 34.71 17.8967L33.8056 17.0636C33.8438 17.0222 33.8746 17.0309 33.7857 17.05C33.6795 17.0728 33.5256 17.0866 33.2412 17.11L33.3419 18.3355ZM30.7764 18.5465L33.3419 18.3355L33.2412 17.11L30.6756 17.321L30.7764 18.5465ZM29.4577 18.6549C29.4114 18.7807 29.3058 18.7439 29.5647 18.6844C29.8126 18.6274 30.1857 18.5951 30.7764 18.5465L30.6756 17.321C30.1265 17.3662 29.6449 17.4042 29.289 17.486C28.9441 17.5654 28.4858 17.7361 28.3039 18.2299L29.4577 18.6549ZM30.3909 19.5929C29.9729 19.1728 29.7099 18.9061 29.5582 18.7019C29.3998 18.4887 29.504 18.5292 29.4577 18.655L28.3039 18.2299C28.122 18.7237 28.36 19.151 28.5711 19.4351C28.7888 19.7282 29.1307 20.0696 29.5192 20.4602L30.3909 19.5929ZM31.6003 20.8084L30.3909 19.5929L29.5192 20.4602L30.7286 21.6757L31.6003 20.8084ZM32.4334 22.2161C32.4503 21.8774 32.3076 21.6126 32.1555 21.4104C32.0141 21.2224 31.8103 21.0195 31.6003 20.8084L30.7286 21.6757C30.9643 21.9126 31.0947 22.0456 31.1727 22.1494C31.2401 22.2391 31.202 22.222 31.2053 22.1549L32.4334 22.2161ZM31.4643 23.5339C31.6942 23.3448 31.9173 23.1632 32.0767 22.9902C32.2481 22.8041 32.4165 22.5549 32.4334 22.2161L31.2053 22.1549C31.2087 22.0877 31.2483 22.0745 31.1723 22.157C31.0843 22.2525 30.9413 22.3719 30.6832 22.5842L31.4643 23.5339ZM28.9166 25.629L31.4643 23.5339L30.6832 22.5842L28.1356 24.6793L28.9166 25.629ZM27.8408 26.1984C28.09 26.1864 28.289 26.0913 28.4502 25.9875C28.5979 25.8923 28.7574 25.7599 28.9166 25.629L28.1356 24.6793C27.954 24.8286 27.8579 24.9063 27.7843 24.9538C27.7242 24.9925 27.7362 24.9723 27.7818 24.9702L27.8408 26.1984ZM26.7154 25.7347C26.8864 25.8498 27.0579 25.9663 27.214 26.0468C27.3844 26.1348 27.5916 26.2103 27.8408 26.1984L27.7818 24.9702C27.8275 24.968 27.8413 24.9869 27.7778 24.9541C27.7 24.9139 27.5969 24.8457 27.4018 24.7145L26.7154 25.7347ZM24.2149 24.0523L26.7154 25.7347L27.4018 24.7145L24.9013 23.0321L24.2149 24.0523ZM23.3824 23.4922C23.2907 23.5341 23.2492 23.4714 23.4158 23.5508C23.5903 23.634 23.8251 23.79 24.2149 24.0523L24.9013 23.0321C24.5457 22.7928 24.2215 22.5727 23.9449 22.4408C23.6606 22.3053 23.2761 22.1888 22.8712 22.3739L23.3824 23.4922ZM23.2613 24.4881C23.318 24.0218 23.3537 23.7421 23.405 23.5558C23.4539 23.3778 23.4742 23.4503 23.3825 23.4922L22.8712 22.3739C22.4664 22.5589 22.3029 22.9259 22.2194 23.2296C22.1381 23.525 22.0924 23.9142 22.0407 24.3397L23.2613 24.4881ZM23.2658 24.4139V24.4139H22.0362V24.4139H23.2658ZM23.0017 26.6229L23.2613 24.4882L22.0407 24.3397L21.7811 26.4745L23.0017 26.6229ZM22.5307 27.9355C22.7458 27.745 22.8416 27.5096 22.8952 27.2979C22.9445 27.1031 22.9724 26.8641 23.0017 26.6229L21.7811 26.4745C21.7478 26.7479 21.7288 26.895 21.7032 26.9962C21.6818 27.0804 21.6748 27.051 21.7154 27.0151L22.5307 27.9355ZM21.1708 28.2447C21.4138 28.2447 21.6543 28.2459 21.8537 28.2204C22.0704 28.1928 22.3156 28.126 22.5307 27.9355L21.7154 27.0151C21.7559 26.9791 21.7843 26.9897 21.6981 27.0007C21.5945 27.0139 21.4462 27.0151 21.1708 27.0151V28.2447ZM17.2689 28.2447H21.1708V27.0151H17.2689V28.2447ZM15.909 27.9355C16.1241 28.126 16.3694 28.1928 16.586 28.2204C16.7854 28.2459 17.0259 28.2447 17.2689 28.2447V27.0151C16.9935 27.0151 16.8452 27.0139 16.7416 27.0007C16.6554 26.9897 16.6838 26.9791 16.7244 27.0151L15.909 27.9355ZM15.438 26.6229C15.4673 26.8641 15.4952 27.1031 15.5445 27.2979C15.5981 27.5096 15.6939 27.745 15.909 27.9355L16.7244 27.0151C16.7649 27.051 16.7579 27.0804 16.7365 26.9962C16.7109 26.895 16.6919 26.7479 16.6586 26.4745L15.438 26.6229ZM15.1784 24.4887L15.438 26.6229L16.6586 26.4745L16.3991 24.3403L15.1784 24.4887ZM15.0573 23.4927C14.9656 23.4508 14.9859 23.3784 15.0348 23.5564C15.0861 23.7427 15.1217 24.0223 15.1784 24.4887L16.3991 24.3403C16.3474 23.9148 16.3017 23.5256 16.2204 23.2302C16.1369 22.9265 15.9734 22.5595 15.5686 22.3744L15.0573 23.4927ZM14.2249 24.0528C14.6147 23.7906 14.8495 23.6345 15.024 23.5514C15.1906 23.472 15.1491 23.5347 15.0573 23.4927L15.5685 22.3744C15.1637 22.1893 14.7792 22.3059 14.4949 22.4414C14.2183 22.5732 13.8941 22.7934 13.5385 23.0326L14.2249 24.0528ZM11.7243 25.7353L14.2249 24.0528L13.5385 23.0326L11.0378 24.7151L11.7243 25.7353ZM10.5989 26.199C10.8481 26.211 11.0553 26.1354 11.2257 26.0475C11.3818 25.9669 11.5532 25.8504 11.7242 25.7353L11.0378 24.7151C10.8428 24.8464 10.7397 24.9146 10.6618 24.9547C10.5983 24.9875 10.6122 24.9686 10.6578 24.9708L10.5989 26.199ZM9.52308 25.6296C9.68228 25.7606 9.84178 25.893 9.98944 25.9881C10.1507 26.092 10.3496 26.187 10.5989 26.199L10.6578 24.9708C10.7035 24.973 10.7155 24.9931 10.6554 24.9544C10.5818 24.907 10.4857 24.8292 10.3041 24.6799L9.52308 25.6296ZM6.9754 23.5346L9.52308 25.6296L10.3041 24.6799L7.75642 22.5848L6.9754 23.5346ZM6.00622 22.2168C6.02312 22.5555 6.19157 22.8048 6.36297 22.9908C6.5224 23.1639 6.74544 23.3455 6.9754 23.5346L7.75642 22.5848C7.49832 22.3726 7.35532 22.2532 7.26733 22.1577C7.19133 22.0752 7.23098 22.0883 7.23433 22.1555L6.00622 22.2168ZM6.83939 20.809C6.6294 21.0201 6.42555 21.223 6.28414 21.4111C6.13211 21.6133 5.98932 21.8781 6.00622 22.2168L7.23433 22.1555C7.23769 22.2227 7.19954 22.2397 7.26695 22.15C7.345 22.0462 7.4754 21.9132 7.71108 21.6763L6.83939 20.809ZM8.04934 19.5929L6.8394 20.809L7.71108 21.6763L8.92103 20.4602L8.04934 19.5929ZM8.98254 18.655C8.93623 18.5293 9.04044 18.4887 8.88206 18.702C8.7304 18.9062 8.46735 19.1728 8.04934 19.5929L8.92103 20.4602C9.3096 20.0697 9.65149 19.7283 9.86922 19.4351C10.0802 19.151 10.3183 18.7237 10.1364 18.2299L8.98254 18.655ZM7.66389 18.5465C8.25455 18.5951 8.62771 18.6274 8.8756 18.6844C9.13446 18.744 9.02886 18.7807 8.98254 18.655L10.1364 18.2299C9.95449 17.7361 9.49615 17.5654 9.15125 17.4861C8.79538 17.4042 8.31373 17.3662 7.76467 17.321L7.66389 18.5465ZM5.098 18.3355L7.66389 18.5465L7.76467 17.321L5.19878 17.11L5.098 18.3355ZM3.72994 17.8967C3.93071 18.1147 4.17681 18.2052 4.39642 18.2523C4.59879 18.2957 4.84667 18.3149 5.098 18.3355L5.19878 17.11C4.91435 17.0866 4.76041 17.0728 4.65425 17.05C4.56533 17.0309 4.59618 17.0222 4.63435 17.0636L3.72994 17.8967ZM3.40471 16.4973C3.40471 16.7495 3.4035 16.9981 3.43016 17.2033C3.4591 17.4261 3.52916 17.6787 3.72994 17.8967L4.63435 17.0636C4.67252 17.1051 4.66127 17.1351 4.64955 17.0449C4.63557 16.9372 4.63435 16.7827 4.63435 16.4973H3.40471ZM3.40471 13.7626L3.40471 16.4973L4.63435 16.4973L4.63435 13.7626L3.40471 13.7626ZM3.72994 12.3632C3.52916 12.5812 3.4591 12.8339 3.43016 13.0566C3.4035 13.2618 3.40471 13.5104 3.40471 13.7626H4.63435C4.63435 13.4772 4.63557 13.3227 4.64955 13.215C4.66127 13.1248 4.67252 13.1549 4.63435 13.1963L3.72994 12.3632ZM5.098 11.9244C4.84668 11.945 4.5988 11.9642 4.39643 12.0076C4.17681 12.0547 3.93072 12.1452 3.72994 12.3632L4.63435 13.1963C4.59618 13.2377 4.56533 13.229 4.65425 13.2099C4.76041 13.1871 4.91435 13.1733 5.19878 13.1499L5.098 11.9244ZM7.66465 11.7133L5.098 11.9244L5.19878 13.1499L7.76543 12.9388L7.66465 11.7133ZM8.9833 11.6049C9.02961 11.4791 9.13522 11.5159 8.87636 11.5754C8.62846 11.6325 8.25531 11.6647 7.66465 11.7133L7.76543 12.9388C8.31449 12.8937 8.79614 12.8556 9.15201 12.7738C9.49691 12.6944 9.95525 12.5237 10.1371 12.0299L8.9833 11.6049ZM8.0501 10.6669C8.46811 11.087 8.73115 11.3537 8.88282 11.5579C9.0412 11.7711 8.93699 11.7306 8.9833 11.6049L10.1371 12.0299C10.319 11.5361 10.081 11.1088 9.86998 10.8247C9.65225 10.5316 9.31036 10.1902 8.92179 9.79964L8.0501 10.6669ZM6.83959 9.45025L8.0501 10.6669L8.92179 9.79964L7.71128 8.58297L6.83959 9.45025ZM6.84069 9.45135L6.8407 9.45135L7.71018 8.58187L7.71018 8.58186L6.84069 9.45135ZM6.00642 8.04251C5.98952 8.38123 6.13231 8.64602 6.28434 8.84822C6.42575 9.03629 6.6296 9.23919 6.83959 9.45024L7.71128 8.58297C7.4756 8.34609 7.34519 8.21303 7.26715 8.10924C7.19974 8.01958 7.23788 8.03662 7.23453 8.10379L6.00642 8.04251ZM6.9756 6.72471C6.74564 6.91382 6.5226 7.09542 6.36317 7.26847C6.19177 7.45453 6.02332 7.70379 6.00642 8.04251L7.23453 8.10379C7.23118 8.17097 7.19153 8.18412 7.26753 8.10162C7.35552 8.00612 7.49852 7.8867 7.75662 7.67446L6.9756 6.72471ZM9.52328 4.62964L6.9756 6.72471L7.75662 7.67446L10.3043 5.57939L9.52328 4.62964ZM10.5991 4.06027C10.3498 4.07223 10.1509 4.16732 9.98964 4.27118C9.84198 4.3663 9.68248 4.49873 9.52328 4.62964L10.3043 5.57939C10.4859 5.43006 10.582 5.3523 10.6556 5.30487C10.7157 5.26616 10.7037 5.2863 10.658 5.28849L10.5991 4.06027ZM11.7245 4.52394C11.5534 4.40889 11.382 4.29236 11.2259 4.21181C11.0555 4.12388 10.8483 4.0483 10.5991 4.06027L10.658 5.28849C10.6124 5.29068 10.5985 5.27179 10.662 5.30456C10.7399 5.34472 10.843 5.41291 11.038 5.54415L11.7245 4.52394ZM14.225 6.20636L11.7245 4.52394L11.038 5.54415L13.5385 7.22658L14.225 6.20636ZM15.0574 6.76644C15.1491 6.72451 15.1907 6.78723 15.024 6.7078C14.8496 6.62464 14.6148 6.46863 14.225 6.20636L13.5385 7.22658C13.8942 7.46584 14.2184 7.68597 14.4949 7.81778C14.7793 7.95333 15.1637 8.06985 15.5686 7.88477L15.0574 6.76644ZM15.1785 5.77048C15.1218 6.23685 15.0861 6.5165 15.0349 6.70284C14.9859 6.88082 14.9657 6.80837 15.0574 6.76644L15.5686 7.88477C15.9735 7.6997 16.1369 7.33271 16.2205 7.02898C16.3017 6.73361 16.3474 6.34438 16.3992 5.91891L15.1785 5.77048ZM15.438 3.63687L15.1785 5.77048L16.3992 5.91891L16.6586 3.7853L15.438 3.63687ZM15.909 2.32423C15.6939 2.51475 15.5981 2.75013 15.5445 2.96187C15.4952 3.15669 15.4673 3.39563 15.438 3.63687L16.6586 3.7853C16.6919 3.51185 16.7109 3.36477 16.7365 3.26361C16.7579 3.17935 16.7649 3.20877 16.7244 3.2447L15.909 2.32423ZM17.2689 2.01506C17.0259 2.01506 16.7854 2.01389 16.586 2.03933C16.3694 2.06698 16.1241 2.13372 15.909 2.32423L16.7244 3.2447C16.6838 3.28063 16.6554 3.27008 16.7416 3.25908C16.8452 3.24587 16.9935 3.2447 17.2689 3.2447V2.01506ZM21.1708 2.01506H17.2689V3.2447H21.1708V2.01506ZM22.5307 2.32423C22.3156 2.13372 22.0704 2.06698 21.8537 2.03933C21.6543 2.01389 21.4138 2.01506 21.1708 2.01506V3.2447C21.4462 3.2447 21.5945 3.24587 21.6981 3.25908C21.7843 3.27008 21.7559 3.28063 21.7154 3.2447L22.5307 2.32423ZM24.6853 15.1299C24.6853 17.4448 22.3564 19.5151 19.22 19.5151V20.7447C22.7996 20.7447 25.915 18.3379 25.915 15.1299H24.6853ZM19.22 10.7447C22.3564 10.7447 24.6853 12.815 24.6853 15.1299H25.915C25.915 11.9219 22.7996 9.51508 19.22 9.51508V10.7447ZM13.7546 15.1299C13.7546 12.815 16.0836 10.7447 19.22 10.7447V9.51508C15.6404 9.51508 12.525 11.9219 12.525 15.1299H13.7546ZM19.22 19.5151C16.0836 19.5151 13.7546 17.4448 13.7546 15.1299H12.525C12.525 18.3379 15.6404 20.7447 19.22 20.7447V19.5151Z" fill="#33363F"/>
</svg>
