<svg width="20" height="24" viewBox="0 0 20 24" fill="none" xmlns="http://www.w3.org/2000/svg">
<path fill-rule="evenodd" clip-rule="evenodd" d="M9.99968 0C11.3353 0 18.3433 2.40594 19.271 3.33366C20.0443 4.10696 20.0325 4.73173 19.9783 7.7259C19.9571 8.92592 19.9276 10.5609 19.9276 12.8242C19.9276 20.9368 10.6504 23.839 10.2555 23.9581C10.1718 23.984 10.0857 23.9958 9.99968 23.9958C9.91363 23.9958 9.82758 23.984 9.74388 23.9581C9.34898 23.839 0.0717783 20.9368 0.0717783 12.8242C0.0717783 10.5645 0.0423081 8.92946 0.0210896 7.72943C0.0114065 7.19413 0.0030767 6.73449 0.00033562 6.33616L0 5.88668C0.0101119 4.41006 0.148695 3.91364 0.729552 3.33366C1.65492 2.40594 8.66292 0 9.99968 0ZM9.99968 1.76821C9.00006 1.76821 2.69344 3.98908 1.96612 4.59617C1.75158 4.81189 1.74333 5.18675 1.7893 7.69643C1.81052 8.90588 1.83999 10.5491 1.83999 12.8242C1.83999 18.9552 8.58512 21.6771 9.99851 22.1781C11.4107 21.6747 18.1594 18.9375 18.1594 12.8242C18.1594 10.5468 18.1889 8.90234 18.2112 7.69289C18.256 5.18557 18.2478 4.81071 18.0203 4.58438C17.3071 3.98908 10.9993 1.76821 9.99968 1.76821ZM14.3866 8.65185C14.732 8.99724 14.732 9.55717 14.3866 9.90256L9.79163 14.4987C9.6596 14.6317 9.4891 14.7179 9.30607 14.747L9.16686 14.7581C8.93228 14.7581 8.70712 14.6649 8.54091 14.4987L6.31061 12.2661C5.9664 11.9207 5.9664 11.3596 6.31179 11.0154C6.656 10.67 7.21711 10.67 7.5625 11.0154L9.16686 12.6221L13.1371 8.65185C13.4825 8.30646 14.0412 8.30646 14.3866 8.65185Z" fill="#352555"/>
</svg>
