<svg width="22" height="22" viewBox="0 0 22 22" fill="none" xmlns="http://www.w3.org/2000/svg">
<path fill-rule="evenodd" clip-rule="evenodd" d="M15.2548 2.75C18.2863 2.75 20.7521 5.21583 20.7521 8.24817V14.8271C20.7521 17.8585 18.2863 20.3253 15.2548 20.3253H7.33118C4.29976 20.3253 1.83301 17.8585 1.83301 14.8271V8.24817C1.83301 5.21583 4.29976 2.75 7.33118 2.75H15.2548ZM15.2548 4.125H7.33118C5.05784 4.125 3.20801 5.97483 3.20801 8.24817V14.8271C3.20801 17.1004 5.05784 18.9503 7.33118 18.9503H15.2548C17.5282 18.9503 19.3771 17.1004 19.3771 14.8271V14.5704L16.354 14.571C14.6151 14.571 13.1998 13.1566 13.1988 11.4186C13.1988 9.67872 14.6142 8.26338 16.354 8.26247L19.3771 8.26192V8.24817C19.3771 5.97483 17.5282 4.125 15.2548 4.125ZM19.3771 9.63692L16.354 9.63747C15.3723 9.63838 14.5738 10.4368 14.5738 11.4176C14.5738 12.3976 15.3732 13.196 16.354 13.196L19.3771 13.1954V9.63692ZM16.7735 10.6733C17.153 10.6733 17.461 10.9813 17.461 11.3608C17.461 11.7403 17.153 12.0483 16.7735 12.0483H16.4875C16.108 12.0483 15.8 11.7403 15.8 11.3608C15.8 10.9813 16.108 10.6733 16.4875 10.6733H16.7735ZM11.6276 6.90992C12.0071 6.90992 12.3151 7.21792 12.3151 7.59742C12.3151 7.97692 12.0071 8.28492 11.6276 8.28492H6.67851C6.29901 8.28492 5.99101 7.97692 5.99101 7.59742C5.99101 7.21792 6.29901 6.90992 6.67851 6.90992H11.6276Z" fill="#352555"/>
</svg>
